<?xml version="1.0" standalone="no"?>
<!DOCTYPE svg PUBLIC "-//W3C//DTD SVG 20010904//EN"
 "http://www.w3.org/TR/2001/REC-SVG-20010904/DTD/svg10.dtd">
<svg version="1.0" xmlns="http://www.w3.org/2000/svg"
 width="667.500000pt" height="914.250000pt" viewBox="0 0 667.500000 914.250000"
 preserveAspectRatio="xMidYMid meet">
<metadata>
Created by potrace 1.16, written by Peter Selinger 2001-2019
</metadata>
<g transform="translate(36.000000,878.250000) scale(0.075000,-0.075000)"
fill="#000000" stroke="none">
<path d="M0 5615 c0 -3737 3 -5615 10 -5615 7 0 10 1876 10 5608 l0 5607 3950
-1 c2173 0 3953 -4 3957 -8 4 -4 1 -12 -7 -17 -11 -8 -12 -12 -2 -16 15 -6 16
-91 1 -130 -7 -19 -7 -29 0 -31 8 -3 11 -1614 11 -5504 0 -3026 2 -5503 5
-5506 3 -3 5 2522 5 5611 l0 5617 -3970 0 -3970 0 0 -5615z"/>
<path d="M7700 11182 c0 -5 11 -7 24 -5 21 4 25 1 29 -23 l4 -29 -1 30 c-1 25
-6 31 -28 33 -16 2 -28 -1 -28 -6z"/>
<path d="M218 11108 c5 -5 16 -8 23 -6 8 3 3 7 -10 11 -17 4 -21 3 -13 -5z"/>
<path d="M383 11078 c2 -22 -1 -23 -58 -21 -56 2 -57 1 -20 -7 74 -16 95 -13
95 14 0 14 -4 28 -10 31 -6 4 -9 -4 -7 -17z"/>
<path d="M7750 11047 c0 -20 4 -37 10 -37 5 0 7 14 3 33 -8 45 -13 47 -13 4z"/>
<path d="M220 11051 c0 -5 9 -7 20 -4 11 3 20 7 20 9 0 2 -9 4 -20 4 -11 0
-20 -4 -20 -9z"/>
<path d="M7686 11023 c-6 -14 -5 -15 5 -6 7 7 10 15 7 18 -3 3 -9 -2 -12 -12z"/>
<path d="M7530 10996 c0 -14 4 -28 10 -31 6 -3 7 1 4 10 -4 8 -1 22 6 30 10
12 9 15 -4 15 -10 0 -16 -9 -16 -24z"/>
<path d="M211 10994 c0 -11 3 -14 6 -6 3 7 2 16 -1 19 -3 4 -6 -2 -5 -13z"/>
<path d="M7755 10967 c-3 -7 -6 -46 -7 -87 -3 -71 -4 -75 -26 -74 -13 1 -21
-3 -20 -8 2 -5 7 -9 11 -9 4 1 16 1 27 1 17 0 19 8 22 83 l3 82 80 6 c84 6 80
9 -23 14 -43 3 -64 0 -67 -8z"/>
<path d="M7670 10963 c8 -3 21 -10 28 -16 9 -7 11 -6 6 7 -3 9 -16 16 -28 15
-14 0 -16 -2 -6 -6z"/>
<path d="M210 10910 c0 -16 -2 -30 -4 -30 -19 0 -36 16 -36 33 0 11 -3 18 -6
14 -4 -3 -4 -18 0 -32 5 -18 13 -25 31 -25 22 0 25 4 25 35 0 19 -2 35 -5 35
-3 0 -5 -13 -5 -30z"/>
<path d="M6668 9823 c-30 -35 4 -59 37 -27 12 12 13 19 4 30 -15 18 -23 18
-41 -3z"/>
<path d="M2130 8234 l25 -15 -30 6 c-16 4 -38 9 -49 11 -10 2 -29 -2 -43 -9
-28 -15 -113 -116 -113 -134 0 -7 -4 -13 -8 -13 -14 0 -34 -52 -24 -59 6 -4 7
-23 2 -46 l-8 -40 -2 40 -2 40 -10 -35 c-12 -43 -4 -127 15 -149 8 -9 12 -22
10 -28 -2 -7 18 -35 46 -63 45 -45 55 -50 93 -50 24 1 53 6 65 13 26 14 74 83
65 92 -4 3 -1 9 5 13 15 10 43 96 54 167 12 81 -5 171 -39 207 -14 15 -23 31
-19 34 9 9 -23 33 -43 33 -9 0 -5 -6 10 -15z m-20 -100 c-16 -41 -13 -56 10
-49 14 4 20 2 20 -9 0 -8 -5 -18 -10 -21 -7 -4 -3 -14 10 -25 34 -29 19 -135
-20 -135 -8 0 -18 -4 -22 -10 -16 -22 3 66 21 99 11 19 16 38 12 41 -11 6 -44
-42 -36 -54 2 -5 -1 -11 -8 -14 -7 -2 -13 -17 -15 -32 -3 -41 -14 -52 -25 -24
-6 13 -9 27 -9 32 1 4 -3 7 -9 7 -7 0 -9 -10 -5 -27 4 -16 7 -33 8 -40 1 -6 6
-9 13 -7 6 3 19 -4 29 -15 17 -19 17 -20 -6 -43 -20 -20 -21 -23 -5 -26 9 -2
15 -7 12 -12 -6 -9 -60 14 -87 37 -15 14 -15 16 0 32 11 12 21 15 29 9 9 -7 9
-2 0 22 -11 29 -12 30 -17 9 -3 -12 -10 -24 -15 -26 -12 -4 -12 101 0 137 7
22 6 23 -8 12 -8 -7 -14 -26 -13 -42 1 -20 -3 -30 -12 -30 -10 0 -11 -4 -5
-12 14 -20 16 -65 2 -73 -6 -4 -15 -2 -19 5 -4 6 -11 11 -16 9 -5 -1 -10 5
-12 14 -5 26 25 20 33 -5 3 -13 8 -18 11 -12 9 20 -15 66 -31 60 -13 -4 -14 2
-8 37 3 23 7 49 7 57 1 8 3 17 6 20 3 3 14 22 25 43 11 20 26 37 33 37 7 0 11
4 7 9 -3 6 3 15 14 20 27 15 30 14 41 -11 6 -15 9 -17 9 -7 1 15 33 37 58 38
9 1 10 -6 3 -25z m-128 -364 c34 -34 17 -42 -19 -8 -22 20 -30 38 -17 38 3 0
19 -13 36 -30z"/>
<path d="M2072 8100 c-8 -13 -8 -20 -2 -20 6 0 13 7 17 15 9 24 -1 27 -15 5z"/>
<path d="M2020 8085 c0 -8 5 -15 10 -15 6 0 10 7 10 15 0 8 -4 15 -10 15 -5 0
-10 -7 -10 -15z"/>
<path d="M1983 8044 c-12 -26 -3 -33 15 -11 6 7 8 18 4 24 -5 7 -11 3 -19 -13z"/>
<path d="M1936 8005 c-3 -8 -1 -15 4 -15 6 0 10 7 10 15 0 8 -2 15 -4 15 -2 0
-6 -7 -10 -15z"/>
<path d="M2011 7994 c0 -11 3 -14 6 -6 3 7 2 16 -1 19 -3 4 -6 -2 -5 -13z"/>
<path d="M2050 7979 c0 -5 5 -7 10 -4 6 3 10 8 10 11 0 2 -4 4 -10 4 -5 0 -10
-5 -10 -11z"/>
<path d="M1994 7962 c-6 -4 -8 -18 -4 -32 l6 -25 8 29 c8 32 5 38 -10 28z"/>
<path d="M2030 7820 c0 -5 7 -10 15 -10 8 0 15 5 15 10 0 6 -7 10 -15 10 -8 0
-15 -4 -15 -10z"/>
<path d="M4982 8177 c-8 -10 -8 -20 2 -39 12 -23 11 -27 -6 -39 -11 -8 -26
-26 -34 -41 -8 -16 -21 -28 -28 -28 -16 0 -29 -27 -20 -41 3 -5 0 -9 -7 -9 -7
0 -5 -8 6 -20 13 -14 14 -19 4 -15 -8 3 -20 -4 -27 -16 -11 -18 -11 -24 4 -40
13 -15 15 -22 6 -31 -9 -9 -12 -9 -12 1 0 7 -6 11 -14 8 -19 -8 -18 32 2 55
11 13 11 21 2 35 -10 16 -11 16 -6 1 3 -10 1 -18 -5 -18 -5 0 -17 -16 -25 -35
-17 -42 -18 -48 -2 -39 8 5 9 2 5 -10 -4 -10 -7 -23 -7 -29 0 -7 -7 -3 -15 7
-8 11 -15 15 -15 9 0 -7 5 -15 11 -18 6 -4 8 -13 5 -21 -3 -8 -1 -14 4 -14 6
0 10 -10 10 -23 0 -13 5 -28 12 -35 6 -6 8 -15 4 -19 -4 -4 -12 -1 -17 7 -9
13 -10 13 -6 0 3 -9 15 -14 31 -13 22 2 25 -1 17 -11 -9 -11 -6 -13 11 -12 29
1 34 -25 8 -42 -17 -10 -20 -10 -20 6 0 9 -9 23 -21 30 -12 8 -19 10 -17 5 3
-4 12 -25 22 -45 9 -20 22 -40 28 -44 6 -4 8 -3 4 4 -3 6 -2 13 4 17 6 4 7 11
4 17 -4 7 -2 8 4 4 6 -3 31 -8 56 -10 43 -3 48 -1 98 49 55 54 108 135 88 135
-6 0 -8 5 -5 10 4 6 11 7 17 4 6 -4 9 -1 6 7 -3 8 2 20 9 28 12 11 12 15 1 22
-7 5 -10 9 -5 10 4 1 10 2 15 3 24 5 30 20 26 68 -2 29 -8 54 -12 57 -5 3 -15
19 -23 36 -8 16 -23 34 -34 40 -11 5 -26 14 -34 19 -8 5 -28 11 -45 12 -48 5
-56 7 -56 15 0 4 12 10 26 13 14 4 24 12 21 19 -5 17 -42 20 -55 4z m74 -109
c-2 -10 2 -22 10 -29 8 -6 14 -18 14 -25 0 -8 5 -14 10 -14 6 0 10 -4 10 -10
0 -5 -6 -10 -13 -10 -6 0 -18 -14 -26 -31 -15 -34 -39 -48 -51 -29 -5 8 -15
-1 -31 -29 -24 -43 -34 -50 -42 -28 -3 6 -6 0 -6 -15 -1 -32 14 -36 41 -11 17
15 18 15 18 -4 0 -19 -24 -38 -42 -35 -5 1 -8 -2 -8 -8 0 -6 5 -10 10 -10 6 0
10 -4 10 -10 0 -5 8 -18 18 -28 14 -14 22 -16 35 -8 24 15 34 -2 11 -19 -24
-18 -51 -19 -58 -2 -3 9 -9 7 -19 -5 -19 -24 -40 -23 -32 1 3 10 -1 24 -10 31
-10 8 -15 9 -15 1 0 -6 5 -11 10 -11 6 0 10 -5 10 -10 0 -15 -60 18 -61 33 -2
23 3 42 14 49 7 4 8 8 4 8 -4 0 1 10 12 22 14 14 19 32 17 52 -1 17 2 37 7 44
6 7 11 26 12 41 3 31 9 40 69 101 33 34 41 37 57 27 12 -7 18 -19 15 -29z m46
-140 c-6 -41 -48 -98 -73 -98 -10 0 -23 9 -29 19 -12 24 -13 42 -1 22 7 -11
12 -10 27 7 10 12 21 19 26 16 4 -3 8 4 8 15 0 12 5 21 11 21 5 0 8 4 5 9 -5
8 7 18 25 20 3 1 3 -14 1 -31z m-242 -88 c13 -8 13 -10 -2 -10 -9 0 -18 -6
-21 -12 -3 -7 -4 -3 -4 10 1 24 5 26 27 12z"/>
<path d="M4865 7780 c-3 -5 -1 -10 4 -10 6 0 11 5 11 10 0 6 -2 10 -4 10 -3 0
-8 -4 -11 -10z"/>
<path d="M5118 8173 c6 -2 18 -2 25 0 6 3 1 5 -13 5 -14 0 -19 -2 -12 -5z"/>
<path d="M5150 8152 c0 -7 7 -23 15 -36 8 -12 17 -37 19 -55 4 -34 12 -48 22
-38 12 12 -8 84 -31 113 -13 16 -24 23 -25 16z"/>
<path d="M4945 8110 c-3 -6 1 -7 9 -4 18 7 21 14 7 14 -6 0 -13 -4 -16 -10z"/>
<path d="M4877 8083 c-4 -3 -7 -11 -7 -17 0 -6 5 -5 12 2 6 6 9 14 7 17 -3 3
-9 2 -12 -2z"/>
<path d="M4801 7754 c0 -11 3 -14 6 -6 3 7 2 16 -1 19 -3 4 -6 -2 -5 -13z"/>
<path d="M5000 7599 c0 -5 5 -7 10 -4 6 3 10 8 10 11 0 2 -4 4 -10 4 -5 0 -10
-5 -10 -11z"/>
<path d="M4922 7593 c-20 -3 -32 -9 -29 -16 5 -15 23 -16 60 -4 27 9 38 28 15
25 -7 0 -28 -3 -46 -5z"/>
<path d="M1186 7457 c3 -10 9 -15 12 -12 3 3 0 11 -7 18 -10 9 -11 8 -5 -6z"/>
<path d="M1175 7380 c-3 -5 -1 -10 4 -10 6 0 11 5 11 10 0 6 -2 10 -4 10 -3 0
-8 -4 -11 -10z"/>
<path d="M3287 7384 c-6 -10 -35 -222 -36 -259 -2 -166 -1 -175 34 -231 19
-32 53 -59 61 -51 3 3 -6 21 -20 42 -45 66 -55 144 -37 288 4 31 3 57 -1 57
-4 0 -8 5 -8 11 0 5 5 7 10 4 6 -3 10 2 10 12 1 10 3 34 6 53 5 37 -8 91 -19
74z"/>
<path d="M1181 7281 c-1 -58 1 -71 14 -71 19 0 30 26 18 43 -5 6 -10 28 -12
47 -4 65 -18 51 -20 -19z"/>
<path d="M3382 6824 c10 -10 20 -15 24 -12 3 4 -5 12 -18 18 -22 12 -22 12 -6
-6z"/>
<path d="M3440 6795 c14 -8 32 -14 40 -14 8 0 0 6 -19 14 -42 19 -54 19 -21 0z"/>
<path d="M3617 6690 c-3 -11 -1 -20 4 -20 5 0 17 -17 28 -37 23 -44 26 -37 9
18 -6 22 -15 39 -20 39 -5 0 -6 5 -3 10 3 6 2 10 -3 10 -5 0 -12 -9 -15 -20z"/>
<path d="M3669 6579 c-1 -8 -1 -17 0 -22 1 -4 -6 -24 -14 -44 -8 -20 -13 -39
-10 -42 3 -3 8 5 12 18 3 13 11 20 19 17 9 -3 12 6 10 35 -3 39 -15 66 -17 38z"/>
<path d="M3610 6411 c-6 -12 -7 -21 -1 -21 10 0 24 30 17 37 -2 3 -9 -5 -16
-16z"/>
<path d="M3576 6346 c-10 -19 -29 -45 -42 -57 -13 -12 -24 -27 -24 -33 0 -6 7
-2 15 8 8 11 25 31 39 46 21 24 43 70 34 70 -2 0 -12 -16 -22 -34z"/>
<path d="M3466 6221 c-3 -5 1 -11 9 -15 9 -3 15 0 15 9 0 16 -16 20 -24 6z"/>
<path d="M4705 5840 c-3 -5 -1 -10 4 -10 6 0 11 5 11 10 0 6 -2 10 -4 10 -3 0
-8 -4 -11 -10z"/>
<path d="M2056 5735 c-5 -14 17 -45 32 -45 6 0 22 -11 36 -25 14 -14 29 -25
34 -25 6 0 13 -7 16 -16 3 -8 11 -12 17 -9 7 5 -4 21 -28 44 -21 20 -44 48
-52 63 -14 26 -46 34 -55 13z"/>
<path d="M4740 5735 c0 -4 6 -13 14 -21 16 -16 40 -19 31 -4 -8 12 -45 33 -45
25z"/>
<path d="M1840 5670 c0 -5 7 -10 15 -10 8 0 15 5 15 10 0 6 -7 10 -15 10 -8 0
-15 -4 -15 -10z"/>
<path d="M2250 5570 c0 -6 7 -10 15 -10 8 0 15 2 15 4 0 2 -7 6 -15 10 -8 3
-15 1 -15 -4z"/>
<path d="M3639 4588 c-5 -17 -2 -398 2 -398 15 0 19 41 19 210 0 109 -4 181
-10 185 -5 3 -10 5 -11 3z"/>
<path d="M3629 4148 c-1 -67 -9 -183 -14 -195 -2 -7 1 -13 8 -13 9 0 13 15 14
43 0 23 4 77 8 120 5 53 4 77 -4 77 -6 0 -11 -15 -12 -32z"/>
<path d="M3610 3875 c0 -8 2 -15 4 -15 2 0 6 7 10 15 3 8 1 15 -4 15 -6 0 -10
-7 -10 -15z"/>
<path d="M3611 3804 c0 -11 3 -14 6 -6 3 7 2 16 -1 19 -3 4 -6 -2 -5 -13z"/>
<path d="M3600 3725 c0 -8 5 -15 10 -15 6 0 10 7 10 15 0 8 -4 15 -10 15 -5 0
-10 -7 -10 -15z"/>
<path d="M3386 2174 c-9 -23 -7 -54 3 -54 5 0 12 -12 16 -27 l8 -28 9 30 c4
17 6 45 3 63 -6 34 -29 43 -39 16z"/>
<path d="M7670 452 c0 -5 10 -8 23 -8 21 1 22 -3 25 -76 l3 -78 37 1 37 1 -32
9 c-32 9 -32 10 -35 82 -3 70 -4 72 -30 75 -16 2 -28 -1 -28 -6z"/>
<path d="M7661 313 c-1 -7 -9 -13 -18 -13 -15 0 -16 -2 -3 -10 18 -11 35 2 27
22 -4 9 -6 10 -6 1z"/>
<path d="M7829 301 c8 -5 20 -7 26 -5 11 5 30 -24 22 -32 -2 -2 -38 -7 -80
-10 l-77 -7 0 -74 c0 -58 -3 -75 -16 -80 -9 -3 -20 0 -26 8 -7 11 -8 9 -6 -6
2 -14 11 -20 28 -20 24 0 25 2 28 83 l3 82 80 0 80 0 -3 33 c-3 29 -7 32 -38
35 -24 2 -31 0 -21 -7z"/>
<path d="M7504 285 c-10 -26 4 -45 33 -44 27 1 27 1 4 8 -28 8 -41 31 -17 31
9 0 16 5 16 10 0 16 -30 12 -36 -5z"/>
<path d="M7573 293 c9 -2 23 -2 30 0 6 3 -1 5 -18 5 -16 0 -22 -2 -12 -5z"/>
<path d="M7630 243 c8 -3 21 -10 28 -16 8 -7 12 -5 12 7 0 11 -8 16 -27 15
-16 0 -22 -3 -13 -6z"/>
<path d="M500 181 c0 -5 -12 -12 -27 -14 -26 -4 -26 -4 5 -6 22 -1 32 3 32 14
0 8 -2 15 -5 15 -3 0 -5 -4 -5 -9z"/>
<path d="M340 153 c0 -11 3 -14 8 -7 4 6 14 14 22 17 10 4 8 6 -7 6 -16 1 -23
-5 -23 -16z"/>
<path d="M408 163 c7 -3 16 -2 19 1 4 3 -2 6 -13 5 -11 0 -14 -3 -6 -6z"/>
</g>
</svg>
