<?xml version="1.0" standalone="no"?>
<!DOCTYPE svg PUBLIC "-//W3C//DTD SVG 20010904//EN"
 "http://www.w3.org/TR/2001/REC-SVG-20010904/DTD/svg10.dtd">
<svg version="1.0" xmlns="http://www.w3.org/2000/svg"
 width="2251.000000pt" height="2866.000000pt" viewBox="0 0 2251.000000 2866.000000"
 preserveAspectRatio="xMidYMid meet">
<metadata>
Created by potrace 1.16, written by Peter Selinger 2001-2019
</metadata>
<g transform="translate(36.000000,2830.000000) scale(0.100000,-0.100000)"
fill="#000000" stroke="none">
<path d="M311 27859 l-63 -31 -64 15 c-55 12 -67 12 -93 0 -17 -9 -32 -26 -36
-41 -3 -14 -17 -36 -31 -49 -13 -12 -24 -30 -24 -40 1 -30 38 -132 60 -162 11
-16 20 -34 20 -40 0 -11 50 -61 62 -61 4 0 8 17 10 38 3 31 7 37 28 40 14 2
35 15 47 30 l22 26 21 -22 c25 -27 45 -28 62 -3 7 10 28 26 46 35 26 13 32 22
32 49 0 18 4 37 8 43 13 14 32 87 32 121 0 32 -39 83 -62 83 -7 0 -42 -14 -77
-31z"/>
<path d="M9115 25520 c-154 -4 -370 -15 -480 -24 -110 -9 -251 -21 -312 -26
-89 -7 -121 -6 -151 4 -28 10 -52 12 -83 6 -24 -5 -143 -16 -263 -25 -121 -9
-230 -21 -243 -26 -35 -13 -75 -11 -97 6 -24 18 -148 20 -246 4 -110 -17 -227
-28 -425 -38 -104 -6 -210 -15 -235 -20 -67 -14 -376 -29 -832 -41 -258 -6
-442 -15 -500 -24 -145 -23 -269 -37 -360 -41 -48 -2 -99 -10 -121 -19 -21
-10 -89 -30 -150 -45 -138 -35 -202 -56 -246 -82 -19 -11 -59 -26 -89 -34 -30
-8 -74 -23 -96 -33 -104 -47 -193 -84 -211 -89 -17 -4 -105 -46 -220 -105 -16
-9 -61 -31 -100 -49 -38 -18 -77 -38 -85 -45 -8 -7 -44 -24 -80 -38 -35 -15
-76 -37 -90 -49 -27 -25 -75 -58 -173 -120 -34 -21 -79 -54 -101 -73 -50 -42
-50 -43 -134 -107 -37 -28 -75 -60 -85 -71 -10 -11 -68 -74 -130 -139 -62 -66
-122 -134 -134 -151 -11 -17 -29 -38 -40 -48 -10 -9 -29 -30 -43 -47 -14 -18
-45 -54 -70 -81 -25 -26 -70 -81 -100 -121 -30 -39 -70 -87 -88 -105 -17 -18
-32 -37 -32 -41 0 -5 -20 -33 -45 -63 -25 -30 -55 -75 -67 -100 -11 -25 -31
-56 -43 -70 -13 -14 -36 -50 -52 -80 -16 -30 -49 -86 -75 -125 -25 -38 -56
-92 -70 -120 -13 -27 -44 -90 -69 -140 -129 -254 -169 -338 -169 -350 0 -8
-15 -47 -33 -87 -18 -40 -46 -111 -61 -158 -16 -47 -38 -114 -51 -150 -43
-123 -77 -225 -87 -265 -5 -22 -25 -87 -43 -145 -33 -104 -73 -239 -93 -315
-5 -22 -22 -73 -36 -113 -14 -41 -26 -86 -26 -101 0 -16 -11 -59 -25 -97 -14
-38 -25 -79 -25 -91 0 -12 -4 -25 -10 -28 -5 -3 -10 -19 -10 -34 0 -15 -15
-83 -34 -152 -18 -68 -36 -137 -40 -154 -4 -16 -15 -48 -26 -70 -10 -22 -23
-65 -28 -95 -5 -30 -21 -86 -36 -125 -14 -38 -26 -82 -26 -97 0 -15 -11 -60
-24 -100 -13 -40 -32 -109 -41 -153 -10 -44 -26 -98 -35 -120 -9 -22 -20 -62
-24 -88 -4 -27 -16 -68 -26 -92 -10 -24 -22 -65 -25 -92 -4 -26 -20 -85 -36
-131 -16 -46 -29 -92 -29 -102 0 -11 -6 -39 -14 -62 -7 -24 -19 -70 -26 -103
-24 -113 -48 -200 -64 -230 -9 -16 -16 -48 -16 -70 0 -23 -9 -67 -20 -99 -12
-32 -34 -110 -51 -174 -16 -65 -33 -126 -38 -137 -5 -11 -12 -42 -15 -69 -3
-26 -13 -69 -22 -95 -8 -25 -20 -84 -26 -131 -5 -47 -18 -123 -28 -170 -23
-105 -36 -180 -50 -290 -7 -47 -16 -104 -21 -127 -5 -23 -13 -82 -19 -130 -9
-81 -15 -124 -40 -283 -5 -30 -14 -100 -20 -155 -6 -55 -16 -129 -21 -165 -32
-201 -38 -263 -40 -440 -1 -107 -8 -244 -15 -305 -8 -60 -18 -173 -23 -250 -6
-77 -13 -153 -16 -170 -3 -16 -8 -264 -11 -550 -5 -415 -3 -593 11 -880 9
-198 18 -400 20 -450 5 -176 17 -351 25 -385 5 -19 10 -83 11 -141 1 -58 7
-144 15 -190 18 -113 35 -260 39 -339 8 -130 24 -331 28 -338 3 -4 8 -66 11
-139 4 -73 11 -147 17 -165 5 -18 9 -53 9 -77 0 -24 12 -94 26 -155 72 -312
98 -418 119 -486 13 -41 30 -102 39 -135 9 -33 24 -80 32 -105 9 -25 25 -76
35 -113 10 -37 21 -73 26 -79 4 -7 10 -30 14 -53 4 -22 19 -83 34 -135 14 -52
30 -117 35 -143 6 -27 16 -63 24 -80 19 -40 53 -134 78 -212 57 -180 74 -226
104 -285 19 -35 34 -69 34 -75 0 -7 11 -34 25 -61 14 -27 25 -54 25 -60 0 -6
9 -23 20 -37 11 -13 31 -47 46 -73 14 -27 35 -65 47 -85 12 -20 35 -58 51 -85
16 -27 39 -60 51 -74 12 -14 34 -45 49 -70 39 -65 83 -126 144 -200 28 -36 60
-76 70 -89 9 -13 35 -45 57 -70 23 -25 58 -68 79 -96 22 -27 45 -54 51 -60 6
-5 43 -46 81 -90 122 -142 747 -775 764 -775 6 0 36 -24 68 -54 75 -70 196
-179 250 -225 23 -20 56 -47 72 -61 16 -14 52 -41 80 -60 28 -19 94 -71 146
-115 53 -44 101 -82 107 -84 7 -2 30 -20 52 -40 45 -39 135 -107 253 -189 43
-29 86 -62 97 -72 20 -18 222 -150 231 -150 2 0 23 -14 46 -30 22 -17 47 -30
54 -30 7 0 28 -14 46 -31 18 -16 45 -33 60 -36 15 -3 35 -13 45 -22 11 -9 39
-27 64 -41 123 -68 235 -126 339 -176 63 -30 122 -59 130 -64 30 -20 97 -49
190 -85 52 -20 103 -40 112 -45 23 -13 218 -78 288 -96 30 -8 75 -25 100 -38
25 -13 65 -26 89 -30 24 -4 57 -14 75 -24 17 -9 56 -22 86 -28 30 -6 98 -23
150 -37 169 -45 274 -69 335 -77 33 -4 92 -17 130 -28 39 -11 97 -26 130 -32
33 -6 85 -18 115 -25 199 -51 836 -155 945 -155 22 0 56 -4 75 -10 19 -5 100
-14 180 -20 80 -6 186 -15 235 -20 179 -19 336 -29 630 -40 165 -6 352 -14
415 -19 63 -5 212 -10 330 -12 284 -5 1607 -2 1785 4 783 26 835 30 1145 73
58 8 132 14 165 14 33 1 92 5 130 11 39 5 99 14 135 18 141 19 278 43 340 60
36 10 90 24 120 30 30 6 102 20 160 32 57 11 116 26 130 34 14 7 45 16 70 20
25 4 75 17 111 30 36 12 86 26 110 30 44 7 148 37 264 77 33 11 87 29 120 39
81 24 207 71 278 103 32 14 64 26 72 26 8 0 39 11 69 25 30 14 61 25 68 25 8
0 35 13 60 29 25 16 56 32 69 36 26 8 161 75 246 121 28 16 78 43 110 61 32
17 78 43 103 57 25 14 65 36 90 50 25 13 54 33 64 45 11 12 25 21 31 21 7 0
29 14 50 30 21 17 43 30 50 30 7 0 23 10 37 23 13 12 48 38 76 58 85 59 285
247 463 435 26 27 53 54 60 61 8 7 25 27 39 44 14 18 50 60 80 94 30 33 76 85
101 115 26 30 61 71 78 91 17 20 31 41 31 46 0 5 16 28 35 50 19 23 35 45 35
49 0 4 6 15 14 23 8 9 23 32 34 51 10 19 43 76 71 125 29 50 61 108 72 130 10
22 25 51 33 65 17 31 40 84 57 130 7 19 27 65 46 101 18 36 33 71 33 77 0 7
11 35 25 62 14 27 25 57 25 66 0 10 11 36 24 58 13 23 34 70 46 106 13 36 29
74 36 85 7 11 16 38 20 60 4 22 17 63 30 90 12 28 25 64 29 80 4 17 18 62 31
102 13 39 24 84 24 100 0 16 6 49 14 74 35 111 89 326 110 439 3 14 17 66 31
115 15 50 31 113 35 140 4 28 15 75 24 105 9 30 23 98 30 150 8 52 19 115 24
140 6 25 17 106 26 180 9 74 26 197 37 274 12 76 25 215 30 310 10 205 14 250
39 426 11 74 26 207 34 295 19 190 23 228 42 365 8 58 19 157 24 220 5 63 14
140 20 170 21 117 44 444 70 1015 5 110 14 286 19 390 6 105 11 271 11 370 0
99 5 241 10 315 12 174 25 738 25 1090 0 273 -21 647 -51 910 -8 69 -19 175
-25 235 -9 100 -25 225 -50 390 -38 249 -79 622 -79 718 0 222 -70 652 -175
1087 -20 80 -35 154 -35 164 0 20 -19 86 -86 299 -19 59 -34 117 -34 127 0 10
-4 29 -9 42 -5 13 -17 50 -26 83 -16 61 -50 171 -125 415 -62 197 -115 392
-143 520 -33 150 -99 371 -137 460 -15 36 -37 97 -50 135 -12 39 -26 74 -31
80 -5 5 -9 17 -9 27 0 10 -13 46 -29 80 -17 35 -35 85 -41 113 -6 27 -15 54
-19 60 -5 5 -21 51 -36 100 -14 50 -35 111 -46 137 -10 26 -19 54 -19 62 0 16
-15 48 -36 76 -7 8 -15 26 -19 40 -4 14 -20 43 -36 64 -16 22 -29 44 -29 49 0
4 -21 43 -47 85 -25 42 -57 101 -70 129 -12 29 -34 71 -48 93 -14 22 -25 46
-25 53 0 8 -15 34 -33 58 -19 24 -42 58 -51 74 -19 34 -29 50 -103 160 -29 43
-53 81 -53 85 0 3 -12 17 -26 31 -15 13 -37 40 -49 59 -28 43 -168 187 -253
260 -35 30 -79 69 -97 85 -19 17 -40 35 -47 40 -7 6 -38 31 -68 56 -30 25 -69
53 -87 63 -18 9 -36 22 -40 28 -4 7 -37 33 -73 57 -36 25 -78 55 -93 68 -16
13 -36 23 -46 23 -10 0 -26 9 -36 20 -10 11 -27 22 -39 26 -11 4 -41 21 -66
38 -25 18 -81 50 -125 73 -44 22 -105 54 -135 70 -30 17 -71 39 -90 48 -19 10
-44 23 -55 29 -11 5 -60 31 -108 58 -48 26 -93 48 -99 48 -6 0 -27 10 -47 22
-42 26 -126 64 -191 85 -44 14 -78 29 -266 112 -50 23 -96 41 -102 41 -6 0
-45 16 -86 35 -41 19 -81 35 -89 35 -7 0 -17 4 -22 9 -6 4 -35 16 -65 26 -30
9 -94 32 -142 51 -48 19 -96 34 -105 34 -10 0 -30 6 -45 14 -14 8 -43 19 -65
26 -21 6 -78 27 -128 47 -143 56 -290 109 -380 138 -127 41 -185 58 -230 66
-27 5 -79 16 -115 24 -124 29 -212 45 -248 45 -21 0 -102 11 -182 25 -80 13
-173 25 -208 25 -35 0 -82 4 -105 9 -89 20 -237 41 -357 51 -69 6 -161 15
-205 20 -196 23 -292 31 -460 40 -99 5 -254 19 -345 30 -247 30 -502 50 -615
48 -55 -1 -226 -4 -380 -8z m562 -100 c26 -6 122 -15 213 -20 91 -6 246 -19
345 -30 99 -11 259 -25 355 -30 96 -5 202 -14 235 -20 108 -18 228 -32 360
-40 72 -5 186 -18 255 -29 69 -12 175 -28 235 -36 61 -8 170 -24 243 -35 74
-11 151 -20 171 -20 21 0 71 -9 112 -20 41 -11 106 -27 144 -36 84 -18 346
-102 359 -115 6 -5 18 -9 28 -9 10 0 41 -11 68 -25 27 -14 57 -25 65 -25 9 0
53 -15 98 -34 86 -35 181 -69 257 -90 25 -7 55 -18 66 -24 12 -6 62 -25 112
-41 49 -17 106 -39 126 -51 20 -11 53 -24 74 -29 20 -5 71 -24 112 -41 41 -18
100 -43 130 -55 30 -13 84 -35 120 -50 36 -15 85 -35 110 -45 125 -51 178 -75
210 -96 19 -13 40 -24 46 -24 6 0 22 -9 36 -19 13 -11 36 -23 51 -26 14 -4 49
-22 78 -41 29 -19 60 -34 68 -34 8 0 29 -11 47 -25 18 -14 39 -25 46 -25 8 0
38 -16 68 -35 30 -19 59 -35 64 -35 5 0 24 -11 42 -25 18 -14 37 -25 41 -25 5
0 31 -14 59 -32 74 -48 86 -56 124 -75 19 -9 49 -30 67 -46 17 -16 40 -34 51
-41 22 -13 140 -98 162 -118 9 -7 58 -49 110 -92 100 -84 208 -185 269 -251
20 -21 53 -57 74 -78 20 -21 37 -44 37 -52 0 -8 4 -15 10 -15 5 0 32 -35 59
-77 28 -43 59 -90 70 -104 12 -15 24 -35 28 -45 4 -11 20 -32 35 -49 15 -16
28 -33 28 -37 0 -5 27 -58 60 -119 32 -61 62 -121 66 -133 4 -11 15 -33 25
-48 11 -14 35 -55 55 -90 21 -34 50 -85 66 -113 16 -27 35 -66 44 -85 8 -19
26 -56 38 -81 13 -26 27 -66 31 -90 4 -24 28 -100 52 -169 25 -69 52 -145 60
-170 8 -25 23 -64 34 -86 10 -23 21 -55 25 -70 3 -16 19 -58 34 -94 26 -60 35
-84 74 -202 42 -129 77 -250 85 -303 5 -33 16 -79 25 -102 8 -23 18 -63 22
-90 3 -26 12 -64 20 -83 7 -19 22 -69 33 -110 12 -41 29 -95 38 -120 8 -25 24
-74 33 -110 10 -36 25 -85 35 -110 9 -25 23 -72 30 -105 20 -86 58 -217 89
-308 14 -42 26 -87 26 -98 0 -11 11 -53 24 -92 13 -40 29 -95 34 -122 5 -28
21 -95 35 -150 32 -125 65 -285 82 -390 7 -44 18 -98 25 -120 18 -59 29 -134
40 -285 6 -74 13 -142 16 -150 4 -8 10 -80 14 -160 5 -80 16 -224 24 -320 15
-164 20 -202 46 -347 27 -144 38 -240 70 -573 5 -52 12 -105 15 -118 3 -12 10
-87 15 -165 5 -78 17 -221 26 -317 27 -286 20 -936 -16 -1565 -9 -164 -16
-322 -40 -970 -4 -121 -11 -245 -14 -275 -4 -30 -13 -183 -21 -340 -14 -258
-26 -379 -55 -540 -5 -30 -16 -122 -25 -205 -9 -82 -20 -179 -25 -215 -5 -36
-14 -123 -20 -195 -6 -71 -22 -220 -36 -330 -13 -110 -28 -285 -34 -390 -6
-104 -15 -212 -20 -240 -5 -27 -16 -108 -25 -180 -8 -71 -20 -168 -26 -215 -6
-47 -17 -123 -26 -170 -8 -47 -21 -123 -28 -170 -8 -47 -23 -123 -35 -170 -37
-153 -50 -204 -71 -290 -11 -47 -32 -126 -45 -175 -13 -50 -24 -98 -24 -106 0
-9 -13 -63 -29 -120 -15 -57 -36 -138 -46 -179 -10 -41 -21 -79 -25 -85 -4 -5
-11 -30 -15 -54 -4 -24 -20 -75 -36 -112 -16 -37 -29 -75 -29 -84 0 -9 -13
-46 -30 -82 -16 -35 -30 -70 -30 -76 0 -7 -14 -34 -30 -62 -16 -27 -30 -56
-30 -63 0 -7 -9 -32 -19 -55 -11 -24 -31 -72 -44 -107 -42 -110 -141 -321
-185 -394 -23 -37 -42 -71 -42 -74 0 -3 -15 -28 -32 -56 -18 -27 -37 -58 -43
-67 -69 -116 -135 -208 -174 -243 -11 -11 -21 -25 -21 -33 0 -7 -4 -13 -8 -13
-5 0 -56 -55 -114 -122 -181 -210 -533 -556 -628 -617 -14 -9 -44 -30 -68 -48
-24 -18 -47 -33 -52 -33 -8 0 -95 -54 -139 -87 -45 -34 -100 -67 -245 -147
-27 -15 -59 -34 -70 -42 -11 -8 -26 -14 -33 -14 -7 0 -37 -16 -67 -35 -30 -19
-60 -35 -67 -35 -6 0 -32 -11 -58 -23 -124 -64 -197 -97 -209 -97 -7 0 -35
-11 -62 -25 -27 -14 -56 -25 -65 -25 -8 0 -43 -14 -77 -30 -34 -17 -81 -33
-103 -37 -22 -3 -44 -9 -50 -13 -17 -13 -246 -92 -305 -105 -30 -7 -86 -22
-125 -33 -159 -49 -273 -81 -325 -92 -106 -23 -126 -28 -265 -63 -77 -19 -180
-40 -230 -46 -105 -14 -161 -24 -265 -45 -41 -9 -90 -16 -107 -16 -18 0 -63
-4 -100 -10 -109 -16 -439 -52 -553 -62 -258 -20 -1128 -38 -1940 -40 -630 -1
-1397 18 -1695 43 -60 5 -157 13 -215 18 -98 8 -348 36 -555 62 -49 6 -121 15
-160 19 -266 29 -362 43 -452 65 -57 14 -124 25 -150 25 -27 0 -75 10 -108 22
-33 11 -89 24 -125 28 -36 4 -99 17 -140 29 -41 12 -97 27 -125 32 -27 6 -93
21 -145 34 -52 13 -115 26 -140 29 -25 3 -81 17 -125 32 -44 14 -112 34 -151
44 -39 9 -80 23 -92 29 -11 6 -31 11 -44 11 -13 0 -41 9 -61 19 -21 11 -61 27
-90 36 -29 10 -81 28 -117 41 -36 13 -74 24 -84 24 -10 0 -53 16 -96 35 -43
19 -82 35 -88 35 -6 0 -32 11 -58 25 -26 14 -54 25 -62 25 -8 0 -36 13 -61 28
-25 16 -84 45 -131 66 -129 56 -201 93 -250 129 -13 9 -31 17 -39 17 -8 0 -28
10 -45 23 -44 32 -152 97 -163 97 -4 0 -30 16 -57 35 -27 19 -55 35 -62 35 -6
0 -18 7 -25 16 -8 9 -33 25 -56 35 -23 10 -50 26 -60 36 -24 23 -130 94 -163
109 -14 6 -33 21 -44 32 -10 12 -38 31 -62 43 -24 11 -65 39 -91 62 -27 23
-55 47 -64 52 -58 36 -97 66 -119 90 -14 15 -43 39 -65 52 -22 14 -53 38 -70
54 -55 51 -103 89 -113 89 -5 0 -16 7 -23 16 -8 9 -47 43 -89 74 -41 32 -96
78 -121 104 -26 25 -51 46 -55 46 -4 0 -21 15 -38 33 -17 17 -75 70 -129 117
-162 141 -645 627 -753 758 -29 35 -62 71 -73 79 -12 8 -21 20 -21 26 0 13
-78 97 -89 97 -4 0 -14 12 -22 27 -13 27 -55 82 -109 143 -14 16 -34 41 -45
55 -11 15 -34 43 -51 63 -17 20 -48 66 -69 102 -22 36 -52 83 -67 104 -15 21
-28 46 -28 55 0 9 -16 34 -35 56 -19 22 -35 44 -35 48 0 5 -13 27 -28 50 -15
23 -42 74 -60 112 -18 39 -47 99 -66 135 -18 36 -37 81 -41 100 -4 19 -16 53
-26 75 -18 38 -75 198 -86 240 -2 11 -9 29 -13 40 -5 11 -23 65 -41 120 -17
55 -38 112 -46 128 -7 15 -18 57 -23 95 -11 80 -49 221 -85 317 -15 39 -33 98
-41 131 -7 34 -20 77 -27 95 -16 37 -23 64 -63 234 -14 61 -34 146 -45 190
-11 44 -24 115 -29 158 -5 43 -16 103 -25 135 -17 63 -44 378 -45 513 0 47 -7
132 -16 190 -13 92 -46 419 -74 744 -19 219 -33 894 -33 1515 1 621 8 799 42
1145 5 50 15 191 21 315 7 124 18 263 26 310 8 47 21 148 29 225 8 77 19 163
24 190 21 102 41 222 51 302 5 46 16 110 25 142 8 33 19 97 25 143 12 108 29
219 36 238 3 8 14 56 24 105 20 100 48 215 92 380 17 61 34 130 38 155 5 25
18 72 29 104 12 33 21 74 21 92 0 18 13 72 29 121 44 136 57 182 76 263 23
100 43 175 60 230 8 25 19 71 24 102 6 32 17 70 25 86 8 15 19 50 25 77 22
110 31 142 51 193 11 29 20 61 20 73 0 20 38 165 66 249 8 25 26 86 39 137 13
50 32 111 41 135 19 52 37 122 54 208 6 35 23 100 36 145 13 44 28 96 33 115
5 19 16 62 25 95 8 33 22 92 30 130 9 39 24 89 36 112 11 23 20 47 20 54 0 19
113 379 142 451 10 27 23 71 28 100 10 49 47 152 92 256 10 24 21 58 25 75 3
18 16 50 28 72 12 22 28 58 35 80 16 53 196 421 224 460 12 17 37 59 55 95 19
36 40 72 47 81 8 8 25 35 38 60 52 97 63 115 94 149 18 19 32 39 32 44 0 5 11
24 25 42 14 18 25 37 25 43 0 5 16 24 35 42 19 19 35 38 35 44 0 5 43 57 95
115 52 58 95 109 95 113 0 5 24 32 53 62 64 66 141 152 172 194 33 46 187 196
275 269 41 34 83 68 92 76 9 8 27 20 39 27 13 6 55 35 94 64 38 29 85 61 103
71 18 10 54 31 80 46 26 15 67 37 92 48 25 11 62 29 82 40 166 91 222 120 241
126 12 4 72 30 132 59 61 29 121 55 135 59 14 4 50 18 80 31 153 65 188 79
254 100 39 13 82 28 96 33 152 64 416 104 495 75 22 -8 48 -17 57 -20 9 -3 41
6 70 20 83 39 337 64 365 36 16 -16 59 -7 55 12 -6 39 14 41 456 49 356 5 432
4 455 -7 24 -12 45 -12 120 -3 51 7 111 16 134 21 23 5 61 9 85 9 24 0 82 11
128 24 48 13 130 27 186 31 91 6 106 4 143 -14 37 -19 47 -20 123 -11 46 6
142 17 213 25 72 7 166 19 210 25 44 6 188 13 320 15 132 2 283 8 335 14 52 6
288 15 524 20 235 6 431 12 434 15 9 10 118 7 169 -4z"/>
<path d="M13406 24128 c-10 -6 -67 -12 -125 -13 -93 -3 -113 -6 -161 -30 -30
-16 -73 -44 -96 -64 -22 -20 -58 -51 -81 -69 -32 -26 -43 -45 -57 -92 -9 -33
-16 -78 -16 -101 0 -23 -9 -87 -19 -143 -11 -55 -22 -137 -26 -181 -3 -44 -12
-99 -20 -122 -8 -23 -17 -72 -21 -110 -3 -37 -19 -137 -35 -221 -16 -84 -34
-192 -39 -240 -6 -48 -17 -123 -26 -167 -8 -44 -19 -123 -24 -175 -6 -52 -19
-138 -30 -190 -11 -52 -27 -171 -35 -265 -9 -93 -20 -186 -25 -205 -12 -50
-27 -170 -45 -360 -9 -91 -20 -183 -25 -205 -5 -22 -14 -87 -20 -145 -6 -58
-15 -128 -21 -155 -26 -138 -50 -1244 -29 -1415 6 -52 15 -149 20 -215 9 -118
33 -256 65 -365 9 -30 20 -77 24 -105 5 -27 18 -69 30 -92 11 -23 21 -46 21
-51 0 -18 51 -101 89 -144 l39 -43 136 2 137 2 50 38 c109 83 179 145 208 186
30 41 107 156 126 188 19 30 49 74 79 113 53 68 98 163 144 296 8 25 19 53 24
64 6 10 25 62 43 115 18 53 46 132 61 176 58 167 72 212 87 270 9 33 23 85 31
115 9 30 23 109 31 175 8 66 21 172 29 235 42 310 65 615 88 1175 13 305 13
283 11 795 0 195 -1 429 0 520 0 188 -10 363 -24 400 -5 14 -22 81 -38 150
-32 135 -75 266 -96 290 -7 8 -24 38 -38 65 -26 52 -78 112 -135 155 -18 14
-47 37 -65 53 -17 15 -34 27 -38 27 -4 0 -33 20 -65 45 -61 48 -69 50 -98 33z
m312 -916 c-6 -27 -23 -16 -26 18 -2 33 -2 34 13 15 9 -11 14 -26 13 -33z
m-256 -1239 c-8 -36 -9 -37 -20 -16 -9 16 -9 29 0 53 8 26 13 29 19 17 5 -8 5
-33 1 -54z m-20 -161 c-8 -23 -11 -24 -17 -9 -4 9 -4 29 0 44 6 25 8 26 16 10
7 -11 7 -27 1 -45z m-32 -392 c0 -10 -4 -21 -9 -25 -12 -7 -25 31 -16 45 9 15
25 2 25 -20z m-114 -72 c-3 -24 -9 -72 -12 -108 -3 -36 -11 -69 -16 -75 -12
-11 -5 177 7 208 14 34 27 18 21 -25z m-25 -261 c-8 -8 -11 0 -10 29 1 39 1
39 11 11 7 -21 7 -32 -1 -40z m-695 -1161 c-3 -67 -8 -130 -12 -140 -16 -43
-24 -4 -24 124 0 135 1 140 21 140 20 0 21 -3 15 -124z m131 -1025 c3 -27 3
-58 -1 -68 -13 -33 -26 8 -26 82 1 80 17 71 27 -14z"/>
<path d="M4500 23520 c-14 -5 -37 -12 -52 -15 -45 -9 -83 -76 -102 -180 -9
-49 -25 -121 -36 -160 -22 -84 -39 -242 -45 -419 -2 -71 -9 -161 -14 -200 -34
-240 -51 -1230 -27 -1606 19 -300 32 -446 52 -590 8 -58 14 -131 14 -162 0
-60 9 -128 41 -308 10 -58 21 -130 25 -160 3 -30 15 -91 25 -135 11 -44 23
-109 28 -145 5 -36 23 -119 40 -185 17 -66 31 -128 31 -138 0 -27 65 -215 94
-272 14 -27 26 -53 26 -57 0 -7 26 -50 82 -132 39 -58 162 -183 198 -201 22
-11 98 -27 125 -26 47 2 75 17 106 58 19 24 46 59 60 76 44 55 88 141 95 187
3 25 13 65 21 90 23 67 42 151 43 182 0 15 11 60 24 100 13 40 28 91 34 113 6
22 21 67 33 100 12 33 25 76 30 95 4 19 15 60 24 90 41 133 67 796 45 1120 -7
96 -16 285 -20 420 -6 174 -14 277 -29 355 -11 61 -21 135 -21 165 0 30 -12
120 -26 200 -14 80 -30 177 -35 215 -6 39 -21 122 -35 185 -13 63 -24 124 -24
136 0 12 -14 70 -31 130 -17 60 -35 131 -39 159 -5 27 -13 66 -19 85 -5 19
-15 55 -22 80 -6 25 -16 54 -20 65 -5 11 -20 52 -34 90 -14 39 -30 79 -35 90
-95 202 -101 213 -145 263 -33 37 -154 130 -202 156 -17 8 -45 27 -63 42 -42
36 -172 61 -220 44z m550 -3815 c0 -8 -4 -17 -10 -20 -6 -4 -10 5 -10 20 0 15
4 24 10 20 6 -3 10 -12 10 -20z m-5 -150 c2 -52 -1 -98 -6 -101 -5 -3 -9 42
-9 102 0 132 12 131 15 -1z"/>
<path d="M9310 17636 c-14 -8 -61 -26 -104 -41 -65 -22 -86 -25 -116 -17 -38
9 -70 1 -70 -20 0 -5 -18 -27 -41 -47 -38 -34 -40 -38 -29 -66 14 -35 35 -115
44 -167 4 -20 6 -317 5 -660 -2 -855 1 -1028 14 -1050 9 -14 9 -23 -1 -38 -18
-29 -15 -50 14 -111 53 -111 196 -333 248 -385 9 -8 16 -19 16 -23 0 -4 8 -16
18 -27 9 -10 38 -43 63 -71 26 -29 80 -80 120 -114 41 -33 98 -89 128 -122 30
-34 98 -105 151 -157 119 -117 145 -162 136 -237 l-6 -53 54 -53 c57 -55 61
-64 71 -160 6 -50 10 -59 35 -72 15 -8 39 -28 54 -45 22 -27 26 -41 26 -99 0
-51 -5 -74 -19 -92 -10 -13 -22 -34 -26 -47 -3 -13 -19 -38 -35 -55 -15 -18
-30 -41 -34 -53 -3 -11 -18 -27 -31 -34 -14 -8 -37 -29 -51 -47 -14 -18 -30
-33 -37 -33 -16 0 -77 -72 -77 -91 0 -8 -25 -41 -56 -72 l-56 -57 29 -28 c17
-15 33 -36 36 -47 9 -32 20 -98 21 -125 1 -18 11 -30 36 -42 50 -25 83 -22
138 12 27 17 55 30 63 30 8 0 26 7 41 14 16 8 58 25 95 37 80 27 198 83 208
98 3 6 23 19 43 29 21 10 64 38 96 62 32 25 64 48 70 52 6 4 38 23 71 42 33
20 79 55 102 78 23 24 91 94 152 155 61 62 116 124 121 138 13 35 13 81 -2
122 -10 27 -9 42 4 80 11 34 15 83 14 165 l-1 117 -36 38 c-20 21 -51 64 -69
97 -50 88 -135 172 -190 185 -25 6 -52 16 -60 21 -20 14 -66 35 -120 55 -155
59 -181 79 -405 297 -137 134 -142 137 -187 138 -31 0 -43 7 -80 50 -39 47
-204 215 -271 278 -16 15 -40 50 -55 77 -24 45 -27 65 -33 205 -4 85 -11 308
-14 495 -3 187 -11 405 -16 485 -5 80 -14 213 -19 295 -5 83 -14 195 -19 250
-6 55 -11 173 -11 263 0 159 -1 163 -25 187 -28 29 -92 34 -135 11z"/>
<path d="M14585 12454 c-9 -15 -33 -40 -53 -58 -20 -17 -83 -80 -141 -139 -95
-97 -167 -163 -270 -245 -19 -15 -50 -41 -70 -57 -20 -17 -65 -53 -101 -80
-36 -27 -71 -57 -78 -67 -7 -10 -19 -18 -27 -18 -7 0 -22 -11 -33 -25 -11 -14
-24 -25 -30 -25 -5 0 -16 -10 -24 -23 -9 -12 -28 -29 -44 -37 -16 -8 -61 -41
-101 -72 -39 -32 -75 -58 -79 -58 -4 0 -37 -26 -73 -58 -93 -82 -298 -232
-317 -232 -3 0 -15 -9 -27 -20 -27 -26 -69 -38 -75 -21 -6 17 -32 41 -44 41
-6 0 -29 -21 -52 -47 -77 -87 -190 -193 -206 -193 -9 0 -31 -11 -50 -25 -26
-20 -41 -24 -67 -19 -29 5 -38 1 -85 -45 -29 -28 -59 -51 -66 -51 -7 0 -32
-13 -55 -28 -55 -37 -162 -88 -213 -101 -22 -6 -49 -20 -59 -31 -26 -28 -82
-45 -100 -30 -8 7 -15 20 -15 30 0 9 -9 25 -20 35 -27 25 -66 13 -86 -28 -31
-60 -96 -137 -116 -137 -11 0 -36 14 -55 30 -25 23 -40 29 -56 24 -23 -7 -72
-46 -95 -77 -25 -33 -94 -77 -121 -77 -14 0 -55 -9 -89 -20 -35 -11 -87 -20
-116 -20 -29 0 -74 -7 -100 -16 -29 -10 -62 -14 -84 -10 -20 3 -56 -1 -82 -9
-25 -8 -85 -21 -135 -29 -49 -8 -103 -18 -120 -20 -16 -3 -127 -15 -245 -26
-118 -12 -260 -25 -315 -30 -55 -6 -131 -10 -170 -9 -38 1 -82 -4 -97 -10 -31
-12 -253 -16 -280 -6 -9 4 -33 1 -53 -5 -50 -16 -212 -21 -259 -7 -21 6 -45
21 -53 34 -23 35 -67 30 -112 -10 l-37 -34 -195 3 c-305 5 -634 30 -674 51
-11 6 -61 11 -112 11 -97 0 -128 10 -138 43 -12 38 -78 45 -116 12 -23 -19
-77 -27 -119 -16 -26 7 -39 18 -52 45 -23 47 -49 55 -93 28 -40 -25 -72 -27
-175 -11 -41 6 -102 15 -135 20 -130 20 -248 43 -287 57 -22 8 -53 14 -69 14
-16 0 -39 10 -54 24 -23 21 -35 24 -103 24 -43 0 -97 7 -122 15 -25 9 -88 25
-140 37 -52 11 -126 30 -165 41 -38 11 -86 23 -105 26 -19 3 -89 21 -155 39
-65 19 -127 34 -136 34 -10 0 -39 10 -66 21 -26 12 -74 25 -106 29 -45 6 -66
15 -89 37 -27 26 -37 28 -131 34 -107 7 -181 23 -208 45 -9 8 -38 14 -66 14
-38 0 -60 7 -88 26 -21 14 -55 28 -74 30 -68 9 -229 63 -255 86 -6 4 -24 8
-41 8 -18 0 -53 11 -79 24 -25 13 -64 26 -85 30 -21 3 -58 15 -82 26 -24 11
-52 20 -63 20 -10 0 -50 16 -87 35 -38 19 -75 35 -82 35 -7 0 -35 11 -63 24
-27 13 -71 32 -97 41 -26 10 -50 22 -53 26 -5 9 -148 79 -162 79 -6 0 -33 15
-61 34 -28 19 -61 38 -74 41 -12 4 -33 14 -47 23 -14 9 -50 29 -80 45 -68 36
-90 55 -90 77 0 9 -9 25 -19 34 -15 14 -24 15 -40 7 -31 -17 -53 -12 -91 19
-19 17 -39 30 -45 30 -7 0 -22 11 -35 25 -13 14 -29 25 -35 25 -6 0 -21 14
-34 31 -12 17 -42 39 -65 48 -37 17 -83 56 -136 116 -37 43 -100 132 -100 143
0 16 -59 42 -96 42 -38 0 -144 -44 -144 -59 0 -6 -6 -11 -13 -11 -8 0 -24 -11
-37 -25 -13 -14 -53 -41 -89 -61 -36 -20 -79 -49 -96 -64 -53 -51 -102 -90
-113 -90 -10 0 -102 -64 -134 -94 -10 -9 -18 -28 -18 -43 0 -49 -56 -256 -83
-310 -15 -29 -27 -59 -27 -67 0 -7 -9 -33 -20 -57 -32 -71 -28 -207 8 -301 36
-92 102 -193 184 -283 44 -48 70 -86 81 -120 10 -27 26 -65 37 -83 23 -38 79
-75 100 -66 56 25 69 19 204 -90 23 -19 56 -41 74 -50 39 -20 117 -78 141
-105 9 -10 36 -26 60 -35 24 -9 73 -36 110 -60 36 -24 78 -49 92 -57 47 -25
104 -66 128 -93 17 -17 35 -26 56 -26 27 0 169 -67 208 -98 7 -5 32 -12 56
-15 26 -3 61 -18 86 -36 24 -17 49 -31 55 -31 6 0 38 -15 69 -34 32 -19 69
-37 82 -41 13 -4 54 -23 90 -41 37 -19 70 -34 74 -34 4 0 19 -8 33 -18 15 -10
49 -27 77 -37 27 -10 58 -27 69 -37 11 -10 36 -21 55 -24 20 -4 52 -18 71 -30
19 -13 40 -24 47 -24 39 0 100 -31 146 -72 42 -39 58 -48 89 -48 20 0 39 -3
42 -8 2 -4 1 -26 -4 -50 -5 -30 -3 -47 6 -59 7 -10 14 -44 14 -76 0 -50 4 -61
26 -82 48 -44 90 -26 82 35 -1 8 2 48 6 88 11 94 27 108 101 88 28 -7 64 -20
80 -28 17 -9 53 -19 80 -23 28 -4 55 -10 60 -15 6 -4 43 -20 83 -35 59 -22 78
-34 98 -65 14 -21 40 -45 57 -54 32 -16 32 -15 59 16 l28 32 47 -16 c114 -40
334 -87 453 -98 47 -5 86 -9 87 -9 1 -1 17 -15 34 -32 29 -28 35 -30 78 -24
93 13 173 6 361 -32 41 -8 125 -21 186 -28 78 -9 124 -20 155 -37 37 -19 64
-24 179 -30 74 -3 169 -13 210 -22 41 -9 111 -20 155 -26 69 -8 84 -13 106
-39 37 -40 63 -46 115 -26 30 11 60 15 92 11 137 -16 143 -18 159 -43 13 -20
145 -93 168 -93 4 0 28 18 52 41 37 34 50 40 73 35 16 -3 77 -8 135 -12 96 -6
109 -10 142 -36 43 -34 60 -35 108 -7 23 14 43 19 58 14 44 -13 185 -26 372
-33 l190 -7 40 -32 c33 -26 51 -32 108 -36 61 -4 71 -2 96 19 32 27 61 31 61
10 0 -22 40 -66 61 -66 11 0 37 18 59 40 l39 40 233 1 c128 0 247 2 263 4 17
1 93 8 170 14 77 6 161 16 187 22 33 8 52 7 67 0 32 -18 70 -13 106 14 27 22
49 27 133 34 55 5 108 13 118 18 11 5 55 17 99 27 44 10 125 31 180 48 66 21
125 32 176 34 69 2 81 6 140 43 35 22 105 54 154 71 50 17 104 38 122 46 17 8
33 14 36 14 3 0 57 24 119 54 62 29 156 72 208 96 52 23 118 53 146 66 28 13
58 24 67 24 8 0 39 16 68 35 30 19 57 35 62 35 5 0 23 11 40 24 18 13 85 51
149 85 65 34 140 75 168 91 28 17 54 30 57 30 4 0 14 6 22 14 9 8 57 35 106
61 50 26 104 58 122 71 17 13 36 24 41 24 6 0 33 16 62 35 29 19 55 35 59 35
3 0 30 18 60 40 29 22 59 40 65 40 7 0 26 12 42 26 16 14 51 37 78 52 66 36
76 43 117 75 20 15 39 27 43 27 5 0 28 14 53 30 24 17 47 30 52 30 4 0 30 16
57 35 27 19 52 35 56 35 26 0 441 308 451 334 4 9 13 16 20 16 8 0 28 12 44
28 17 15 45 39 64 54 19 15 72 59 119 97 47 39 98 81 114 93 16 13 46 39 66
58 21 19 62 55 90 80 84 73 180 166 180 176 0 5 22 33 48 61 26 29 61 69 77
90 17 20 39 46 51 57 11 12 33 38 49 59 27 36 28 40 15 75 -7 20 -28 57 -47
81 -18 24 -33 52 -33 61 0 10 -6 23 -14 29 -7 6 -37 48 -65 94 -29 45 -72 109
-97 142 -24 33 -50 74 -59 92 -8 17 -19 34 -23 37 -11 7 -102 140 -102 149 0
3 -14 21 -31 39 -27 29 -96 159 -113 211 -3 9 -19 20 -36 23 -25 6 -30 11 -30
37 0 46 -36 97 -69 97 -17 0 -38 11 -56 30 -37 38 -76 40 -100 4z m-305 -559
c0 -8 -12 -22 -27 -32 -23 -16 -58 -50 -126 -121 -12 -13 -23 -18 -25 -12 -6
16 25 58 48 65 11 3 20 10 20 15 0 11 89 100 100 100 6 0 10 -7 10 -15z m-223
-738 c-32 -59 -69 -81 -41 -24 9 17 21 38 26 44 16 21 29 4 15 -20z m513 24
c0 -5 -7 -11 -15 -15 -15 -5 -20 5 -8 17 9 10 23 9 23 -2z m-1659 -273 c-16
-18 -33 -29 -37 -25 -4 4 8 23 27 43 42 43 52 27 10 -18z m734 -98 c-10 -11
-20 -18 -23 -15 -3 3 3 14 13 25 10 11 20 18 23 15 3 -3 -3 -14 -13 -25z
m-10875 -274 c0 -16 -18 -31 -27 -22 -8 8 5 36 17 36 5 0 10 -6 10 -14z m3878
-43 c-2 -9 -8 -18 -15 -20 -7 -3 -9 3 -6 16 6 25 26 28 21 4z m-3698 -102 c0
-6 -4 -13 -10 -16 -5 -3 -10 1 -10 9 0 9 5 16 10 16 6 0 10 -4 10 -9z m11330
0 c0 -5 -7 -11 -15 -15 -15 -5 -20 5 -8 17 9 10 23 9 23 -2z m-3568 -124 c-12
-13 -22 -29 -22 -35 0 -7 -4 -12 -10 -12 -5 0 -10 5 -10 12 0 15 40 58 53 58
6 0 1 -10 -11 -23z m-572 -53 c0 -8 -5 -12 -10 -9 -6 4 -8 11 -5 16 9 14 15
11 15 -7z m3520 -249 c0 -2 -15 -12 -32 -21 l-33 -17 19 22 c17 19 46 29 46
16z m-6660 -30 c-7 -9 -15 -13 -17 -11 -7 7 7 26 19 26 6 0 6 -6 -2 -15z
m5935 5 c-3 -5 -11 -10 -16 -10 -6 0 -7 5 -4 10 3 6 11 10 16 10 6 0 7 -4 4
-10z m-8631 -266 c8 -22 -4 -40 -15 -23 -11 18 -11 39 0 39 5 0 12 -7 15 -16z
m8396 6 c0 -5 -5 -10 -11 -10 -5 0 -7 5 -4 10 3 6 8 10 11 10 2 0 4 -4 4 -10z
m-8064 -116 c-9 -34 -36 -31 -36 4 0 36 20 59 33 36 5 -8 6 -26 3 -40z m404
-219 c0 -8 -7 -15 -15 -15 -16 0 -20 12 -8 23 11 12 23 8 23 -8z m5337 -17
c-3 -8 -6 -5 -6 6 -1 11 2 17 5 13 3 -3 4 -12 1 -19z m-3396 -72 c-21 -20 -21
-20 -21 0 0 11 8 31 18 44 l17 25 3 -24 c2 -14 -5 -32 -17 -45z m4016 -68 c-3
-7 -5 -2 -5 12 0 14 2 19 5 13 2 -7 2 -19 0 -25z m-5261 -49 c8 -14 -11 -33
-25 -25 -11 7 -4 36 9 36 5 0 12 -5 16 -11z m5244 -26 c-1 -39 -35 -101 -43
-80 -7 19 21 107 34 107 5 0 9 -12 9 -27z m-5067 -22 c5 -22 0 -31 -19 -31
-14 0 -27 28 -18 41 9 16 31 10 37 -10z m795 -132 c-2 -6 -8 -10 -13 -10 -5 0
-11 4 -13 10 -2 6 4 11 13 11 9 0 15 -5 13 -11z m869 -125 c8 -22 -15 -43 -27
-24 -5 8 -10 21 -10 28 0 17 30 15 37 -4z m301 -66 c-3 -7 -11 -13 -18 -13 -7
0 -15 6 -17 13 -3 7 4 12 17 12 13 0 20 -5 18 -12z m190 -38 c-7 -11 -16 -16
-21 -11 -12 12 0 31 19 31 12 0 12 -3 2 -20z m2812 11 c0 -5 -9 -19 -20 -32
-19 -23 -19 -23 -20 -3 0 20 17 44 32 44 4 0 8 -4 8 -9z m-350 -65 c0 -3 -4
-8 -10 -11 -5 -3 -10 -1 -10 4 0 6 5 11 10 11 6 0 10 -2 10 -4z m-385 -57 c0
-8 -10 -15 -22 -17 -25 -4 -33 22 -10 31 18 8 32 2 32 -14z"/>
<path d="M21106 1053 c-9 -22 6 -35 35 -31 16 2 25 11 27 26 3 18 -1 22 -26
22 -19 0 -32 -6 -36 -17z"/>
<path d="M21544 286 c-11 -29 0 -51 26 -51 21 0 25 5 25 30 0 24 -5 31 -23 33
-13 2 -24 -3 -28 -12z"/>
<path d="M21672 214 c-33 -23 -25 -55 20 -79 35 -18 40 -19 65 -5 37 21 38 60
3 76 -48 22 -66 24 -88 8z"/>
</g>
</svg>
