<?xml version="1.0" standalone="no"?>
<!DOCTYPE svg PUBLIC "-//W3C//DTD SVG 20010904//EN"
 "http://www.w3.org/TR/2001/REC-SVG-20010904/DTD/svg10.dtd">
<svg version="1.0" xmlns="http://www.w3.org/2000/svg"
 width="2552.000000pt" height="3580.000000pt" viewBox="0 0 2552.000000 3580.000000"
 preserveAspectRatio="xMidYMid meet">
<metadata>
Created by potrace 1.16, written by Peter Selinger 2001-2019
</metadata>
<g transform="translate(36.000000,3544.000000) scale(0.100000,-0.100000)"
fill="#000000" stroke="none">
<path d="M845 35048 c4 -18 11 -37 16 -42 4 -5 6 -28 2 -51 -3 -26 -1 -45 6
-49 8 -5 11 19 11 83 0 85 -1 91 -21 91 -18 0 -20 -4 -14 -32z"/>
<path d="M656 35026 c-10 -16 -22 -23 -31 -20 -18 7 -18 5 -16 -204 1 -37 4
-51 12 -46 8 5 10 35 6 100 -5 75 -4 94 9 104 11 10 18 10 33 -4 27 -25 44 0
33 49 -9 47 -24 54 -46 21z"/>
<path d="M771 35027 c-8 -11 -6 -18 9 -32 13 -12 17 -22 11 -29 -14 -17 3 -39
25 -34 27 5 22 49 -9 82 -20 21 -26 24 -36 13z"/>
<path d="M23769 34980 c-6 -5 -9 -15 -6 -23 7 -17 -19 -57 -37 -57 -15 0 -40
-66 -30 -81 3 -6 6 -64 5 -128 -1 -142 16 -131 23 15 3 54 5 100 5 102 2 6 31
1 32 -5 6 -64 19 -64 19 0 0 46 4 58 22 71 12 9 30 16 39 16 22 0 33 -29 18
-46 -9 -11 -8 -18 2 -31 20 -23 24 -227 9 -391 -11 -118 -11 -136 3 -149 10
-10 22 -13 34 -9 17 7 17 8 -1 22 -11 7 -16 17 -12 21 4 5 85 8 179 8 137 0
171 3 175 14 4 11 -4 13 -35 8 -22 -4 -43 -3 -47 0 -4 4 -28 8 -54 9 -175 6
-163 4 -173 31 -6 16 -14 23 -24 19 -20 -7 -18 4 4 32 24 27 29 28 33 1 4 -29
38 -51 58 -38 13 8 12 11 -5 24 -11 8 -25 19 -31 24 -8 6 -10 40 -7 103 4 73
3 91 -7 81 -7 -6 -13 -37 -14 -69 0 -36 -6 -59 -13 -62 -8 -2 -13 6 -13 23 0
14 -5 35 -11 46 -8 16 -7 25 4 37 11 13 14 39 13 100 -2 84 8 127 20 85 13
-49 24 -19 24 66 0 86 -1 90 -27 111 -18 14 -36 20 -53 17 -14 -3 -44 -2 -67
2 -23 5 -47 5 -54 1z m158 -58 c15 -20 19 -32 12 -45 -6 -9 -7 -22 -4 -27 3
-5 1 -11 -4 -15 -6 -3 -18 7 -27 22 -24 38 -55 63 -80 63 -26 0 -36 10 -25 24
6 7 30 10 58 8 37 -3 53 -10 70 -30z"/>
<path d="M793 34884 c-3 -9 -1 -25 5 -35 7 -10 12 -28 12 -40 0 -18 2 -20 16
-9 23 20 9 100 -17 100 -5 0 -12 -7 -16 -16z"/>
<path d="M861 34826 c-8 -10 -9 -16 -1 -21 5 -3 10 -15 10 -26 0 -21 -29 -26
-47 -8 -6 6 -16 8 -22 5 -13 -9 -14 -65 -2 -85 12 -19 41 -6 41 19 0 11 4 20
9 20 11 0 19 -52 20 -125 1 -63 17 -80 57 -64 27 12 27 13 7 16 -38 7 -49 40
-52 163 -1 63 -3 116 -5 117 -2 2 -9 -3 -15 -11z"/>
<path d="M790 34648 c0 -10 5 -29 11 -40 8 -15 8 -22 0 -27 -7 -5 -11 -42 -10
-99 1 -72 4 -92 15 -92 8 0 14 9 14 20 0 13 9 22 27 26 48 12 55 28 21 49 -29
17 -30 20 -24 64 3 26 1 61 -5 78 -12 37 -49 52 -49 21z"/>
<path d="M614 34629 c5 -31 3 -37 -19 -49 -29 -16 -32 -28 -8 -45 15 -11 15
-18 5 -53 -12 -41 -8 -72 10 -72 6 0 7 11 4 24 -4 16 -1 28 7 33 8 4 18 28 23
53 6 26 15 44 22 43 7 -2 12 3 12 11 0 7 3 28 6 45 4 20 3 31 -5 31 -6 0 -11
-7 -11 -15 0 -22 -16 -18 -35 8 -17 22 -17 21 -11 -14z"/>
<path d="M23760 34573 c0 -10 5 -25 10 -33 7 -11 10 -7 10 18 0 17 -4 32 -10
32 -5 0 -10 -8 -10 -17z"/>
<path d="M76 34534 c-3 -9 -6 -26 -6 -39 0 -13 -14 -38 -31 -55 -28 -27 -31
-36 -26 -73 5 -38 27 -67 50 -67 5 0 6 10 2 23 -18 58 -18 77 2 77 10 0 23 -4
29 -10 11 -11 114 -1 114 11 0 5 -11 9 -24 9 -42 0 -55 11 -67 53 -9 36 -9 43
7 54 10 7 24 13 31 13 7 0 13 5 13 10 0 17 -87 12 -94 -6z"/>
<path d="M1380 34543 c23 -9 70 -43 70 -52 0 -4 -6 -16 -14 -26 -13 -18 -15
-18 -30 -2 -11 11 -33 17 -62 17 -25 0 -55 5 -66 11 -16 9 -23 8 -29 -2 -15
-24 -11 -26 50 -33 60 -7 88 -24 78 -50 -5 -11 -22 -14 -77 -11 -39 3 -74 7
-79 9 -4 3 -13 1 -21 -4 -13 -8 -12 -12 5 -24 11 -8 28 -13 38 -10 10 3 24 1
32 -6 8 -7 27 -9 48 -5 42 8 50 -2 50 -64 0 -25 4 -51 9 -58 16 -20 48 7 48
39 0 15 5 30 10 33 6 3 10 15 10 26 0 22 10 24 29 7 11 -11 12 0 7 62 -4 41
-9 92 -13 113 l-6 37 -51 -1 c-28 0 -44 -3 -36 -6z"/>
<path d="M660 34524 c0 -8 5 -12 10 -9 6 4 8 11 5 16 -9 14 -15 11 -15 -7z"/>
<path d="M23691 34484 c-7 -33 -12 -70 -11 -83 1 -52 -13 -54 -187 -36 -24 3
-43 1 -43 -4 0 -5 45 -12 100 -16 69 -4 105 -11 116 -22 14 -14 17 -13 40 7
13 13 24 34 24 48 0 15 7 26 20 29 15 4 20 14 22 39 0 19 1 39 2 44 1 6 -3 11
-9 13 -5 1 -11 -10 -13 -25 -4 -30 -30 -46 -38 -23 -4 8 -4 25 0 38 3 12 1 28
-3 36 -6 9 -13 -6 -20 -45z"/>
<path d="M931 34474 c13 -16 29 -19 29 -5 0 5 -9 11 -21 14 -16 4 -18 3 -8 -9z"/>
<path d="M23193 34443 c-7 -2 -13 -15 -13 -28 0 -17 -8 -26 -30 -34 -28 -9
-42 -31 -20 -31 15 0 12 -19 -4 -36 -35 -35 13 -108 74 -111 133 -7 212 -7
216 -1 3 5 -5 8 -18 9 -35 0 -138 9 -183 14 -50 7 -78 41 -50 61 14 11 22 10
40 -2 17 -11 60 -16 161 -19 170 -5 169 13 -2 22 -105 5 -121 8 -136 27 -26
31 -22 46 11 46 17 0 33 5 36 10 3 6 0 10 -8 10 -8 0 -20 6 -26 13 -8 11 -5
17 17 27 l27 13 -25 8 c-30 8 -50 9 -67 2z"/>
<path d="M242 34408 c7 -19 68 -31 96 -18 32 14 28 16 -41 24 -44 5 -58 3 -55
-6z"/>
<path d="M466 34401 c-4 -6 -4 -12 1 -12 4 -1 13 -2 18 -3 6 -1 34 -5 63 -10
57 -9 104 -43 117 -83 11 -37 25 -26 25 20 0 47 -13 67 -45 67 -12 0 -25 4
-30 9 -16 16 -141 25 -149 12z"/>
<path d="M863 34376 c6 -36 -14 -76 -38 -76 -27 0 -36 -66 -34 -253 2 -225
-10 -259 -72 -208 -18 14 -23 28 -21 57 2 49 -15 94 -33 88 -11 -5 -11 -13 1
-46 7 -22 11 -50 8 -62 -3 -12 -1 -34 5 -48 8 -22 19 -28 55 -33 35 -6 46 -12
46 -26 0 -25 -15 -32 -30 -14 -16 19 -36 19 -44 0 -8 -21 -39 -19 -59 3 -10
10 -18 34 -18 53 l-1 34 -11 -43 c-8 -36 -7 -45 8 -62 10 -11 26 -22 36 -25
27 -9 23 -32 -6 -39 -14 -4 -25 -14 -25 -22 0 -12 6 -15 23 -10 12 3 34 6 48
6 30 0 45 25 28 46 -6 8 -8 14 -3 14 5 0 18 -14 29 -30 11 -16 23 -30 26 -30
8 0 59 66 59 76 0 4 10 18 22 31 20 22 21 31 21 243 0 227 6 268 38 244 17
-11 317 -9 369 3 65 16 26 57 -42 45 -17 -3 -28 0 -28 7 0 6 -7 11 -15 11 -8
0 -15 5 -15 10 0 6 -9 10 -20 10 -13 0 -18 -5 -14 -15 5 -11 -1 -15 -19 -15
-13 0 -30 -6 -36 -14 -17 -20 -59 -26 -72 -10 -9 11 -8 14 2 15 8 0 3 4 -9 10
-27 10 -42 4 -42 -16 0 -19 -15 -26 -35 -19 -9 4 -14 13 -11 21 3 8 -1 24 -9
37 -14 21 -13 23 9 35 13 7 33 10 44 7 11 -4 23 -2 27 4 4 7 17 4 37 -7 23
-14 32 -15 35 -5 3 6 15 12 28 12 25 0 52 25 36 34 -11 7 -88 1 -114 -9 -9 -4
-23 -3 -30 2 -6 6 -41 11 -76 11 l-64 2 6 -34z m-1 -316 c4 -24 2 -27 -9 -19
-15 13 -18 49 -4 49 5 0 11 -13 13 -30z"/>
<path d="M24354 34388 c-3 -4 19 -8 50 -8 64 0 86 -7 86 -26 0 -15 2 -15 -90
-19 -59 -3 -117 -9 -130 -15 -3 -1 26 -8 65 -17 71 -15 85 -24 85 -56 0 -16
-8 -18 -62 -17 -82 2 -88 1 -88 -8 0 -15 82 -31 109 -20 33 12 46 -5 62 -80
10 -49 13 -54 24 -39 7 9 17 17 23 17 12 0 22 24 22 55 0 18 4 22 20 18 19 -5
20 0 20 71 0 44 -6 91 -14 111 -13 31 -19 35 -53 36 -21 1 -57 2 -81 3 -24 1
-45 -2 -48 -6z m153 -130 c-3 -8 -6 -5 -6 6 -1 11 2 17 5 13 3 -3 4 -12 1 -19z"/>
<path d="M23338 34373 c-46 -7 -32 -18 22 -18 28 0 50 3 50 6 0 8 -28 20 -38
18 -4 -1 -19 -4 -34 -6z"/>
<path d="M585 34290 c-3 -6 -17 -7 -31 -4 -14 4 -24 2 -24 -5 0 -6 7 -11 15
-11 27 0 65 -100 65 -171 0 -72 13 -104 30 -79 6 8 8 29 5 45 -3 17 -6 72 -6
122 0 81 -2 94 -19 103 -23 12 -27 13 -35 0z"/>
<path d="M23665 34281 c-3 -6 -17 -11 -31 -11 -42 0 -18 -17 31 -22 41 -5 85
-30 85 -48 0 -4 -55 -5 -122 -2 -87 3 -120 1 -113 -6 6 -6 42 -14 80 -18 79
-8 102 -19 84 -41 -9 -11 -7 -19 11 -38 25 -27 44 -24 35 5 -3 10 -1 21 5 25
5 3 10 15 10 26 0 11 7 19 16 19 12 0 14 -7 10 -27 -14 -70 -17 -124 -11 -153
12 -54 23 -15 25 89 1 53 3 112 3 131 2 32 0 35 -35 41 -21 3 -47 14 -57 23
-12 11 -21 14 -26 7z"/>
<path d="M23557 34273 c-12 -11 -8 -23 7 -23 7 0 19 7 26 15 10 12 9 15 -7 15
-11 0 -23 -3 -26 -7z"/>
<path d="M23954 34254 c8 -20 -19 -64 -39 -64 -33 0 -45 -53 -46 -212 -2 -178
-1 -206 3 -233 2 -13 -6 -24 -26 -33 -26 -13 -31 -13 -42 3 -7 9 -16 47 -19
83 -8 83 -14 104 -26 96 -5 -3 -7 -42 -5 -88 3 -61 10 -92 25 -117 26 -42 26
-49 3 -49 -31 0 -52 33 -54 83 -2 44 -3 45 -20 30 -19 -17 -17 -66 4 -106 6
-12 5 -23 -2 -33 -19 -22 -4 -64 23 -64 12 0 46 -3 74 -6 42 -5 54 -4 59 9 3
8 27 39 54 68 l48 53 1 200 c1 111 4 220 7 244 7 47 25 62 51 41 10 -9 38 -13
82 -11 36 1 103 -5 148 -14 84 -17 113 -15 113 10 0 30 -99 42 -100 12 0 -6
-5 -3 -11 7 -8 14 -18 17 -40 12 -15 -4 -34 -3 -41 2 -17 10 -17 10 -99 12
-52 1 -70 4 -67 14 3 6 21 13 41 15 71 6 37 33 -57 45 -42 6 -47 5 -42 -9z
m-29 -134 c-5 -8 -11 -8 -17 -2 -6 6 -7 16 -3 22 5 8 11 8 17 2 6 -6 7 -16 3
-22z m0 -50 c3 -5 1 -10 -4 -10 -6 0 -11 5 -11 10 0 6 2 10 4 10 3 0 8 -4 11
-10z m-87 -487 c5 -17 -26 -29 -40 -15 -6 6 -7 15 -3 22 9 14 37 9 43 -7z"/>
<path d="M230 34250 c0 -5 5 -10 10 -10 6 0 10 5 10 10 0 6 -4 10 -10 10 -5 0
-10 -4 -10 -10z"/>
<path d="M666 34233 c-9 -10 -7 -103 3 -103 13 0 21 26 21 65 0 33 -11 51 -24
38z"/>
<path d="M24115 34230 c-3 -5 3 -10 14 -10 12 0 21 5 21 10 0 6 -6 10 -14 10
-8 0 -18 -4 -21 -10z"/>
<path d="M24187 34234 c-11 -11 3 -24 24 -24 12 0 19 5 17 13 -5 14 -31 21
-41 11z"/>
<path d="M670 34071 c0 -5 -3 -16 -6 -25 -4 -10 -1 -16 7 -16 7 0 9 3 6 7 -4
3 -2 12 4 19 7 8 7 14 -1 19 -5 3 -10 2 -10 -4z"/>
<path d="M23694 34046 c-4 -9 -1 -29 6 -45 9 -22 9 -34 0 -50 -13 -25 -4 -64
13 -58 17 5 16 159 0 165 -7 2 -16 -4 -19 -12z"/>
<path d="M611 33894 c0 -11 3 -14 6 -6 3 7 2 16 -1 19 -3 4 -6 -2 -5 -13z"/>
<path d="M23015 32910 c-7 -12 2 -30 16 -30 12 0 12 27 0 35 -5 3 -12 1 -16
-5z"/>
<path d="M18308 26923 c7 -3 16 -2 19 1 4 3 -2 6 -13 5 -11 0 -14 -3 -6 -6z"/>
<path d="M10180 25609 c-25 -3 -89 -7 -143 -8 -53 -1 -109 -6 -123 -11 -14 -6
-46 -10 -71 -10 -37 0 -44 -3 -39 -16 4 -9 -2 -22 -15 -33 -19 -15 -20 -18 -5
-30 14 -11 16 -11 16 2 0 25 22 32 37 12 21 -29 17 -32 -42 -30 -30 1 -55 -1
-55 -4 0 -4 -30 -5 -67 -4 -41 1 -70 -2 -74 -9 -8 -13 -39 -4 -39 12 0 9 34
14 73 10 14 -1 16 4 11 24 -7 31 6 34 31 6 27 -30 70 -23 70 10 0 17 7 26 25
30 18 4 21 8 12 14 -16 10 -133 -3 -149 -16 -9 -7 -18 -7 -27 1 -11 10 -34 9
-103 -4 -48 -8 -164 -27 -258 -40 -93 -13 -184 -29 -201 -35 -16 -5 -50 -12
-75 -14 -24 -3 -72 -14 -107 -26 -34 -11 -66 -19 -71 -16 -4 3 -49 -4 -101
-14 -51 -11 -108 -20 -125 -20 -18 0 -49 -7 -69 -15 -20 -8 -62 -17 -93 -19
-32 -2 -81 -8 -110 -14 -29 -6 -92 -16 -140 -22 -48 -6 -101 -15 -118 -20 -41
-12 -184 -34 -215 -33 -14 1 -29 -2 -35 -7 -5 -4 -46 -10 -89 -14 -44 -4 -88
-12 -99 -18 -11 -5 -49 -11 -86 -13 -36 -1 -82 -6 -101 -9 -19 -4 -65 -12
-102 -17 -50 -8 -68 -15 -68 -26 0 -13 -3 -13 -16 -3 -12 11 -28 11 -77 2 -34
-6 -82 -14 -107 -17 -82 -11 -184 -26 -235 -35 -27 -5 -95 -17 -150 -25 -55
-9 -104 -20 -110 -24 -5 -5 -30 -9 -55 -9 -25 -1 -65 -8 -89 -17 -24 -8 -54
-15 -67 -15 -26 0 -74 -20 -74 -31 0 -4 -21 -9 -47 -12 -84 -9 -145 -24 -283
-70 -74 -25 -153 -48 -175 -52 -38 -6 -75 -20 -137 -52 -14 -7 -34 -13 -43
-13 -10 0 -45 -13 -79 -29 -33 -16 -72 -32 -86 -34 -109 -22 -245 -99 -372
-211 -30 -26 -32 -62 -7 -97 l22 -31 -26 -54 c-15 -30 -27 -65 -27 -79 0 -34
-20 -74 -41 -80 -16 -5 -173 -157 -209 -201 -8 -11 -37 -45 -64 -77 -27 -32
-67 -84 -90 -117 -23 -33 -65 -93 -93 -135 -29 -42 -53 -78 -53 -81 0 -3 -11
-20 -24 -37 -46 -62 -176 -333 -176 -367 0 -9 -11 -40 -25 -68 -14 -29 -25
-55 -25 -59 0 -4 -9 -30 -19 -58 -31 -82 -72 -251 -91 -375 -6 -41 -15 -97
-20 -125 -15 -83 -38 -265 -46 -360 -4 -49 -9 -121 -12 -160 -14 -182 7 -801
39 -1130 6 -60 12 -135 14 -165 11 -190 38 -460 50 -490 7 -20 16 -58 19 -85
4 -28 11 -66 16 -85 5 -19 23 -107 41 -195 17 -88 34 -167 37 -175 3 -8 6 -19
6 -25 1 -5 14 -50 30 -100 15 -49 32 -103 37 -119 5 -16 9 -38 9 -50 0 -12 7
-34 15 -50 8 -15 15 -33 15 -39 0 -6 20 -56 44 -111 24 -56 50 -119 56 -141 7
-22 30 -76 51 -120 22 -43 39 -82 39 -87 0 -4 14 -27 31 -53 17 -25 43 -69 58
-98 24 -46 48 -88 115 -200 10 -18 30 -52 44 -77 32 -57 144 -219 196 -286 23
-28 68 -89 101 -135 56 -77 326 -361 649 -684 413 -411 665 -603 1131 -862
245 -135 282 -154 435 -215 120 -47 174 -70 195 -81 27 -14 341 -116 390 -127
67 -14 167 -40 230 -60 52 -16 155 -38 330 -70 28 -5 88 -14 133 -20 46 -6 94
-15 106 -20 12 -4 67 -13 122 -19 118 -14 135 -16 329 -41 83 -11 179 -20 215
-20 36 0 94 -5 130 -10 48 -7 698 -26 765 -22 6 0 53 3 105 6 52 3 167 8 255
11 88 4 189 11 225 16 36 5 108 13 160 19 52 5 118 14 145 19 28 6 106 18 175
27 69 9 166 25 215 36 50 11 117 25 150 32 81 18 377 105 390 116 5 4 37 16
70 25 33 10 65 21 70 24 6 4 29 13 53 20 24 7 86 32 139 57 52 24 102 44 109
44 8 0 14 7 14 15 0 9 9 15 21 15 12 0 38 9 58 19 20 11 81 42 136 69 55 27
134 69 175 93 41 24 91 53 110 63 30 17 88 54 270 176 21 14 53 36 72 50 20
14 64 45 99 70 35 24 97 71 137 105 41 33 98 78 127 100 29 22 78 63 110 90
75 66 164 142 218 185 24 19 53 47 63 62 11 16 24 28 29 28 12 0 349 341 480
484 125 137 357 425 502 621 55 75 223 331 223 340 0 3 15 29 33 58 33 53 117
219 117 234 0 4 9 19 20 33 11 14 20 32 20 40 0 8 23 60 50 115 27 55 50 111
50 124 0 14 7 32 16 42 9 10 18 37 21 61 3 24 9 48 13 53 13 18 32 79 40 125
5 25 17 82 29 128 27 106 27 120 -1 125 -21 3 -20 5 9 16 30 12 50 47 44 79
-1 7 5 32 13 55 15 38 24 88 56 277 6 36 16 88 22 115 6 28 13 86 15 130 3 44
9 85 15 92 5 7 7 25 3 42 -3 17 -2 32 4 36 6 3 11 20 11 38 0 17 7 80 16 140
12 81 13 111 4 122 -8 10 -8 15 0 20 8 5 10 92 6 303 -3 164 -7 313 -9 332 -9
69 -20 206 -18 235 1 17 -1 50 -5 74 -5 42 -7 43 -35 37 -36 -7 -37 2 -4 29
l25 20 -14 90 c-33 197 -91 464 -110 500 -9 17 -16 43 -16 58 0 16 -7 30 -15
33 -9 4 -13 13 -10 24 3 9 -4 29 -17 45 -13 16 -25 51 -29 82 -4 30 -14 62
-22 71 -8 10 -18 32 -22 51 -4 20 -14 35 -25 38 -13 3 -19 19 -24 53 -4 27
-11 52 -16 55 -6 3 -10 17 -10 31 0 17 -8 28 -26 36 -17 8 -24 18 -21 30 6 20
-33 97 -58 118 -8 7 -15 18 -15 26 0 13 -25 75 -41 104 -5 8 -23 40 -40 70
-16 30 -41 73 -54 95 -13 22 -31 55 -39 73 -8 17 -19 32 -23 32 -5 0 -14 12
-21 28 -6 15 -32 54 -57 87 -25 33 -55 75 -66 93 -15 22 -29 32 -46 32 -20 0
-24 4 -20 20 3 10 -1 27 -9 37 -12 15 -15 16 -23 3 -6 -8 -13 -11 -18 -7 -4 5
-1 12 6 16 9 6 10 14 3 27 -9 17 -148 154 -156 154 -2 0 -6 -9 -9 -20 -3 -14
-14 -20 -32 -20 l-26 0 32 29 31 29 -48 46 c-26 25 -54 46 -61 46 -7 0 -13 4
-13 8 0 5 -17 21 -37 35 -27 20 -39 23 -45 14 -5 -8 -8 -4 -8 10 0 14 -14 33
-37 50 -21 15 -40 30 -43 34 -3 3 -32 23 -65 44 -33 21 -85 55 -115 75 -47 31
-96 59 -227 128 -13 7 -33 17 -45 24 -64 34 -194 97 -200 98 -4 0 -40 15 -80
34 -40 18 -89 37 -108 41 -19 4 -41 12 -48 18 -16 13 -106 51 -187 78 -93 32
-168 62 -190 76 -11 7 -29 13 -40 13 -12 0 -25 4 -31 9 -5 6 -34 17 -64 26
-30 8 -109 33 -175 54 -151 50 -217 69 -314 91 -42 10 -103 28 -136 40 -35 13
-91 24 -134 26 -41 2 -77 7 -80 12 -3 5 -33 15 -66 21 -33 7 -80 16 -105 21
-25 6 -90 17 -145 26 -55 9 -125 20 -155 25 -30 5 -80 8 -110 7 -30 -1 -64 3
-75 9 -25 14 -163 36 -176 28 -5 -4 -36 1 -69 9 -33 9 -106 18 -163 22 -56 3
-118 7 -137 10 -19 2 -71 7 -115 10 -44 3 -109 8 -145 11 -98 8 -639 10 -690
2z m750 -38 c0 -5 9 -13 20 -16 11 -3 20 -13 20 -22 0 -11 -5 -13 -17 -8 -10
5 -33 10 -50 13 -26 3 -33 1 -33 -13 0 -16 -2 -16 -62 2 -44 13 -132 9 -145
-7 -10 -13 -14 -13 -29 2 -17 16 -17 18 2 23 10 4 27 11 38 17 13 7 26 6 43
-3 19 -10 28 -10 43 -1 13 7 21 8 25 2 4 -6 12 -10 18 -8 7 1 22 -1 34 -6 16
-5 28 -1 42 13 22 22 51 28 51 12z m-980 -20 c0 -11 2 -26 5 -34 5 -10 -4 -14
-32 -15 -34 0 -36 1 -16 10 17 8 21 17 17 34 -5 18 -2 24 10 24 9 0 16 -8 16
-19z m604 8 c19 -19 -32 -30 -145 -32 -115 -2 -124 -1 -127 17 -4 18 1 19 59
14 35 -3 78 -2 94 1 38 8 111 8 119 0z m-422 -22 c37 -3 56 -12 46 -23 -10
-10 -138 -12 -144 -2 -3 5 -3 16 0 25 5 11 14 13 34 8 15 -3 44 -7 64 -8z
m126 -8 c3 -19 -54 -44 -63 -28 -4 5 -1 9 4 9 6 0 11 9 11 21 0 15 5 20 22 17
13 -2 24 -10 26 -19z m852 -5 c0 -8 -7 -14 -15 -14 -15 0 -21 21 -9 33 10 9
24 -2 24 -19z m-75 6 c3 -5 -1 -10 -9 -10 -9 0 -16 5 -16 10 0 6 4 10 9 10 6
0 13 -4 16 -10z m293 -22 c2 -16 -1 -28 -7 -28 -6 0 -11 4 -11 9 0 14 -81 10
-87 -5 -8 -22 -26 -16 -20 7 5 18 2 20 -20 14 -18 -4 -24 -2 -21 7 3 7 20 13
41 13 19 0 38 2 40 5 3 3 23 5 44 5 34 0 38 -3 41 -27z m72 -2 c0 -21 -28 -39
-47 -31 -16 6 -16 8 6 26 27 22 41 24 41 5z m-2040 -5 c0 -10 -24 -21 -43 -21
-7 0 -3 7 7 15 22 17 36 19 36 6z m-103 -17 c-3 -3 -12 -4 -19 -1 -8 3 -5 6 6
6 11 1 17 -2 13 -5z m252 -10 c13 -12 -24 -28 -57 -26 -21 2 -50 -1 -65 -7
-22 -9 -27 -8 -27 4 0 17 46 39 65 31 7 -2 18 0 26 5 12 8 46 3 58 -7z m1966
6 c-3 -5 -10 -10 -16 -10 -5 0 -9 5 -9 10 0 6 7 10 16 10 8 0 12 -4 9 -10z
m54 -20 c-22 -14 -34 2 -13 17 13 10 20 10 23 2 2 -6 -3 -15 -10 -19z m139 18
c21 -21 14 -48 -12 -48 -17 0 -25 7 -28 25 -7 36 15 48 40 23z m-773 -16 c28
-5 63 -5 78 -1 16 4 46 1 74 -7 28 -9 92 -15 153 -15 58 0 110 -4 115 -9 14
-11 165 -19 171 -9 9 15 33 10 62 -10 19 -14 51 -21 112 -26 47 -3 126 -12
175 -20 50 -9 108 -18 130 -20 38 -5 84 -12 223 -35 35 -5 69 -13 74 -17 6 -3
21 -7 32 -9 12 -1 67 -14 123 -28 56 -14 113 -26 127 -26 14 0 27 -4 30 -9 4
-5 39 -15 78 -21 40 -7 79 -16 88 -21 8 -4 56 -20 105 -34 50 -14 102 -30 117
-35 15 -5 35 -6 46 -3 13 3 21 -1 24 -15 4 -15 20 -23 64 -31 98 -19 102 -21
117 -36 8 -7 28 -17 43 -21 16 -4 42 -13 57 -21 22 -11 32 -12 43 -2 12 9 13
9 9 -3 -5 -11 10 -20 58 -36 35 -12 69 -22 76 -22 7 0 38 -12 69 -26 31 -14
72 -32 90 -40 72 -31 101 -44 182 -81 47 -22 107 -46 134 -54 27 -8 51 -19 53
-26 3 -7 21 -17 41 -24 21 -6 56 -25 80 -40 23 -16 54 -32 68 -35 14 -4 32
-17 40 -29 8 -13 45 -38 81 -56 36 -18 80 -46 97 -61 17 -16 41 -31 54 -34 12
-4 22 -10 22 -14 0 -4 45 -45 99 -91 55 -46 100 -87 100 -90 2 -13 157 -169
169 -169 6 0 12 -5 12 -10 0 -6 55 -83 123 -173 67 -89 149 -212 182 -272 34
-61 68 -123 78 -140 67 -122 214 -433 259 -550 32 -81 44 -99 63 -87 5 3 4 -2
-3 -11 -17 -20 -9 -54 37 -149 13 -26 20 -51 17 -57 -4 -6 0 -34 9 -63 8 -28
15 -63 15 -77 0 -14 7 -39 15 -55 8 -15 15 -37 15 -47 0 -10 5 -21 11 -25 6
-3 9 -19 6 -34 -3 -15 -1 -32 5 -38 6 -6 13 -35 14 -64 2 -29 6 -66 9 -83 9
-54 26 -199 30 -265 2 -36 6 -90 9 -120 7 -80 16 -257 17 -317 1 -47 3 -52 28
-59 l26 -7 -25 -6 c-24 -7 -25 -9 -26 -102 -2 -197 -29 -499 -55 -619 -5 -25
-9 -59 -9 -75 1 -17 -4 -48 -10 -70 -17 -58 -41 -203 -43 -255 -1 -25 -5 -47
-9 -50 -4 -3 -10 -21 -13 -40 -14 -90 -65 -313 -73 -323 -5 -7 -14 -39 -21
-72 -7 -33 -19 -76 -26 -95 -8 -19 -19 -60 -26 -90 -6 -30 -18 -69 -25 -87 -8
-17 -14 -36 -14 -41 0 -6 -15 -44 -34 -84 -19 -40 -57 -124 -86 -186 -28 -62
-89 -178 -136 -257 -46 -79 -84 -150 -84 -158 0 -7 5 -18 12 -25 17 -17 2 -27
-17 -12 -19 16 -25 11 -61 -59 -15 -29 -37 -63 -48 -76 -12 -12 -57 -72 -101
-134 -44 -62 -112 -149 -150 -194 -39 -45 -78 -93 -87 -107 -9 -14 -62 -76
-117 -139 -56 -63 -101 -118 -101 -123 0 -5 12 -14 28 -20 21 -8 23 -12 10
-15 -9 -2 -27 1 -39 7 -19 11 -27 6 -83 -56 -33 -38 -121 -127 -193 -199 -73
-71 -133 -136 -133 -143 0 -6 -6 -12 -14 -12 -7 0 -62 -46 -123 -102 -133
-125 -191 -176 -308 -267 -49 -39 -106 -84 -125 -100 -61 -51 -277 -209 -317
-231 -21 -11 -65 -40 -98 -63 -64 -45 -204 -131 -295 -180 -30 -16 -60 -34
-67 -39 -20 -16 -314 -164 -373 -188 -30 -13 -78 -33 -107 -46 -28 -13 -88
-36 -132 -50 -44 -14 -85 -32 -92 -40 -6 -8 -21 -14 -32 -14 -25 0 -99 -21
-112 -32 -5 -4 -20 -8 -33 -8 -13 0 -36 -6 -50 -14 -28 -14 -114 -36 -242 -62
-41 -8 -86 -19 -100 -24 -27 -10 -144 -29 -380 -61 -80 -11 -154 -21 -165 -23
-11 -2 -26 -4 -33 -5 -8 -1 -10 -9 -6 -26 8 -33 -4 -32 -16 1 -8 21 -15 25
-38 20 -15 -4 -76 -9 -137 -12 -60 -3 -180 -8 -265 -13 -245 -12 -738 -4 -970
16 -47 4 -94 7 -105 6 -11 -1 -72 5 -135 12 -63 8 -144 17 -180 20 -63 5 -98
10 -350 54 -63 11 -160 25 -215 32 -55 6 -109 15 -120 19 -32 14 -86 28 -150
40 -100 19 -229 51 -248 61 -10 6 -42 13 -70 16 -29 3 -59 12 -68 20 -9 7 -20
13 -25 11 -11 -2 -116 28 -159 47 -91 38 -162 65 -173 65 -17 0 -118 46 -321
147 -239 119 -672 379 -741 446 -14 13 -53 45 -87 72 -35 26 -63 51 -63 55 0
4 -21 22 -47 40 -49 34 -137 114 -205 184 -25 26 -43 36 -54 32 -11 -4 -15 -2
-11 8 3 8 -105 125 -290 312 -261 264 -356 367 -428 462 -11 15 -39 51 -62 82
-67 86 -71 92 -111 150 -40 58 -42 63 -145 235 -36 61 -77 128 -90 150 -25 40
-159 304 -183 360 -7 17 -27 66 -44 110 -18 44 -40 101 -51 127 -10 26 -19 56
-19 67 0 11 -4 22 -9 25 -4 3 -14 27 -20 53 -19 74 -33 124 -47 170 -8 24 -18
66 -23 95 -5 29 -21 100 -36 158 -15 58 -31 130 -36 160 -4 30 -13 80 -19 110
-21 103 -30 165 -36 245 -4 44 -10 85 -15 91 -5 6 -8 28 -7 50 1 21 -2 75 -6
119 -16 171 -22 237 -30 385 -3 41 -9 147 -15 235 -8 130 -24 471 -24 535 0
86 17 354 28 425 7 50 16 119 20 155 6 68 19 143 37 220 6 25 12 59 14 75 1
17 8 50 14 75 6 25 15 63 19 85 9 41 19 72 53 161 10 28 22 69 25 90 3 22 16
57 28 79 12 22 33 69 45 105 13 36 29 72 36 80 8 9 26 38 40 65 106 196 230
383 311 472 21 22 63 69 93 104 67 76 116 124 165 164 20 17 47 40 59 53 69
75 109 111 126 117 25 8 25 27 0 50 -23 20 -27 79 -7 92 18 12 39 52 32 63
-10 16 5 50 22 50 8 0 27 7 41 15 44 24 120 55 134 55 8 0 22 6 33 14 11 7 50
23 87 34 38 12 96 32 130 45 35 14 84 30 111 37 26 7 50 16 52 21 3 4 31 13
63 19 31 7 62 16 67 21 6 4 20 8 30 7 11 0 43 7 70 15 200 60 412 110 510 122
33 4 78 14 100 22 22 8 76 16 120 19 44 3 93 9 109 15 16 5 47 9 68 9 22 0 49
5 61 12 21 11 142 30 305 48 45 5 86 11 90 14 5 3 44 10 88 15 43 6 151 22
239 36 88 14 207 32 265 40 58 7 121 18 141 24 20 6 81 18 135 27 55 8 126 19
159 25 33 6 71 10 85 9 14 0 36 4 50 10 25 10 165 37 230 45 52 6 181 34 194
42 12 8 85 20 156 27 25 2 83 11 130 20 87 16 206 30 385 46 238 22 339 29
505 36 80 4 146 8 148 9 7 6 441 -5 487 -13z m703 -1 c-12 -20 -33 -18 -42 5
-4 10 3 14 24 14 27 0 29 -2 18 -19z m292 -8 c8 -4 23 -5 33 -4 10 1 33 -6 50
-17 24 -13 37 -16 48 -9 18 11 49 3 49 -13 0 -20 -133 -16 -166 5 -14 9 -40
12 -77 9 -42 -3 -56 -1 -61 11 -4 10 -14 13 -36 9 -27 -6 -39 3 -24 19 7 7
161 -2 184 -10z m-2908 -25 c-7 -7 -12 -8 -12 -2 0 14 12 26 19 19 2 -3 -1
-11 -7 -17z m356 3 c-2 -9 -12 -15 -23 -14 -11 1 -24 -5 -28 -13 -7 -13 -12
-13 -35 0 -15 8 -35 17 -44 20 -39 12 -14 21 57 22 64 1 75 -2 73 -15z m-158
-15 c0 -8 -7 -17 -16 -20 -21 -8 -26 -3 -18 18 8 20 34 21 34 2z m-285 -6 c-3
-5 -10 -10 -16 -10 -5 0 -9 5 -9 10 0 6 7 10 16 10 8 0 12 -4 9 -10z m205 1
c0 -12 -20 -25 -27 -18 -7 7 6 27 18 27 5 0 9 -4 9 -9z m3054 -11 c20 0 20 0
1 -14 -11 -8 -23 -12 -27 -10 -4 3 -17 0 -28 -6 -25 -13 -25 -6 -2 25 10 14
21 20 27 14 5 -5 18 -9 29 -9z m-3126 -22 c-9 -14 -25 -21 -46 -22 -41 -1 -41
11 1 29 49 22 63 20 45 -7z m3212 7 c18 -10 29 -10 38 -3 9 8 16 8 25 -1 17
-17 -8 -31 -53 -31 -37 0 -60 14 -60 37 0 17 18 16 50 -2z m-3339 -15 c37 0
38 -17 2 -31 -16 -6 -36 -15 -45 -20 -24 -12 -26 -12 -39 13 -10 18 -8 24 7
35 10 7 25 11 32 8 8 -3 27 -5 43 -5z m3493 -11 c16 -15 -3 -23 -31 -13 -38
13 -43 37 -6 28 15 -4 32 -10 37 -15z m-3609 -19 c4 -6 4 -18 1 -27 -6 -14 -9
-14 -26 2 -11 10 -20 22 -20 27 0 12 38 10 45 -2z m-215 -21 c0 -24 -23 -21
-28 4 -2 10 3 17 12 17 10 0 16 -9 16 -21z m3890 11 c0 -5 -4 -10 -10 -10 -5
0 -10 5 -10 10 0 6 5 10 10 10 6 0 10 -4 10 -10z m-4095 -10 c3 -5 -3 -10 -15
-10 -12 0 -18 5 -15 10 3 6 10 10 15 10 5 0 12 -4 15 -10z m302 -21 c-14 -23
-43 -25 -51 -3 -9 24 0 31 33 26 26 -4 29 -6 18 -23z m3893 11 c0 -10 -41 -30
-61 -30 -19 0 -8 29 14 33 40 8 47 7 47 -3z m50 0 c0 -6 11 -15 25 -20 26 -10
35 -40 12 -40 -17 0 -69 54 -60 63 10 10 23 8 23 -3z m-4180 -26 c0 -8 -6 -14
-12 -14 -7 0 -24 -3 -38 -6 -24 -6 -24 -5 5 19 31 26 45 26 45 1z m70 -25 c0
-11 -11 -11 -29 0 -7 5 -10 14 -6 20 5 9 10 9 21 0 8 -6 14 -15 14 -20z m4221
20 c25 -13 14 -32 -14 -23 -28 8 -30 11 -22 23 8 14 11 14 36 0z m-4821 -34
c0 -8 -4 -15 -10 -15 -5 0 -10 7 -10 15 0 8 5 15 10 15 6 0 10 -7 10 -15z
m425 5 c3 -6 -4 -10 -17 -10 -13 0 -29 -5 -36 -12 -14 -14 -38 4 -28 21 9 14
73 14 81 1z m4547 -3 c51 -18 55 -24 24 -39 -22 -9 -29 -9 -35 1 -5 8 -18 10
-36 5 -24 -6 -27 -4 -22 10 5 11 1 16 -13 16 -11 0 -20 5 -20 10 0 14 58 12
102 -3z m-4664 -11 c24 -15 1 -24 -51 -21 -69 4 -67 3 -67 19 0 10 14 13 53
11 29 -1 59 -5 65 -9z m-188 -34 c0 -24 -8 -32 -26 -25 -22 8 -17 43 6 43 13
0 20 -7 20 -18z m4983 0 c21 -23 13 -32 -25 -32 -20 0 -28 5 -28 18 0 36 27
43 53 14z m-5063 -5 c0 -20 -40 -41 -54 -27 -8 8 -5 12 12 16 12 4 22 10 22
15 0 5 5 9 10 9 6 0 10 -6 10 -13z m-150 -32 c0 -8 -4 -15 -10 -15 -5 0 -10 7
-10 15 0 8 5 15 10 15 6 0 10 -7 10 -15z m-296 -17 c9 -36 7 -40 -16 -32 -31
9 -31 9 -16 33 16 27 24 27 32 -1z m5603 -10 c-3 -8 -6 -5 -6 6 -1 11 2 17 5
13 3 -3 4 -12 1 -19z m-5529 -5 c-4 -22 -22 -20 -26 1 -2 10 3 16 13 16 10 0
15 -7 13 -17z m5620 -8 c15 -32 15 -57 1 -32 -5 9 -19 17 -29 17 -23 0 -26 10
-8 28 17 17 23 15 36 -13z m107 -21 c28 -18 35 -50 9 -40 -9 3 -27 6 -40 6
-26 0 -32 18 -12 38 15 15 14 15 43 -4z m-5965 -9 c-12 -15 -30 -12 -30 6 0 5
10 9 21 9 18 0 19 -2 9 -15z m-136 -40 c-8 -19 -38 -19 -53 -1 -10 11 -8 16 6
24 23 13 54 -3 47 -23z m-203 -6 c7 -15 8 -24 0 -32 -7 -7 -13 -2 -21 17 -12
34 -12 36 0 36 5 0 14 -9 21 -21z m6369 11 c0 -5 -7 -10 -15 -10 -8 0 -15 5
-15 10 0 6 7 10 15 10 8 0 15 -4 15 -10z m-6540 -10 c0 -5 -7 -10 -16 -10 -8
0 -12 5 -9 10 3 6 10 10 16 10 5 0 9 -4 9 -10z m110 0 c0 -5 -4 -10 -10 -10
-5 0 -10 5 -10 10 0 6 5 10 10 10 6 0 10 -4 10 -10z m6523 -15 c20 -14 37 -29
37 -34 0 -17 -14 -20 -34 -6 -11 8 -30 15 -42 15 -20 0 -34 17 -34 41 0 17 35
9 73 -16z m-6683 5 c0 -10 -41 -31 -48 -25 -1 1 0 10 4 19 7 17 44 23 44 6z
m-245 -21 c10 -14 1 -21 -19 -13 -9 3 -13 10 -10 15 7 12 21 11 29 -2z m175
-29 c0 -5 -9 -10 -21 -10 -11 0 -17 5 -14 10 3 6 13 10 21 10 8 0 14 -4 14
-10z m6913 -24 c36 -16 48 -38 26 -52 -6 -3 -23 5 -37 18 -15 14 -38 33 -52
42 l-25 17 25 -5 c14 -2 42 -12 63 -20z m-7123 -26 c0 -5 -4 -10 -9 -10 -6 0
-13 5 -16 10 -3 6 1 10 9 10 9 0 16 -4 16 -10z m7225 1 c7 -12 -12 -24 -25
-16 -11 7 -4 25 10 25 5 0 11 -4 15 -9z m-7390 -11 c3 -5 -1 -10 -9 -10 -8 0
-18 5 -21 10 -3 6 1 10 9 10 8 0 18 -4 21 -10z m-71 -16 c31 -12 18 -34 -21
-34 -35 0 -36 0 -18 20 21 23 18 22 39 14z m7592 -33 c5 -5 20 -11 33 -13 32
-4 38 -24 9 -32 -15 -3 -27 0 -34 9 -7 9 -19 13 -28 9 -10 -4 -16 -1 -16 8 0
26 18 35 36 19z m158 -65 c27 -23 29 -46 2 -46 -17 0 -68 55 -59 63 11 12 27
7 57 -17z m-8130 -36 c-15 -14 -84 -24 -84 -11 0 6 8 11 18 11 9 1 28 7 42 15
25 13 42 3 24 -15z m8280 -45 c3 -8 16 -15 30 -15 14 0 28 -5 32 -12 5 -8 -2
-9 -25 -5 -18 4 -41 3 -51 -3 -22 -12 -28 -6 -22 25 5 28 27 33 36 10z m-8544
-47 c0 -6 -11 -7 -24 -4 -15 4 -28 0 -36 -9 -7 -8 -19 -15 -28 -15 -12 0 -12
4 4 21 34 38 84 42 84 7z m50 22 c0 -5 -2 -10 -4 -10 -3 0 -8 5 -11 10 -3 6
-1 10 4 10 6 0 11 -4 11 -10z m-240 -20 c0 -5 -4 -10 -10 -10 -5 0 -10 5 -10
10 0 6 5 10 10 10 6 0 10 -4 10 -10z m8884 -81 c-8 -13 -24 -1 -24 18 0 13 3
13 15 3 8 -7 12 -16 9 -21z m101 -20 l20 -22 -30 7 c-32 7 -58 33 -49 48 7 11
34 -4 59 -33z m-9144 -32 c-8 -8 -11 -7 -11 4 0 20 13 34 18 19 3 -7 -1 -17
-7 -23z m9239 -26 c0 -6 -4 -13 -10 -16 -5 -3 -10 1 -10 9 0 9 5 16 10 16 6 0
10 -4 10 -9z m86 -98 c-10 -10 -19 5 -10 18 6 11 8 11 12 0 2 -7 1 -15 -2 -18z
m154 -88 c0 -26 -14 -33 -25 -15 -9 14 1 40 15 40 5 0 10 -11 10 -25z m80 -65
c0 -5 -4 -10 -10 -10 -5 0 -10 5 -10 10 0 6 5 10 10 10 6 0 10 -4 10 -10z
m125 -120 c3 -5 -1 -10 -9 -10 -9 0 -16 5 -16 10 0 6 4 10 9 10 6 0 13 -4 16
-10z m-46 -26 c24 -30 27 -44 9 -44 -19 0 -48 31 -48 52 0 26 15 22 39 -8z
m81 -16 c0 -17 -18 -44 -24 -37 -8 7 5 49 15 49 5 0 9 -6 9 -12z m-10080 -48
c0 -5 -2 -10 -4 -10 -3 0 -8 5 -11 10 -3 6 -1 10 4 10 6 0 11 -4 11 -10z
m10160 -104 c0 -8 -4 -18 -10 -21 -5 -3 -10 3 -10 14 0 12 5 21 10 21 6 0 10
-6 10 -14z m50 -85 c0 -13 -29 -35 -37 -28 -7 8 15 37 28 37 5 0 9 -4 9 -9z
m85 -80 c3 -5 1 -12 -4 -15 -5 -3 -11 1 -15 9 -6 16 9 21 19 6z m95 -142 c0
-5 -9 -9 -20 -9 -11 0 -20 6 -20 14 0 9 7 12 20 9 11 -3 20 -9 20 -14z m5 -49
c-3 -5 -10 -10 -16 -10 -5 0 -9 5 -9 10 0 6 7 10 16 10 8 0 12 -4 9 -10z m120
-226 c18 -7 47 -58 38 -68 -12 -11 -23 -6 -23 11 0 9 -10 27 -22 40 -22 24
-21 27 7 17z m73 -140 c-25 -25 -42 -14 -22 14 12 17 19 21 27 13 8 -8 7 -16
-5 -27z m82 -143 c0 -6 -4 -13 -10 -16 -5 -3 -10 1 -10 9 0 9 5 16 10 16 6 0
10 -4 10 -9z m58 -129 c2 -14 -2 -22 -12 -22 -19 0 -29 17 -22 36 8 22 30 12
34 -14z m-18 -77 c-7 -8 -16 -15 -21 -15 -5 0 -6 7 -3 15 4 8 13 15 21 15 13
0 13 -3 3 -15z m-11385 -15 c3 -6 -1 -7 -9 -4 -18 7 -21 14 -7 14 6 0 13 -4
16 -10z m11430 -120 c3 -5 1 -10 -4 -10 -6 0 -11 5 -11 10 0 6 2 10 4 10 3 0
8 -4 11 -10z m85 -44 c0 -8 -7 -16 -15 -20 -10 -4 -15 1 -15 14 0 11 7 20 15
20 8 0 15 -6 15 -14z m-45 -46 c0 -22 -29 -18 -33 3 -3 14 1 18 15 15 10 -2
18 -10 18 -18z m72 -60 c3 -11 9 -20 14 -20 5 0 9 -7 9 -15 0 -25 -24 -17 -37
12 -16 33 -16 43 -2 43 6 0 13 -9 16 -20z m-17 -149 c0 -12 -20 -25 -27 -18
-7 7 6 27 18 27 5 0 9 -4 9 -9z m71 -94 c-13 -13 -26 -3 -16 12 3 6 11 8 17 5
6 -4 6 -10 -1 -17z m-33 -175 c2 -7 -3 -12 -12 -12 -9 0 -16 7 -16 16 0 17 22
14 28 -4z m82 2 c0 -9 -7 -14 -17 -12 -25 5 -28 28 -4 28 12 0 21 -6 21 -16z
m-41 -91 c-7 -10 -14 -20 -16 -22 -1 -1 -7 0 -13 4 -8 5 -5 11 7 21 25 19 38
17 22 -3z m-11724 -3 c3 -5 1 -10 -4 -10 -6 0 -11 5 -11 10 0 6 2 10 4 10 3 0
8 -4 11 -10z m11720 -169 c3 -5 1 -12 -5 -16 -5 -3 -10 1 -10 9 0 18 6 21 15
7z m70 -40 c-3 -6 -11 -11 -16 -11 -5 0 -4 6 3 14 14 16 24 13 13 -3z m23
-180 c-5 -24 -38 -27 -38 -3 0 10 3 21 6 25 11 11 35 -5 32 -22z m-28 -101 c8
-16 7 -22 -10 -32 -11 -7 -20 -18 -20 -24 0 -7 -7 -14 -15 -18 -20 -7 -19 18
1 35 10 8 13 21 9 36 -7 29 20 32 35 3z m-25 -170 c0 -7 -6 -15 -12 -17 -8 -3
-13 4 -13 17 0 13 5 20 13 18 6 -3 12 -11 12 -18z m20 -50 c3 -5 1 -10 -4 -10
-6 0 -11 5 -11 10 0 6 2 10 4 10 3 0 8 -4 11 -10z m25 -200 c0 -5 -2 -10 -4
-10 -3 0 -8 5 -11 10 -3 6 -1 10 4 10 6 0 11 -4 11 -10z m-53 -36 c-3 -3 -12
-4 -19 -1 -8 3 -5 6 6 6 11 1 17 -2 13 -5z m-11702 -144 c3 -5 1 -10 -4 -10
-6 0 -11 5 -11 10 0 6 2 10 4 10 3 0 8 -4 11 -10z m11705 -34 c0 -3 -4 -8 -10
-11 -5 -3 -10 -1 -10 4 0 6 5 11 10 11 6 0 10 -2 10 -4z m30 -60 c0 -11 -19
-15 -25 -6 -3 5 1 10 9 10 9 0 16 -2 16 -4z m-42 -43 c8 -13 10 -23 5 -23 -12
0 -53 35 -53 44 0 15 33 0 48 -21z m22 -158 c0 -9 -9 -15 -25 -15 -26 0 -34
15 -12 23 23 10 37 7 37 -8z m10 -75 c0 -5 -4 -10 -10 -10 -5 0 -10 5 -10 10
0 6 5 10 10 10 6 0 10 -4 10 -10z m-60 -14 c0 -11 -19 -15 -25 -6 -3 5 1 10 9
10 9 0 16 -2 16 -4z m-10 -125 c0 -12 -20 -25 -27 -18 -7 7 6 27 18 27 5 0 9
-4 9 -9z m30 -90 c0 -6 -4 -13 -10 -16 -5 -3 -10 1 -10 9 0 9 5 16 10 16 6 0
10 -4 10 -9z m-30 -20 c0 -5 -7 -12 -16 -15 -22 -9 -24 -8 -24 9 0 8 9 15 20
15 11 0 20 -4 20 -9z m34 -40 c3 -5 0 -11 -8 -14 -15 -6 -26 1 -26 15 0 11 27
10 34 -1z m-69 -41 c-3 -5 -13 -10 -21 -10 -8 0 -12 5 -9 10 3 6 13 10 21 10
8 0 12 -4 9 -10z m-15 -100 c0 -5 -7 -10 -15 -10 -8 0 -15 5 -15 10 0 6 7 10
15 10 8 0 15 -4 15 -10z m30 -75 c0 -8 -7 -15 -15 -15 -16 0 -20 12 -8 23 11
12 23 8 23 -8z m-65 -149 c-24 -19 -27 -26 -17 -38 13 -16 -1 -38 -25 -38 -15
0 -18 26 -3 35 5 3 7 12 3 20 -8 22 15 45 46 45 l26 0 -30 -24z m-28 -112 c-9
-9 -28 6 -21 18 4 6 10 6 17 -1 6 -6 8 -13 4 -17z m-31 -98 c-13 -25 -27 -43
-30 -38 -5 9 43 96 50 89 3 -2 -6 -25 -20 -51z m57 -11 c-5 -16 -33 -21 -33
-7 0 13 22 32 31 26 5 -2 6 -11 2 -19z m-41 -97 c-6 -6 -15 -8 -19 -4 -4 4 -1
11 7 16 19 12 27 3 12 -12z m-22 -43 c0 -8 -6 -15 -14 -15 -8 0 -17 -11 -20
-25 -4 -16 -13 -25 -26 -25 -30 0 -24 25 13 54 37 30 47 32 47 11z m-69 -158
c-8 -8 -11 -3 -9 18 2 43 12 55 16 21 2 -16 -1 -33 -7 -39z m-11206 -17 c3 -5
2 -10 -4 -10 -5 0 -13 5 -16 10 -3 6 -2 10 4 10 5 0 13 -4 16 -10z m11241 -37
c-4 -4 -11 -1 -16 7 -16 25 -11 35 7 17 9 -9 13 -20 9 -24z m-101 -13 c-3 -5
-10 -10 -16 -10 -5 0 -9 5 -9 10 0 6 7 10 16 10 8 0 12 -4 9 -10z m72 -17 c2
-6 -10 -16 -27 -21 -34 -12 -38 -7 -13 20 17 19 34 20 40 1z m-80 -120 c-17
-18 -22 -8 -11 22 5 12 10 13 17 6 8 -8 6 -16 -6 -28z m-60 -15 c-3 -8 -6 -5
-6 6 -1 11 2 17 5 13 3 -3 4 -12 1 -19z m-8 -114 c2 -2 2 -7 -2 -10 -3 -3 -16
2 -29 11 l-23 17 25 -7 c14 -4 27 -9 29 -11z m31 -53 c0 -12 -28 -22 -34 -12
-3 5 -3 11 1 15 9 9 33 7 33 -3z m-59 -74 c-7 -7 -15 -6 -25 3 -22 17 -9 32
16 19 14 -8 17 -14 9 -22z m-6 -47 c8 -13 -14 -42 -25 -35 -4 3 -10 14 -13 25
-4 15 0 20 13 20 11 0 22 -5 25 -10z m-68 -46 c5 -16 -38 -26 -54 -12 -7 5
-10 15 -7 20 8 12 56 6 61 -8z m-47 -54 c0 -13 -7 -13 -31 1 -11 5 -17 14 -14
20 7 11 45 -7 45 -21z m30 -61 c0 -10 -31 -20 -41 -13 -17 10 -9 22 16 20 14
0 25 -4 25 -7z m-10700 -60 c0 -6 -4 -7 -10 -4 -5 3 -10 11 -10 16 0 6 5 7 10
4 6 -3 10 -11 10 -16z m10630 1 c24 -24 25 -33 5 -50 -8 -7 -15 -19 -15 -26 0
-9 -12 -14 -36 -14 -42 0 -43 23 -2 28 34 4 43 28 18 49 -18 16 -18 33 1 33 5
0 18 -9 29 -20z m-120 -129 c0 -10 -7 -22 -16 -25 -22 -8 -30 0 -16 17 7 8 9
17 5 20 -3 4 1 7 10 7 10 0 17 -8 17 -19z m65 -14 c-8 -31 -39 -61 -56 -55 -8
3 -1 15 19 33 18 15 32 35 32 43 0 9 2 13 5 10 4 -3 3 -17 0 -31z m-71 -108
c-44 -46 -49 -37 -27 43 4 16 6 17 29 1 l25 -16 -27 -28z m-69 -49 c20 -23 17
-24 -20 -10 -14 5 -23 14 -20 20 9 15 20 12 40 -10z m-25 -40 c0 -5 -4 -10
-10 -10 -5 0 -10 5 -10 10 0 6 5 10 10 10 6 0 10 -4 10 -10z m-65 -30 c4 -6
-5 -10 -20 -10 -15 0 -24 4 -20 10 3 6 12 10 20 10 8 0 17 -4 20 -10z m17 -49
c-14 -19 -17 -31 -10 -33 6 -2 8 -10 4 -17 -6 -9 -11 -9 -21 -1 -7 6 -15 7
-17 2 -1 -5 -14 -12 -28 -16 -23 -6 -23 -6 -7 7 9 8 17 18 17 23 0 11 73 74
79 68 3 -2 -5 -17 -17 -33z m-72 -106 c0 -9 -7 -18 -16 -22 -18 -7 -39 11 -30
26 11 17 46 13 46 -4z m-9880 -65 c0 -5 -4 -10 -10 -10 -5 0 -10 5 -10 10 0 6
5 10 10 10 6 0 10 -4 10 -10z m9840 1 c0 -5 -7 -15 -16 -22 -9 -7 -20 -24 -25
-36 -10 -27 -41 -43 -47 -25 -2 7 -10 19 -18 26 -11 12 -8 14 19 12 29 -1 32
1 29 27 -3 24 0 27 27 27 17 0 31 -4 31 -9z m-110 -97 c0 -16 -46 -41 -56 -31
-3 3 2 17 12 30 19 25 44 26 44 1z m-23 -69 c-23 -22 -33 -18 -12 5 10 11 20
18 23 16 2 -3 -3 -12 -11 -21z m-84 -40 c30 1 34 -7 12 -25 -13 -11 -19 -8
-40 14 -16 17 -22 32 -18 44 6 14 8 13 13 -8 5 -19 13 -25 33 -25z m-5 -62 c2
-8 -5 -13 -19 -13 -12 0 -31 -7 -41 -17 -23 -21 -24 0 0 27 18 22 53 23 60 3z
m-88 -99 c-7 -7 -17 -14 -22 -14 -5 0 -21 -9 -36 -20 -34 -24 -82 -37 -82 -21
0 6 8 14 18 17 53 17 82 35 82 53 0 11 8 21 18 23 23 5 37 -19 22 -38z m-100
-109 c0 -8 -9 -15 -20 -15 -10 0 -24 -8 -29 -17 -10 -17 -12 -17 -26 1 -17 23
-11 32 25 39 45 8 50 7 50 -8z m-106 -50 c3 -8 13 -15 23 -15 12 0 14 -3 6
-11 -8 -8 -17 -6 -32 7 -22 19 -27 34 -12 34 5 0 11 -7 15 -15z m-14 -63 c0
-20 -49 -72 -68 -72 -7 0 -12 -4 -12 -9 0 -15 -57 -71 -72 -71 -7 0 -18 -10
-23 -22 -6 -13 -20 -27 -32 -33 -13 -5 -23 -15 -23 -22 0 -7 -6 -16 -14 -20
-7 -4 -18 -18 -25 -30 -6 -13 -18 -23 -26 -23 -8 0 -19 -9 -25 -20 -13 -25
-55 -28 -46 -4 4 10 -1 22 -11 30 -16 12 -14 13 21 14 25 0 46 7 61 22 21 20
22 24 8 45 -17 26 -12 29 17 11 17 -11 25 -7 65 34 25 25 45 50 45 55 0 6 15
18 34 28 19 10 32 23 30 29 -3 7 10 17 28 24 26 10 30 14 18 22 -12 7 -10 11
10 19 36 14 40 13 40 -7z m-115 -2 c-3 -5 -11 -10 -16 -10 -6 0 -7 5 -4 10 3
6 11 10 16 10 6 0 7 -4 4 -10z m-105 -131 c0 -6 -4 -7 -10 -4 -5 3 -10 11 -10
16 0 6 5 7 10 4 6 -3 10 -11 10 -16z m-210 -205 c0 -17 -22 -14 -28 4 -2 7 3
12 12 12 9 0 16 -7 16 -16z m-65 -34 c3 -5 1 -10 -4 -10 -6 0 -11 5 -11 10 0
6 2 10 4 10 3 0 8 -4 11 -10z m113 -8 c2 -7 -5 -16 -17 -19 -12 -3 -21 -11
-21 -18 0 -15 -57 -41 -68 -31 -4 4 6 17 21 28 20 15 26 26 21 40 -5 17 -2 19
27 16 18 -2 34 -9 37 -16z m-8050 -30 c2 -7 -2 -10 -12 -6 -9 3 -16 11 -16 16
0 13 23 5 28 -10z m42 -22 c11 -7 12 -12 3 -21 -8 -8 -14 -6 -22 10 -12 22 -5
27 19 11z m7854 -39 c-5 -25 -9 -29 -20 -20 -19 16 -17 36 3 48 23 12 24 10
17 -28z m-54 21 c0 -13 -12 -22 -22 -16 -10 6 -1 24 13 24 5 0 9 -4 9 -8z
m-7718 -42 c12 -11 16 -20 9 -20 -6 0 -21 9 -33 20 -12 11 -16 20 -9 20 6 0
21 -9 33 -20z m7736 -32 c-3 -7 -24 -27 -49 -45 -48 -34 -82 -43 -73 -18 4 8
13 15 20 15 8 0 17 7 21 15 3 9 20 22 37 30 40 17 49 18 44 3z m-138 -119 c0
-5 -7 -9 -15 -9 -15 0 -20 12 -9 23 8 8 24 -1 24 -14z m-110 1 c0 -5 -4 -10
-10 -10 -5 0 -10 5 -10 10 0 6 5 10 10 10 6 0 10 -4 10 -10z m77 -45 c-4 -8
-11 -15 -17 -15 -14 0 -13 27 3 33 16 6 21 1 14 -18z m-57 -19 c0 -7 -11 -21
-25 -30 -13 -9 -32 -24 -42 -35 -10 -10 -32 -22 -48 -25 -27 -6 -32 -3 -42 24
-12 33 1 42 21 14 13 -18 46 -9 46 12 0 8 8 14 18 14 9 0 23 9 30 20 14 23 42
27 42 6z m-150 -136 c0 -5 -4 -10 -9 -10 -6 0 -13 5 -16 10 -3 6 1 10 9 10 9
0 16 -4 16 -10z m-84 -45 c-9 -14 -33 -33 -51 -42 -19 -9 -35 -20 -35 -23 0
-8 -94 -70 -106 -70 -5 0 -15 12 -22 27 -9 20 -9 24 0 15 13 -13 47 -16 49 -4
1 4 3 17 4 30 3 32 12 37 39 23 26 -14 46 -8 46 14 0 7 11 16 25 19 14 4 31
18 37 32 7 16 15 21 21 15 7 -7 4 -19 -7 -36z m-250 -177 c-8 -12 -37 -34 -63
-48 -26 -14 -54 -31 -61 -37 -13 -13 -51 -19 -39 -6 4 3 -1 12 -11 19 -14 10
-15 15 -4 26 11 11 16 10 28 -7 19 -25 40 -13 67 38 15 30 22 35 37 27 12 -6
23 -5 36 5 25 18 29 12 10 -17z m-246 -95 c0 -5 -11 -16 -24 -25 -23 -17 -24
-16 -29 2 -3 10 -2 21 1 24 8 9 52 7 52 -1z m30 -38 c-7 -8 -17 -15 -22 -15
-6 0 -5 7 2 15 7 8 17 15 22 15 6 0 5 -7 -2 -15z m-162 -49 c-11 -8 -15 -20
-11 -34 6 -24 -7 -28 -38 -12 -27 15 -24 40 5 40 13 0 29 7 36 15 7 9 16 13
19 9 3 -3 -2 -11 -11 -18z m52 -16 c0 -5 -7 -10 -15 -10 -8 0 -15 5 -15 10 0
6 7 10 15 10 8 0 15 -4 15 -10z m-165 -30 c3 -5 17 -10 31 -10 30 0 32 -25 2
-27 -14 -1 -30 8 -41 23 -10 13 -13 24 -8 24 5 0 13 -4 16 -10z m-37 -22 c19
-19 14 -28 -12 -28 -29 0 -44 19 -25 31 18 12 23 11 37 -3z m-44 -60 c7 -5 5
-8 -5 -8 -17 0 -32 34 -20 45 3 4 8 -1 10 -12 2 -10 8 -21 15 -25z m-85 -15
c-38 -50 -93 -70 -106 -38 -8 21 3 30 20 17 10 -9 18 -8 33 3 10 8 15 15 9 16
-5 0 1 5 15 9 39 12 43 11 29 -7z m-124 -53 c7 -12 -12 -40 -26 -40 -10 0 -12
34 -2 43 9 10 21 9 28 -3z m-238 -43 c4 -21 3 -21 -11 -2 -8 11 -12 24 -9 28
7 12 16 0 20 -26z m123 -21 c0 -3 -10 -6 -22 -6 -12 0 -29 -6 -37 -14 -21 -19
-71 -31 -71 -18 0 17 29 35 48 30 14 -4 22 3 31 29 l13 34 19 -25 c10 -13 19
-27 19 -30z m64 35 c3 -5 -1 -12 -10 -15 -25 -10 -34 -7 -34 9 0 16 35 21 44
6z m-459 -71 c3 -5 1 -10 -4 -10 -6 0 -11 5 -11 10 0 6 2 10 4 10 3 0 8 -4 11
-10z m243 -7 c2 -8 -6 -13 -22 -13 -25 0 -33 10 -19 24 10 10 36 3 41 -11z
m-138 -3 c0 -5 -4 -10 -10 -10 -5 0 -10 5 -10 10 0 6 5 10 10 10 6 0 10 -4 10
-10z m68 -16 c12 -4 22 -11 22 -16 0 -6 -11 -7 -24 -4 -14 3 -28 2 -31 -4 -9
-15 -35 -12 -35 4 0 12 10 19 40 25 3 0 15 -2 28 -5z m-98 -29 c11 -13 9 -15
-13 -15 -14 0 -27 -7 -31 -15 -3 -10 -19 -15 -46 -15 -22 0 -56 -6 -74 -14
-18 -7 -53 -17 -77 -21 -24 -4 -66 -13 -94 -20 -27 -7 -57 -14 -65 -14 -36 -2
-152 -21 -160 -26 -6 -4 -10 -2 -10 4 0 5 -3 18 -7 28 -6 16 -5 16 10 4 15
-12 20 -11 37 4 18 16 24 17 60 5 31 -10 46 -11 65 -2 14 7 37 12 50 12 13 0
27 5 30 10 4 6 21 8 40 4 19 -3 35 -1 39 5 4 6 16 11 27 11 11 0 19 7 19 18 0
14 11 17 77 19 58 1 79 6 85 17 11 20 22 20 38 1z m-3510 -65 c0 -5 -2 -10 -4
-10 -3 0 -8 5 -11 10 -3 6 -1 10 4 10 6 0 11 -4 11 -10z m360 -60 c12 -8 9
-10 -12 -10 -16 0 -28 5 -28 10 0 13 20 13 40 0z m2545 -13 c16 -12 11 -15
-46 -20 -35 -3 -65 -4 -67 -2 -7 6 53 34 74 35 11 0 28 -6 39 -13z m-2460 -7
c3 -5 -1 -10 -9 -10 -9 0 -16 5 -16 10 0 6 4 10 9 10 6 0 13 -4 16 -10z m216
-23 c-8 -8 -11 -7 -11 4 0 20 13 34 18 19 3 -7 -1 -17 -7 -23z m-96 14 c3 -5
2 -12 -3 -15 -13 -8 -53 5 -46 15 7 12 41 12 49 0z m465 1 c0 -11 -78 -62 -96
-62 -8 0 -14 5 -14 10 0 6 7 10 16 10 8 0 32 11 52 25 41 28 42 28 42 17z
m1559 -11 c20 -13 -17 -31 -79 -38 -42 -5 -50 -3 -50 11 0 13 7 15 34 12 20
-3 42 1 53 10 21 16 24 16 42 5z m126 -1 c4 -6 -11 -10 -37 -9 -36 1 -39 2
-18 9 36 11 48 11 55 0z m-450 -34 c21 5 27 4 23 -7 -3 -9 -21 -15 -49 -16
-40 -2 -44 0 -44 21 0 21 2 22 21 9 14 -9 32 -11 49 -7z m-1225 -11 c0 -8 -7
-15 -15 -15 -16 0 -20 12 -8 23 11 12 23 8 23 -8z m210 1 c0 -15 -21 -26 -51
-26 -28 0 -23 17 9 28 37 14 42 14 42 -2z m550 -12 c0 -20 -23 -17 -37 4 -10
17 -8 18 13 14 13 -2 24 -11 24 -18z m585 16 c4 -6 -5 -10 -19 -10 -14 0 -26
5 -26 10 0 6 9 10 19 10 11 0 23 -4 26 -10z m-1085 -15 c0 -8 -7 -15 -15 -15
-16 0 -20 12 -8 23 11 12 23 8 23 -8z m268 -3 c2 -7 -7 -12 -23 -12 -24 0 -26
2 -15 15 14 17 31 16 38 -3z m92 -13 c0 -12 -27 -11 -35 1 -11 17 5 32 21 19
8 -6 14 -15 14 -20z m245 22 c-6 -5 -23 -13 -40 -17 -27 -7 -29 -6 -16 9 7 10
25 17 39 17 16 0 22 -4 17 -9z m223 -3 c-18 -11 -68 -10 -68 2 0 5 18 9 40 8
26 -1 36 -4 28 -10z m-751 -4 c-3 -3 -12 -4 -19 -1 -8 3 -5 6 6 6 11 1 17 -2
13 -5z m93 -4 c0 -5 -7 -10 -15 -10 -8 0 -15 5 -15 10 0 6 7 10 15 10 8 0 15
-4 15 -10z m486 -5 c-25 -19 -36 -19 -36 0 0 10 10 15 28 15 26 -1 26 -1 8
-15z"/>
<path d="M7473 23243 c-13 -9 -23 -22 -23 -29 0 -18 -5 -18 -67 8 l-53 22 -28
-27 c-15 -14 -38 -48 -52 -74 -14 -26 -30 -55 -36 -63 -20 -25 -95 -178 -99
-201 -2 -11 -8 -26 -13 -33 -25 -32 -80 -262 -93 -385 -34 -331 -16 -579 75
-1051 32 -167 94 -241 201 -244 43 -1 57 4 86 28 35 29 164 253 180 311 4 17
21 66 38 110 36 96 90 349 150 705 15 88 28 424 19 480 -4 25 -15 90 -23 145
-18 111 -28 150 -58 213 -16 35 -29 48 -71 66 -72 32 -107 37 -133 19z m-63
-1223 c0 -5 -5 -10 -11 -10 -5 0 -7 5 -4 10 3 6 8 10 11 10 2 0 4 -4 4 -10z
m-13 -282 c-3 -8 -6 -5 -6 6 -1 11 2 17 5 13 3 -3 4 -12 1 -19z"/>
<path d="M12844 22988 c-59 -62 -144 -168 -144 -179 0 -6 -17 -33 -38 -62 -36
-48 -133 -220 -132 -232 0 -3 -13 -31 -28 -63 -16 -31 -37 -84 -46 -117 -10
-33 -21 -69 -26 -80 -18 -44 -40 -197 -42 -300 -1 -66 16 -185 37 -255 7 -25
19 -83 25 -130 13 -101 26 -149 53 -210 65 -144 139 -210 237 -209 30 0 65 5
78 12 27 15 102 104 102 121 0 24 61 85 88 88 43 5 125 156 177 328 41 134 59
223 62 293 1 44 6 84 11 90 5 7 12 37 16 67 7 61 9 74 19 110 4 14 14 66 22
115 8 50 20 119 26 154 7 43 8 94 1 162 -11 117 -33 159 -98 184 -22 8 -59 30
-80 48 -51 43 -165 91 -193 82 -14 -4 -31 -1 -46 9 -34 22 -36 21 -81 -26z
m-189 -1196 c-8 -8 -25 10 -19 20 4 6 9 5 15 -3 4 -7 6 -15 4 -17z m55 -433
c0 -5 -4 -9 -10 -9 -5 0 -10 7 -10 16 0 8 5 12 10 9 6 -3 10 -10 10 -16z"/>
<path d="M13970 20660 c0 -5 5 -10 10 -10 6 0 10 5 10 10 0 6 -4 10 -10 10 -5
0 -10 -4 -10 -10z"/>
<path d="M10290 20468 c-11 -12 -20 -34 -20 -50 0 -44 140 -178 275 -263 61
-38 114 -72 119 -76 12 -11 -57 -146 -105 -204 -22 -26 -55 -60 -73 -74 -19
-14 -53 -42 -77 -62 -65 -55 -243 -145 -334 -169 -64 -18 -97 -21 -165 -17
-99 6 -149 22 -225 72 -58 39 -77 71 -53 89 23 18 58 73 58 91 0 9 6 29 14 43
31 60 38 81 32 91 -4 6 0 39 8 73 8 35 18 104 21 154 l6 91 -36 31 c-25 22
-46 32 -69 32 -41 0 -58 -19 -62 -68 -6 -83 -65 -337 -83 -355 -5 -5 -29 7
-56 27 -25 20 -55 36 -66 36 -22 0 -59 -33 -59 -53 0 -23 30 -121 45 -148 13
-24 13 -28 -8 -45 -63 -55 -108 -84 -131 -84 -14 0 -40 -9 -59 -20 -49 -29
-147 -54 -347 -89 -64 -11 -158 -9 -192 4 -45 18 5 -51 56 -77 54 -28 169 -49
226 -43 25 4 68 8 95 10 77 7 128 15 150 25 11 4 47 16 80 25 100 27 147 47
203 83 l54 34 47 -40 c170 -143 464 -187 678 -99 63 26 221 115 305 173 140
96 286 265 275 320 -2 14 0 27 5 30 5 4 7 17 4 30 -5 20 -3 24 17 24 13 0 28
-5 34 -11 15 -15 193 -38 245 -32 62 8 136 48 144 77 7 28 -14 71 -50 105
l-26 24 -51 -26 c-28 -15 -66 -27 -84 -27 -45 0 -211 35 -277 58 -82 29 -242
133 -318 206 -41 40 -84 72 -109 81 -39 13 -42 13 -61 -7z m-620 -298 c0 -5
-2 -10 -4 -10 -3 0 -8 5 -11 10 -3 6 -1 10 4 10 6 0 11 -4 11 -10z m1565 -80
c3 -5 1 -10 -4 -10 -6 0 -11 5 -11 10 0 6 2 10 4 10 3 0 8 -4 11 -10z m-525
-50 c0 -5 -2 -10 -4 -10 -3 0 -8 5 -11 10 -3 6 -1 10 4 10 6 0 11 -4 11 -10z
m-10 -111 c0 -6 -4 -7 -10 -4 -5 3 -10 11 -10 16 0 6 5 7 10 4 6 -3 10 -11 10
-16z m-1726 -435 c4 -11 1 -14 -11 -12 -9 2 -18 9 -21 16 -6 18 25 15 32 -4z
m-94 -4 c0 -5 -7 -10 -15 -10 -8 0 -15 5 -15 10 0 6 7 10 15 10 8 0 15 -4 15
-10z"/>
<path d="M19534 25176 c-17 -44 13 -62 111 -71 102 -9 345 -41 375 -50 8 -2
57 -7 109 -10 52 -3 112 -10 134 -16 21 -6 77 -10 124 -11 47 0 99 -6 116 -13
26 -11 118 -23 257 -34 30 -3 66 -8 100 -14 19 -4 68 -9 107 -11 40 -3 76 -7
81 -10 5 -3 71 -12 148 -21 76 -9 180 -23 229 -30 50 -8 114 -15 143 -15 29 0
61 -4 70 -9 27 -15 159 -30 387 -46 194 -14 264 -24 339 -46 16 -5 50 -9 75
-9 25 0 100 -6 166 -14 117 -15 334 -33 465 -40 36 -2 99 -9 140 -15 41 -7
134 -14 205 -17 72 -3 150 -11 175 -19 98 -29 300 -23 510 15 30 6 91 15 135
20 44 6 100 17 125 24 86 28 178 48 333 73 101 16 107 19 107 41 0 22 -3 24
-42 20 -120 -13 -290 -41 -348 -58 -36 -10 -92 -22 -125 -26 -33 -3 -76 -13
-95 -20 -32 -12 -147 -24 -391 -41 -83 -5 -166 0 -509 32 -203 19 -371 34
-390 35 -8 0 -40 4 -70 9 -30 5 -87 10 -126 10 -39 1 -84 5 -100 11 -16 5 -54
11 -84 13 -144 10 -341 29 -395 39 -33 6 -77 12 -97 14 -21 1 -63 8 -95 13
-31 6 -85 11 -120 11 -36 0 -103 9 -151 19 -132 29 -244 43 -532 65 -25 2 -72
9 -105 15 -33 6 -96 14 -140 17 -44 3 -107 10 -140 15 -33 5 -96 14 -140 20
-44 6 -159 22 -255 36 -96 13 -228 29 -294 34 -65 5 -122 12 -127 15 -5 3 -80
12 -166 20 -98 10 -164 21 -177 30 -26 18 -45 18 -52 0z"/>
<path d="M125 1731 c-3 -5 3 -12 14 -16 17 -5 20 -20 26 -133 4 -69 5 -200 3
-290 -5 -151 -4 -165 14 -188 24 -30 37 -27 58 12 32 56 71 42 89 -33 l12 -46
18 29 c13 21 15 33 8 42 -10 13 5 31 26 32 16 0 5 17 -22 33 -28 16 -31 16
-75 -2 l-45 -20 -21 26 c-11 14 -20 28 -20 32 0 3 -2 113 -3 245 -3 226 -4
240 -24 262 -22 25 -47 31 -58 15z"/>
<path d="M0 1673 l0 -56 28 24 c15 13 29 25 31 27 3 1 -4 8 -14 16 -17 12 -16
14 13 24 44 15 40 22 -13 22 l-45 0 0 -57z"/>
<path d="M23923 1557 l-73 -10 0 -57 c0 -39 5 -62 15 -70 12 -10 16 -9 21 3 3
8 5 21 3 28 -4 31 2 39 30 39 17 0 33 5 36 10 3 6 -2 10 -11 10 -13 0 -15 3
-7 11 6 6 28 9 49 7 31 -2 38 -7 36 -21 -2 -10 2 -25 9 -33 9 -11 12 -82 11
-264 0 -183 3 -251 11 -252 7 -1 45 -2 85 -3 l74 0 3 -42 c2 -23 6 -51 10 -62
8 -26 -20 -41 -74 -41 -22 0 -55 -7 -74 -16 l-33 -16 1 -74 c1 -50 -2 -78 -11
-85 -11 -9 -11 -15 0 -32 15 -25 21 -323 7 -346 -11 -18 -104 -24 -125 -8 -13
9 -17 34 -20 117 -4 101 -16 135 -30 88 -10 -33 -10 -169 -1 -193 11 -27 54
-67 65 -60 5 3 11 1 15 -4 3 -6 -13 -15 -35 -22 -67 -20 -45 -30 55 -27 72 3
99 8 112 21 14 14 17 44 17 224 l1 207 25 13 c16 8 19 13 9 13 -32 0 -40 24
-32 91 6 50 12 64 26 67 14 3 17 -1 12 -21 -6 -24 -4 -25 42 -29 30 -3 56 1
70 10 12 7 28 10 35 6 7 -4 5 2 -5 13 -23 26 -16 30 53 34 54 4 55 4 52 -22
-2 -22 2 -27 29 -33 47 -9 200 5 196 18 -2 6 -13 12 -25 14 -32 5 -16 22 19
22 22 0 32 -6 38 -23 17 -44 58 -58 48 -15 -2 7 -2 10 0 6 6 -10 43 -10 43 -1
0 4 -6 34 -14 67 -8 34 -20 87 -27 118 -6 32 -15 56 -18 53 -4 -2 -48 -5 -99
-6 -73 -2 -96 0 -108 13 -13 12 -16 46 -17 185 -2 125 -6 174 -15 186 -11 13
-32 16 -112 14 l-98 -2 -6 -44 c-10 -74 6 -79 60 -21 31 34 43 40 77 40 36 0
39 -2 33 -24 -4 -15 0 -28 8 -35 11 -9 15 -39 15 -117 0 -57 3 -109 6 -115 12
-18 -5 -77 -23 -82 -14 -4 -13 -6 5 -12 20 -6 22 -14 21 -64 -1 -76 -16 -91
-89 -91 -83 0 -90 11 -68 97 17 66 17 68 -2 82 -10 7 -19 21 -20 30 0 11 -3 9
-9 -6 -11 -28 -42 -36 -100 -25 l-45 8 2 179 c2 99 0 219 -4 268 -6 85 -7 88
-38 107 -18 11 -36 19 -41 18 -5 -1 -42 -6 -81 -11z m679 -615 c32 -18 48 -51
48 -97 l0 -35 -90 3 c-94 2 -118 13 -103 47 3 8 8 32 11 53 3 28 10 41 26 47
26 10 72 2 108 -18z m-360 -194 c-9 -9 -15 -9 -24 0 -10 10 -10 15 2 22 20 12
38 -6 22 -22z m-222 -568 c0 -5 -4 -10 -10 -10 -5 0 -10 5 -10 10 0 6 5 10 10
10 6 0 10 -4 10 -10z"/>
<path d="M23860 1354 c-8 -21 -8 -29 2 -36 22 -13 28 -9 28 21 0 40 -18 49
-30 15z"/>
<path d="M350 1305 c-11 -14 -15 -41 -11 -85 1 -12 5 -11 16 4 11 14 12 23 4
33 -13 15 -11 16 67 30 28 5 56 7 62 5 7 -2 16 -21 22 -43 14 -50 43 -51 48
-2 4 44 -24 60 -119 68 -62 5 -78 3 -89 -10z"/>
<path d="M23851 1304 c-2 -19 25 -75 32 -67 13 12 7 43 -7 43 -8 0 -17 8 -19
18 -3 9 -5 12 -6 6z"/>
<path d="M24227 1253 c-11 -10 -8 -193 3 -193 14 0 22 56 18 127 -4 63 -9 79
-21 66z"/>
<path d="M520 1182 c-21 -17 -22 -22 -11 -36 7 -9 14 -44 14 -83 2 -62 0 -68
-23 -80 -14 -7 -21 -13 -17 -13 4 0 3 -9 -3 -20 -9 -17 -8 -20 9 -20 24 0 51
-46 51 -85 0 -39 17 -30 24 13 14 94 19 113 30 109 6 -2 13 -14 14 -27 4 -22
6 -22 68 -17 40 4 74 2 89 -5 22 -10 29 -8 50 12 23 22 24 27 18 99 -8 102
-23 131 -68 131 -19 0 -35 -2 -35 -4 0 -3 13 -19 29 -37 24 -26 29 -38 24 -63
-12 -65 -22 -72 -112 -71 -68 2 -86 5 -103 22 -19 19 -19 22 -4 52 9 17 14 36
11 41 -3 5 0 18 7 30 11 17 9 23 -13 45 -25 26 -26 26 -49 7z m30 -228 c0 -17
-22 -14 -28 4 -2 7 3 12 12 12 9 0 16 -7 16 -16z"/>
<path d="M23850 1097 c0 -89 -9 -112 -45 -121 -27 -7 -35 -26 -10 -26 8 0 17
-11 21 -25 3 -14 13 -25 22 -25 8 0 12 3 9 7 -4 3 2 20 12 37 14 23 20 58 24
133 5 95 4 102 -14 100 -17 -1 -19 -10 -19 -80z"/>
<path d="M448 1153 c7 -3 16 -2 19 1 4 3 -2 6 -13 5 -11 0 -14 -3 -6 -6z"/>
<path d="M648 1153 c7 -3 16 -2 19 1 4 3 -2 6 -13 5 -11 0 -14 -3 -6 -6z"/>
<path d="M720 1090 c0 -5 5 -10 10 -10 6 0 10 5 10 10 0 6 -4 10 -10 10 -5 0
-10 -4 -10 -10z"/>
<path d="M312 1003 c-21 -14 -21 -16 -5 -28 14 -10 15 -16 5 -27 -10 -12 -8
-19 8 -33 11 -10 20 -28 20 -39 1 -21 1 -21 16 -1 15 19 14 41 0 77 -5 11 -1
18 15 23 l22 7 -24 19 c-29 22 -28 22 -57 2z"/>
<path d="M195 976 c-18 -27 -32 -205 -28 -351 1 -16 1 -68 0 -115 l-2 -85 -59
-3 c-84 -4 -94 8 -88 102 3 48 1 76 -7 80 -8 5 -11 -23 -11 -98 0 -71 4 -106
11 -106 7 0 10 -12 7 -29 -4 -28 -3 -29 49 -34 55 -6 118 6 129 24 3 6 10 45
15 86 4 41 13 81 20 89 8 10 6 20 -11 43 -19 28 -20 32 -6 59 11 22 12 32 4
40 -9 9 -8 18 1 36 10 17 10 29 2 44 -17 32 -8 115 18 150 12 18 17 32 11 32
-7 0 -5 7 4 16 20 19 14 30 -19 37 -19 3 -30 -1 -40 -17z m-75 -594 c0 -10
-41 -35 -47 -28 -11 11 7 36 27 36 11 0 20 -3 20 -8z"/>
<path d="M24300 970 c0 -5 5 -10 10 -10 6 0 10 5 10 10 0 6 -4 10 -10 10 -5 0
-10 -4 -10 -10z"/>
<path d="M23635 960 c-15 -6 -8 -9 28 -9 30 -1 46 3 42 9 -7 12 -42 12 -70 0z"/>
<path d="M0 918 c0 -31 3 -39 10 -28 13 20 13 57 0 65 -6 4 -10 -11 -10 -37z"/>
<path d="M23250 934 c-6 -14 -10 -47 -10 -73 0 -41 4 -50 30 -69 17 -13 30
-30 30 -39 0 -14 2 -14 19 1 18 17 20 17 29 0 9 -17 12 -16 45 6 44 31 37 44
-19 35 -35 -5 -47 -2 -63 14 -33 33 -26 65 19 104 l40 34 -37 7 c-62 10 -73 7
-83 -20z"/>
<path d="M24040 916 c0 -14 29 -26 63 -26 9 0 17 5 17 10 0 6 -9 10 -19 10
-11 0 -23 5 -26 10 -9 15 -35 12 -35 -4z"/>
<path d="M2 820 c0 -14 2 -19 5 -12 2 6 2 18 0 25 -3 6 -5 1 -5 -13z"/>
<path d="M336 815 c-3 -9 -6 -24 -6 -33 0 -9 -12 -26 -27 -39 l-28 -22 36 -1
c36 0 36 1 43 47 6 47 -6 79 -18 48z"/>
<path d="M535 798 c-4 -9 -5 -31 -3 -50 3 -35 0 -34 73 -22 17 3 51 6 77 7 25
1 50 5 54 10 8 8 -19 10 -92 7 -47 -2 -53 1 -77 31 -21 27 -27 30 -32 17z"/>
<path d="M23557 787 c-8 -6 -4 -7 9 -4 38 8 46 -6 48 -86 1 -67 4 -77 26 -96
30 -24 59 -27 86 -6 18 14 18 14 -6 15 -31 0 -44 9 -59 37 -15 29 1 69 31 78
13 4 26 13 30 19 4 6 28 12 53 12 35 1 48 -3 52 -15 2 -9 11 -28 19 -43 19
-35 18 -65 -3 -77 -17 -9 -16 -11 5 -26 17 -13 20 -20 12 -35 -7 -13 -6 -19 5
-24 8 -3 15 -13 15 -22 0 -32 10 -8 20 49 9 46 8 61 -4 79 -10 16 -12 28 -6
38 5 8 10 27 10 41 0 29 14 44 45 51 11 3 -18 8 -65 11 -140 11 -311 13 -323
4z"/>
<path d="M0 733 c0 -56 14 -72 23 -26 3 15 -1 39 -9 53 -13 24 -13 23 -14 -27z"/>
<path d="M1118 753 c-15 -4 -16 -8 -6 -26 12 -21 14 -42 21 -169 3 -58 17 -70
48 -42 15 14 19 26 15 49 -3 16 -11 63 -17 103 -12 74 -25 93 -61 85z"/>
<path d="M828 743 c12 -2 30 -2 40 0 9 3 -1 5 -23 4 -22 0 -30 -2 -17 -4z"/>
<path d="M1000 740 c0 -5 9 -10 19 -10 11 0 23 5 26 10 4 6 -5 10 -19 10 -14
0 -26 -4 -26 -10z"/>
<path d="M540 684 c0 -8 5 -12 10 -9 6 4 8 11 5 16 -9 14 -15 11 -15 -7z"/>
<path d="M24439 604 c-7 -19 -12 -235 -7 -334 0 -14 -1 -65 -4 -113 -5 -109
-16 -123 -83 -113 -72 11 -75 25 -72 315 l4 240 -24 6 c-13 3 -41 2 -61 -2
l-37 -7 30 -6 c22 -4 31 -11 34 -30 1 -14 7 -28 13 -31 6 -4 10 -82 10 -195
-1 -104 4 -215 10 -247 13 -71 25 -78 143 -83 l80 -4 -2 117 c-2 65 -3 120 -4
123 -6 32 4 275 13 308 11 37 16 42 43 43 16 1 66 3 110 6 44 2 99 4 123 3 23
0 42 4 42 10 0 5 -6 10 -12 11 -7 0 -87 1 -176 3 -163 3 -164 3 -173 -20z"/>
<path d="M23770 600 c0 -5 4 -10 9 -10 6 0 13 5 16 10 3 6 -1 10 -9 10 -9 0
-16 -4 -16 -10z"/>
<path d="M572 574 c-28 -13 -35 -64 -38 -297 -1 -130 -6 -246 -9 -257 -5 -16
-2 -20 14 -20 25 0 23 -20 27 247 2 188 5 216 23 251 21 42 41 52 104 52 20 0
37 5 37 10 0 6 -17 10 -37 10 -21 0 -54 2 -73 5 -19 2 -41 2 -48 -1z"/>
<path d="M830 571 c-8 -6 -26 -7 -39 -4 -17 4 -22 2 -19 -8 4 -11 24 -13 89
-11 85 4 138 22 63 22 -21 0 -48 3 -59 5 -11 3 -27 1 -35 -4z"/>
<path d="M996 561 c-7 -10 36 -41 56 -41 18 0 58 28 58 41 0 12 -107 12 -114
0z"/>
<path d="M298 549 c6 -7 12 -21 12 -30 0 -9 9 -19 20 -22 15 -4 20 -14 20 -41
0 -20 4 -36 9 -36 15 0 23 19 15 32 -12 18 -12 61 -1 76 13 17 9 20 -43 28
-37 5 -43 4 -32 -7z"/>
<path d="M357 384 c-10 -10 -9 -56 2 -73 8 -12 11 -9 17 13 7 29 -6 72 -19 60z"/>
<path d="M360 273 c0 -10 -3 -29 -6 -43 -5 -17 -3 -22 4 -15 15 15 26 75 13
75 -6 0 -11 -8 -11 -17z"/>
<path d="M350 35 c0 -24 5 -35 15 -35 17 0 20 16 5 25 -6 4 -8 15 -5 26 4 11
2 19 -4 19 -6 0 -11 -16 -11 -35z"/>
</g>
</svg>
