<?xml version="1.0" standalone="no"?>
<!DOCTYPE svg PUBLIC "-//W3C//DTD SVG 20010904//EN"
 "http://www.w3.org/TR/2001/REC-SVG-20010904/DTD/svg10.dtd">
<svg version="1.0" xmlns="http://www.w3.org/2000/svg"
 width="597.750000pt" height="843.000000pt" viewBox="0 0 597.750000 843.000000"
 preserveAspectRatio="xMidYMid meet">
<metadata>
Created by potrace 1.16, written by Peter Selinger 2001-2019
</metadata>
<g transform="translate(0.000000,843.000000) scale(0.075000,-0.075000)"
fill="#000000" stroke="none">
<path d="M206 11223 c-11 -11 -6 -23 9 -23 8 0 15 4 15 9 0 13 -16 22 -24 14z"/>
<path d="M250 11206 c0 -9 5 -16 10 -16 6 0 10 4 10 9 0 6 -4 13 -10 16 -5 3
-10 -1 -10 -9z"/>
<path d="M7630 11185 c-16 -31 -5 -46 14 -19 18 24 24 18 28 -30 1 -20 5 -39
9 -42 9 -5 22 94 14 106 -12 20 -51 10 -65 -15z m57 0 c8 -23 0 -24 -19 -3
-15 15 -16 18 -3 18 9 0 18 -7 22 -15z"/>
<path d="M256 11165 c4 -8 8 -15 10 -15 2 0 4 7 4 15 0 8 -4 15 -10 15 -5 0
-7 -7 -4 -15z"/>
<path d="M254 11081 c0 -44 3 -58 13 -54 17 7 17 -19 1 -36 -8 -7 -13 -39 -13
-79 -1 -57 -3 -67 -18 -66 -9 1 -17 -2 -17 -7 0 -5 7 -9 15 -9 8 0 15 -4 15
-9 0 -5 -11 -8 -25 -6 -19 2 -23 -1 -15 -10 8 -9 7 -15 -2 -19 -7 -3 1 -4 17
-1 41 8 56 32 55 85 -4 107 -9 100 70 100 40 0 70 4 70 10 0 9 -33 15 -55 10
-5 -2 -22 -4 -37 -5 -40 -3 -35 23 5 28 l32 4 -37 1 c-20 1 -40 7 -44 13 -13
21 -22 79 -13 85 13 8 11 24 -4 24 -9 0 -13 -18 -13 -59z"/>
<path d="M194 11082 c-7 -4 -8 -16 -4 -27 7 -19 7 -19 14 3 9 27 5 34 -10 24z"/>
<path d="M7671 11030 l-1 -48 31 11 c24 9 27 13 13 15 -11 2 -23 9 -29 14 -7
7 -2 8 15 3 23 -7 23 -7 7 9 -9 10 -15 21 -12 26 3 4 -1 10 -9 13 -9 4 -13 -7
-15 -43z"/>
<path d="M16 11045 c-19 -29 -20 -41 -4 -51 8 -5 9 -2 5 9 -5 13 0 17 21 17
19 0 23 3 13 9 -8 5 -11 16 -8 25 10 25 -9 19 -27 -9z"/>
<path d="M456 11057 c3 -10 -3 -13 -23 -12 -15 1 -20 0 -10 -2 26 -7 20 -21
-10 -26 l-28 -4 28 -2 c20 -1 27 -6 27 -21 0 -11 5 -20 10 -20 6 0 10 6 10 14
0 8 5 16 11 18 13 4 2 68 -11 68 -5 0 -7 -6 -4 -13z"/>
<path d="M7624 11042 c-15 -10 -25 -42 -14 -42 10 0 34 39 28 45 -2 2 -8 1
-14 -3z"/>
<path d="M7440 11016 c-14 -27 -8 -56 12 -55 10 0 10 2 1 6 -22 8 -14 24 10
20 12 -2 16 -2 9 0 -7 3 -10 14 -6 29 8 31 -9 31 -26 0z"/>
<path d="M196 11006 c21 -15 30 -14 19 3 -3 6 -14 11 -23 11 -13 0 -13 -2 4
-14z"/>
<path d="M7864 11011 c5 -7 -5 -11 -31 -12 -21 0 -31 -3 -23 -6 43 -14 44 -16
15 -23 -29 -7 -29 -8 -4 -9 19 -1 29 -8 33 -23 6 -23 6 -23 22 -3 18 24 15 77
-5 83 -8 3 -11 0 -7 -7z"/>
<path d="M187 10964 c17 -27 33 -31 33 -10 0 15 -16 29 -37 32 -8 2 -7 -6 4
-22z"/>
<path d="M7598 10973 c7 -3 16 -2 19 1 4 3 -2 6 -13 5 -11 0 -14 -3 -6 -6z"/>
<path d="M7692 10964 c-7 -8 -10 -19 -6 -26 4 -7 3 -8 -4 -4 -9 5 -12 -13 -12
-63 0 -70 -9 -87 -29 -53 -14 23 -14 6 -1 -19 7 -11 7 -19 1 -19 -5 0 -12 6
-14 13 -3 6 -6 -1 -6 -16 -1 -24 3 -27 23 -24 44 5 56 25 56 91 0 79 7 105 28
100 47 -9 102 -11 102 -4 0 4 -21 10 -47 13 -26 3 -49 10 -51 16 -5 15 -24 13
-40 -5z"/>
<path d="M7630 10962 c0 -5 -12 -8 -27 -7 -16 1 -20 0 -11 -2 9 -2 18 -12 20
-21 2 -12 7 -10 21 11 10 15 13 27 7 27 -5 0 -10 -4 -10 -8z"/>
<path d="M7621 10911 c-10 -6 -10 -10 -1 -16 13 -8 24 -1 19 14 -3 6 -10 7
-18 2z"/>
<path d="M3210 8201 c-38 -4 -54 -10 -52 -19 1 -8 -2 -11 -7 -8 -5 4 -12 2
-16 -4 -8 -13 -35 -13 -35 0 0 5 7 7 15 4 9 -4 15 0 15 9 0 9 -8 13 -22 11
-13 -2 -70 -11 -128 -19 -58 -9 -145 -25 -195 -35 -49 -10 -169 -31 -265 -45
-322 -48 -425 -65 -465 -76 -22 -6 -51 -13 -65 -16 -100 -21 -305 -97 -345
-128 -25 -18 -30 -30 -31 -65 -1 -37 -8 -49 -56 -98 -130 -134 -204 -277 -245
-471 -19 -92 -25 -400 -12 -581 18 -236 78 -478 157 -639 88 -178 258 -388
462 -568 322 -285 689 -407 1260 -420 204 -5 255 -3 386 16 230 32 383 83 579
192 325 179 699 567 843 873 36 75 85 233 77 246 -3 5 -1 11 4 14 8 5 21 73
51 257 5 36 10 125 10 197 0 121 -1 131 -17 126 -14 -5 -15 -4 -4 4 25 18 -3
214 -49 347 -39 111 -158 335 -205 385 -8 8 -27 30 -41 48 -15 18 -33 31 -40
28 -8 -3 -11 0 -8 8 3 8 -22 34 -63 65 -67 50 -91 62 -77 39 4 -7 3 -8 -5 -4
-6 4 -9 11 -6 16 8 12 -53 43 -67 34 -6 -4 -8 -3 -5 3 4 6 -5 15 -19 22 -19 8
-23 8 -18 0 4 -7 1 -10 -7 -7 -8 3 -13 10 -12 16 3 11 -205 95 -336 136 -186
58 -657 129 -636 96 3 -5 -1 -10 -9 -10 -8 0 -13 6 -10 13 3 10 -21 13 -113
14 -65 0 -143 -2 -173 -6z m50 -27 c0 -2 -9 -4 -21 -4 -11 0 -18 4 -14 10 5 8
35 3 35 -6z m125 11 c-21 -8 -105 -12 -105 -5 0 3 26 7 58 8 31 1 53 -1 47 -3z
m62 -1 c-3 -3 -12 -4 -19 -1 -8 3 -5 6 6 6 11 1 17 -2 13 -5z m186 -11 c-7 -2
-21 -2 -30 0 -10 3 -4 5 12 5 17 0 24 -2 18 -5z m-633 -23 c0 -5 -10 -10 -22
-9 -22 0 -22 1 -3 9 11 5 21 9 23 9 1 1 2 -3 2 -9z m680 -4 c176 -18 455 -81
575 -132 17 -6 50 -19 75 -27 40 -13 204 -90 285 -134 52 -27 217 -205 260
-279 100 -171 173 -369 190 -509 14 -119 13 -362 -1 -449 -22 -133 -50 -263
-73 -341 -18 -59 -109 -257 -133 -290 -282 -373 -538 -601 -843 -750 -153 -75
-263 -109 -440 -135 -44 -7 -89 -14 -100 -16 -41 -8 -414 -4 -515 6 -321 32
-546 95 -754 212 -138 78 -216 141 -388 315 -156 157 -197 208 -275 346 -116
204 -169 402 -193 716 -32 428 11 679 152 890 17 25 67 83 111 128 66 68 80
87 83 118 2 21 5 39 6 40 2 1 47 19 100 38 116 43 268 84 398 106 63 11 94 21
93 29 -4 15 14 16 19 1 5 -14 361 38 598 88 154 32 299 42 520 37 118 -3 231
-6 250 -8z m155 4 c13 -6 5 -7 -25 -3 -25 3 -47 7 -49 9 -9 8 55 2 74 -6z
m115 -26 c0 -2 -7 -4 -15 -4 -8 0 -15 4 -15 10 0 5 7 7 15 4 8 -4 15 -8 15
-10z m-1080 2 c0 -9 -30 -14 -35 -6 -4 6 3 10 14 10 12 0 21 -2 21 -4z m-237
-43 c-7 -2 -19 -2 -25 0 -7 3 -2 5 12 5 14 0 19 -2 13 -5z m1510 0 c-7 -2 -19
-2 -25 0 -7 3 -2 5 12 5 14 0 19 -2 13 -5z m37 -13 c0 -5 -2 -10 -4 -10 -3 0
-8 5 -11 10 -3 6 -1 10 4 10 6 0 11 -4 11 -10z m95 -30 c3 -5 1 -10 -4 -10 -6
0 -11 5 -11 10 0 6 2 10 4 10 3 0 8 -4 11 -10z m50 -20 c3 -5 -1 -10 -9 -10
-9 0 -16 5 -16 10 0 6 4 10 9 10 6 0 13 -4 16 -10z m60 -30 c3 -5 1 -10 -4
-10 -6 0 -11 5 -11 10 0 6 2 10 4 10 3 0 8 -4 11 -10z m82 -26 c-3 -3 -12 -4
-19 -1 -8 3 -5 6 6 6 11 1 17 -2 13 -5z m580 -1576 c-3 -8 -6 -5 -6 6 -1 11 2
17 5 13 3 -3 4 -12 1 -19z m-143 -387 c3 -5 -2 -15 -12 -22 -15 -12 -16 -12
-5 2 7 9 10 19 6 22 -3 4 -4 7 0 7 3 0 8 -4 11 -9z m-34 -66 c-7 -9 -15 -13
-19 -10 -3 3 1 10 9 15 21 14 24 12 10 -5z m-90 -119 c0 -3 -7 -12 -16 -20
-22 -23 -37 -20 -16 3 16 18 32 26 32 17z m-220 -241 c-53 -54 -70 -65 -70
-45 0 6 5 10 11 10 6 0 31 20 57 45 65 64 67 56 2 -10z m-70 -69 c0 -3 -4 -8
-10 -11 -5 -3 -10 -1 -10 4 0 6 5 11 10 11 6 0 10 -2 10 -4z m-70 -50 c0 -2
-8 -10 -17 -17 -16 -13 -17 -12 -4 4 13 16 21 21 21 13z m-83 -73 c-14 -14
-19 -15 -29 -4 -7 8 -8 11 -3 8 6 -3 17 -2 25 4 23 14 26 11 7 -8z m-102 -72
c-3 -6 -11 -11 -16 -11 -5 0 -4 6 3 14 14 16 24 13 13 -3z m-40 -31 c-3 -5
-10 -10 -16 -10 -5 0 -9 5 -9 10 0 6 7 10 16 10 8 0 12 -4 9 -10z m-126 -71
c-22 -13 -31 -11 -17 5 7 8 17 12 22 9 4 -3 2 -9 -5 -14z m-169 -69 c-8 -5
-19 -10 -25 -10 -5 0 -3 5 5 10 8 5 20 10 25 10 6 0 3 -5 -5 -10z m-111 -34
c-12 -10 -60 -16 -54 -6 3 5 18 10 32 10 15 0 24 -2 22 -4z m-286 -53 c-7 -2
-19 -2 -25 0 -7 3 -2 5 12 5 14 0 19 -2 13 -5z"/>
<path d="M2374 7443 c-27 -3 -37 -13 -62 -61 -43 -81 -62 -165 -62 -273 0
-116 25 -265 49 -299 37 -52 67 -38 113 54 74 147 104 480 50 563 -9 14 -47
21 -88 16z"/>
<path d="M4104 7337 c-47 -56 -101 -168 -116 -240 -8 -45 -8 -75 2 -130 25
-145 49 -187 106 -187 19 0 34 4 34 9 0 5 18 28 40 51 47 49 62 81 78 165 6
33 18 95 27 139 23 118 17 186 -17 186 -6 0 -19 6 -27 14 -9 8 -33 19 -53 24
-37 10 -39 9 -74 -31z"/>
<path d="M3300 6546 c0 -15 66 -78 102 -97 12 -6 24 -13 26 -14 9 -7 -31 -65
-63 -93 -90 -79 -191 -101 -253 -54 l-22 17 19 38 c26 50 37 133 21 152 -20
24 -38 17 -45 -17 -18 -88 -26 -111 -38 -99 -13 13 -47 15 -47 2 0 -5 4 -21 9
-34 8 -19 6 -28 -7 -40 -20 -17 -103 -47 -132 -47 -11 0 -20 -4 -20 -8 0 -4
-17 -6 -37 -4 -36 3 -37 2 -19 -12 12 -9 39 -16 66 -16 51 0 157 25 177 42 10
8 26 4 64 -17 74 -40 146 -39 226 4 71 38 140 101 149 136 6 24 9 25 54 19 54
-7 93 8 88 34 -3 14 -16 17 -68 18 -72 1 -125 22 -184 74 -36 32 -66 39 -66
16z"/>
<path d="M6280 8060 c0 -12 21 -17 135 -29 129 -14 147 -17 290 -35 66 -8 183
-22 260 -31 77 -9 167 -20 200 -26 33 -5 121 -14 195 -19 209 -16 264 -21 272
-26 15 -9 321 45 335 60 11 10 -31 7 -114 -9 -184 -37 -279 -34 -743 20 -281
32 -753 91 -802 100 -16 2 -28 0 -28 -5z"/>
<path d="M0 534 c0 -8 5 -12 10 -9 6 3 10 10 10 16 0 5 -4 9 -10 9 -5 0 -10
-7 -10 -16z"/>
<path d="M50 531 c0 -12 5 -21 10 -21 6 0 10 6 10 14 0 8 -4 18 -10 21 -5 3
-10 -3 -10 -14z"/>
<path d="M7667 486 c-3 -9 -2 -18 3 -21 6 -4 10 -2 10 3 0 16 33 24 42 10 4
-7 8 -53 8 -102 0 -79 2 -87 15 -76 10 8 12 16 6 19 -6 4 -11 45 -13 91 l-3
85 -31 3 c-21 2 -33 -2 -37 -12z"/>
<path d="M59 473 c-4 -43 -3 -65 3 -69 4 -3 8 13 8 35 0 23 -2 41 -5 41 -3 0
-5 -3 -6 -7z"/>
<path d="M7780 426 c0 -18 16 -21 25 -6 13 21 35 10 36 -17 0 -16 4 -37 9 -48
7 -15 9 -6 7 30 l-2 50 -37 3 c-29 2 -38 0 -38 -12z"/>
<path d="M110 411 c0 -5 9 -7 20 -4 11 3 20 7 20 9 0 2 -9 4 -20 4 -11 0 -20
-4 -20 -9z"/>
<path d="M166 357 c1 -34 3 -77 3 -94 1 -25 5 -33 19 -32 10 0 12 3 5 6 -7 2
-13 18 -13 34 0 27 2 28 41 25 45 -5 55 7 45 49 -8 33 -22 32 -21 -2 0 -23 -4
-27 -30 -27 -28 0 -30 2 -32 43 -1 24 -6 48 -10 52 -5 5 -8 -20 -7 -54z"/>
<path d="M50 376 c0 -15 18 -31 26 -23 7 7 -7 37 -17 37 -5 0 -9 -6 -9 -14z"/>
<path d="M100 366 c0 -8 5 -18 10 -21 6 -3 10 3 10 14 0 12 -4 21 -10 21 -5 0
-10 -6 -10 -14z"/>
<path d="M7781 354 c0 -11 3 -14 6 -6 3 7 2 16 -1 19 -3 4 -6 -2 -5 -13z"/>
<path d="M7661 338 c0 -9 -4 -25 -7 -35 -5 -14 -4 -15 5 -7 7 7 11 22 8 35 -2
13 -5 16 -6 7z"/>
<path d="M7849 325 c0 -5 -2 -21 -2 -35 -2 -23 -6 -25 -51 -27 -27 -1 -53 -6
-58 -11 -5 -5 -10 -47 -11 -93 -2 -79 -3 -84 -24 -87 -21 -3 -23 1 -25 40 l-1
43 -4 -38 c-3 -21 1 -44 7 -52 8 -10 7 -14 -2 -18 -7 -3 2 -6 20 -6 18 -1 35
5 37 11 2 7 6 51 7 98 3 81 4 85 25 82 12 -2 24 2 28 8 8 13 45 13 45 0 0 -5
16 -10 36 -10 21 0 33 4 29 10 -3 6 -1 10 4 10 6 0 11 -4 11 -10 0 -5 6 -7 14
-4 21 8 5 68 -19 72 -16 3 -18 1 -7 -9 21 -23 14 -39 -19 -39 -28 0 -31 3 -27
24 3 14 1 31 -3 38 -5 7 -9 9 -10 3z"/>
<path d="M58 283 c-1 -21 -2 -63 -3 -93 -1 -52 -3 -55 -27 -55 -14 0 -24 -4
-22 -10 6 -15 54 -17 59 -2 8 25 11 197 3 197 -4 0 -9 -17 -10 -37z"/>
<path d="M100 306 c0 -8 4 -17 9 -21 6 -3 9 4 8 15 -1 23 -17 28 -17 6z"/>
<path d="M7780 300 c0 -11 5 -20 10 -20 6 0 10 9 10 20 0 11 -4 20 -10 20 -5
0 -10 -9 -10 -20z"/>
<path d="M7470 287 c0 -26 17 -47 39 -47 11 0 8 5 -8 16 -16 12 -20 19 -12 27
15 15 14 27 -4 27 -9 0 -15 -9 -15 -23z"/>
<path d="M7590 220 c0 -22 5 -30 18 -29 10 0 12 3 5 6 -22 8 -14 32 13 39 27
7 48 -10 40 -32 -2 -6 -1 -17 4 -24 5 -8 9 3 12 29 l4 41 -48 0 c-47 0 -48 -1
-48 -30z"/>
<path d="M361 201 c2 -23 7 -41 11 -41 12 0 10 68 -2 75 -7 4 -10 -8 -9 -34z"/>
<path d="M7848 108 c-3 -85 -5 -93 -23 -93 -18 0 -20 8 -23 88 -1 48 -6 87
-10 87 -11 0 -1 -163 10 -177 6 -7 22 -13 37 -13 l27 0 -4 70 c-6 101 0 118
46 123 34 3 33 4 -10 5 l-47 2 -3 -92z"/>
<path d="M100 173 c0 -5 5 -15 10 -23 8 -12 10 -11 10 8 0 12 -4 22 -10 22 -5
0 -10 -3 -10 -7z"/>
<path d="M177 173 c-4 -3 -6 -45 -5 -92 2 -77 2 -79 5 -21 4 87 10 108 31 113
14 4 13 5 -4 6 -11 0 -24 -2 -27 -6z"/>
<path d="M328 173 c7 -3 16 -2 19 1 4 3 -2 6 -13 5 -11 0 -14 -3 -6 -6z"/>
</g>
</svg>
