<?xml version="1.0" encoding="UTF-8" standalone="no"?>
<svg
   version="1.0"
   width="594.750000pt"
   height="841.500000pt"
   viewBox="0 0 594.750000 841.500000"
   preserveAspectRatio="xMidYMid meet"
   id="svg46"
   sodipodi:docname="final.svg"
   xmlns:inkscape="http://www.inkscape.org/namespaces/inkscape"
   xmlns:sodipodi="http://sodipodi.sourceforge.net/DTD/sodipodi-0.dtd"
   xmlns="http://www.w3.org/2000/svg"
   xmlns:svg="http://www.w3.org/2000/svg">
  <defs
     id="defs50" />
  <sodipodi:namedview
     id="namedview48"
     pagecolor="#505050"
     bordercolor="#eeeeee"
     borderopacity="1"
     inkscape:showpageshadow="0"
     inkscape:pageopacity="0"
     inkscape:pagecheckerboard="0"
     inkscape:deskcolor="#505050"
     inkscape:document-units="pt"
     showgrid="false"
     inkscape:zoom="0.76114082"
     inkscape:cx="396.77283"
     inkscape:cy="561"
     inkscape:window-width="1920"
     inkscape:window-height="1009"
     inkscape:window-x="211"
     inkscape:window-y="1432"
     inkscape:window-maximized="0"
     inkscape:current-layer="svg46" />
  <metadata
     id="metadata2">
Created by potrace 1.16, written by Peter Selinger 2001-2019
</metadata>
  <g
     transform="matrix(0.075 0 0 -0.075 0 841.5)"
     fill="#000000"
     stroke="none"
     id="g44">
    <path
       d="M7641 11150 c0 -33 1 -34 10 -11 6 16 6 28 -1 35 -7 7 -10 -1 -9 -24z"
       id="path4" />
    <path
       d="M7 11103 c-8 -8 -9 -143 -2 -143 18 0 63 32 73 52 19 34 -9 98 -41 98 -13 0 -27 -3 -30 -7z"
       id="path8" />
    <path
       d="M1780 9541 c0 -23 5 -31 18 -31 49 1 58 53 9 58 -24 3 -27 0 -27 -27z"
       id="path16" />
    <path
       d="M1860 9543 c0 -17 6 -23 23 -23 16 0 18 3 8 9 -7 5 -17 15 -22 22 -6 10 -9 8 -9 -8z"
       id="path18" />
    <path
       d="M1710 9445 c-7 -8 -18 -15 -26 -15 -22 0 -26 -18 -9 -44 10 -15 22 -23 31 -19 16 6 55 79 46 87 -10 11 -29 6 -42 -9z"
       id="path20" />
    <path
       d="M2135 8550 c-4 -6 -3 -16 3 -22 6 -6 12 -6 17 2 4 6 3 16 -3 22 -6 6 -12 6 -17 -2z"
       id="path26" />
    <path
       d="M5155 8541 c-3 -5 -1 -12 5 -16 5 -3 10 1 10 9 0 18 -6 21 -15 7z"
       id="path28" />
    <path
       d="M1990 8399 c0 -11 4 -18 10 -14 5 3 7 12 3 20 -7 21 -13 19 -13 -6z"
       id="path30" />
    <path
       d="M5060 8396 c0 -9 5 -16 10 -16 6 0 10 4 10 9 0 6 -4 13 -10 16 -5 3 -10 -1 -10 -9z"
       id="path32" />
    <path
       d="M5110 8384 c-6 -14 -19 -28 -30 -31 -14 -4 -20 -14 -20 -34 0 -29 0 -29 28 -15 27 14 67 88 54 100 -11 12 -23 5 -32 -20z"
       id="path34" />
    <path
       d="M5018 8231 c-38 -53 -37 -78 2 -79 29 -1 30 1 30 47 0 26 5 52 12 59 9 9 9 12 -2 12 -8 0 -27 -18 -42 -39z"
       id="path36" />
    <path
       d="M2670 4245 c0 -8 4 -15 9 -15 5 0 11 7 15 15 3 9 0 15 -9 15 -8 0 -15 -7 -15 -15z"
       id="path40" />
    <g
       id="g218">
      <path
         d="M219 11152 c-28 -14 -36 -26 -47 -67 -21 -82 6 -139 75 -159 18 -6 27 2 56 47 28 44 33 59 28 88 -6 34 -30 71 -62 96 -12 10 -22 9 -50 -5z"
         id="path6" />
      <path
         style="fill:none;stroke:#000000;stroke-width:1.0"
         d="M 14.520003,10.354993 l 1.805585,-1.805585 c 2.407447,-2.407447 4.563966,-0.321326 2.156520,2.086121 l -0.909680,0.909680 c -3.620353,3.620353 -2.383482,6.626123 1.236871,3.005770 l 0.824858,-0.824858 c 2.936692,-2.936692 4.006733,0.235908 1.070041,3.172599 l -2.202519,2.202519"
         transform="matrix(13.3333 0 0 -13.3333 -0 11220)"
         id="path216" />
    </g>
    <g
       id="g223">
      <path
         d="M2330 10101 c-5 -11 -24 -22 -40 -26 -17 -4 -38 -18 -46 -31 -9 -13 -25 -24 -35 -24 -11 0 -19 -7 -19 -15 0 -7 -6 -18 -12 -22 -21 -13 -37 -49 -28 -63 12 -19 0 -42 -18 -35 -19 7 -32 -11 -32 -48 0 -20 7 -31 26 -39 24 -11 29 -10 48 13 11 13 35 31 51 39 49 24 104 71 139 121 41 56 49 81 41 119 -5 25 -12 30 -35 30 -19 0 -33 -7 -40 -19z"
         id="path10" />
      <path
         style="fill:none;stroke:#000000;stroke-width:1.0"
         d="M 167.940729,89.016783 l -2.120488,2.120488 c -2.827317,2.827317 -6.351208,10.593849 -3.523891,7.766532 l 9.616930,-9.616930 c 6.013192,-6.013192 7.537072,-3.294432 1.523881,2.718760 l -8.851607,8.851607 c -4.606648,4.606648 4.289152,-0.046512 8.895801,-4.653160 l 3.454986,-3.454986"
         transform="matrix(13.3333 0 0 -13.3333 -0 11220)"
         id="path221" />
    </g>
    <g
       id="g228">
      <path
         d="M5037 9953 c3 -32 9 -60 13 -63 4 -3 16 -32 26 -65 10 -33 19 -62 21 -64 1 -2 20 -7 40 -10 30 -5 39 -11 41 -30 2 -14 10 -34 17 -45 16 -26 12 -210 -4 -230 -7 -8 -32 -19 -58 -25 -25 -7 -72 -23 -105 -37 -49 -20 -61 -22 -79 -12 -17 11 -22 10 -33 -4 -14 -19 -51 -24 -60 -9 -3 5 -15 7 -26 4 -17 -5 -20 0 -20 27 0 23 5 33 20 37 11 3 20 6 20 8 0 8 -33 66 -41 70 -5 4 -9 17 -9 29 0 13 -6 29 -14 35 -7 6 -16 24 -19 40 -3 16 -13 36 -22 45 -18 18 -85 22 -85 6 0 -6 -10 -14 -22 -19 -16 -6 -27 -23 -36 -54 -8 -25 -20 -48 -28 -51 -21 -8 -20 -1232 1 -1260 8 -11 15 -30 15 -43 0 -13 5 -23 10 -23 6 0 10 -5 10 -12 0 -6 11 -26 25 -44 14 -18 25 -41 25 -52 0 -11 7 -25 15 -32 8 -7 15 -22 15 -34 0 -29 66 -106 91 -106 11 0 22 -7 25 -15 9 -22 29 -18 60 10 23 21 29 36 32 84 4 50 1 61 -17 78 -44 41 -40 141 9 189 30 29 38 58 20 69 -5 3 -10 26 -10 51 0 31 -4 44 -14 44 -22 0 -24 21 -23 176 2 120 5 145 20 161 9 11 17 34 17 51 0 17 5 34 10 37 6 3 10 32 10 64 0 58 18 91 48 91 7 0 9 10 6 29 -4 21 -2 30 11 35 23 8 55 -11 55 -33 0 -10 7 -24 16 -32 13 -10 17 -10 24 1 6 9 3 18 -8 26 -25 19 -6 29 24 13 14 -7 36 -34 47 -59 17 -34 22 -40 25 -25 8 40 22 40 57 0 19 -22 35 -50 35 -62 0 -17 9 -25 40 -33 37 -10 43 -17 76 -85 l35 -73 3 -209 c1 -114 7 -226 13 -248 20 -81 62 -126 179 -193 12 -6 25 -23 28 -36 4 -15 17 -28 36 -34 16 -6 30 -16 30 -22 0 -6 11 -36 25 -66 19 -42 25 -72 26 -132 0 -42 5 -102 10 -132 10 -61 24 -159 37 -265 9 -73 -1 -252 -19 -333 -6 -26 -16 -74 -22 -107 -7 -33 -22 -77 -34 -98 -13 -21 -23 -46 -23 -55 -1 -25 -24 -104 -38 -129 -6 -12 -12 -39 -12 -61 0 -24 -8 -49 -19 -64 -11 -13 -23 -37 -27 -52 -3 -15 -17 -49 -30 -74 -13 -26 -24 -55 -24 -65 0 -10 -16 -39 -35 -64 -19 -25 -35 -54 -35 -64 0 -10 -4 -20 -9 -23 -5 -3 -11 -16 -14 -28 -7 -28 -89 -118 -137 -150 -76 -51 -121 -56 -175 -20 -34 24 -41 34 -46 72 -3 25 -15 61 -27 80 -18 28 -22 50 -22 111 0 67 -4 84 -35 144 -19 37 -41 75 -50 85 -8 9 -15 26 -15 38 0 12 -9 26 -19 32 -11 5 -41 37 -66 70 -38 49 -52 60 -75 60 -28 0 -85 42 -153 111 -15 16 -35 29 -44 29 -17 0 -83 67 -83 85 0 16 -61 78 -107 109 -23 15 -44 34 -47 42 -8 20 -139 20 -156 -1 -7 -8 -27 -17 -45 -21 -19 -3 -36 -12 -39 -20 -3 -8 -14 -14 -25 -14 -11 0 -25 -9 -31 -20 -6 -11 -17 -20 -25 -20 -8 0 -15 -9 -15 -20 0 -11 -7 -37 -16 -58 -11 -26 -16 -69 -16 -147 0 -60 -3 -114 -8 -120 -4 -5 -10 -42 -12 -81 -5 -68 -7 -72 -52 -119 -29 -31 -46 -57 -46 -73 0 -17 -15 -39 -47 -69 -26 -23 -51 -43 -54 -43 -29 0 -78 82 -79 131 0 9 -7 30 -15 47 -12 22 -14 40 -7 64 7 30 13 34 63 43 46 9 54 14 57 35 2 14 8 29 13 35 5 5 9 19 9 31 0 12 6 35 14 51 28 55 35 79 39 131 3 36 0 55 -9 60 -7 4 -14 21 -16 37 -2 22 -9 31 -24 33 -15 2 -24 12 -27 31 -5 21 -13 30 -35 34 -19 4 -37 18 -51 40 -12 19 -30 37 -41 40 -12 3 -20 14 -20 26 0 12 -11 38 -24 59 -24 38 -29 65 -45 224 -5 48 -14 95 -21 103 -8 10 -12 46 -11 111 2 78 -1 100 -15 115 -15 17 -19 17 -45 3 -19 -9 -29 -22 -29 -37 0 -13 -6 -32 -14 -42 -12 -16 -12 -25 0 -58 8 -22 14 -78 14 -126 0 -82 19 -171 41 -195 5 -6 9 -28 9 -50 0 -62 27 -126 70 -171 66 -68 62 -126 -7 -93 -45 23 -94 5 -126 -44 -22 -35 -25 -239 -3 -290 25 -60 36 -104 36 -143 0 -25 8 -49 25 -71 17 -22 25 -45 25 -71 0 -22 4 -43 10 -49 20 -20 33 -113 37 -259 4 -149 4 -150 33 -187 17 -20 30 -46 30 -57 0 -12 3 -22 8 -22 4 -1 18 -3 31 -4 13 -1 27 -9 32 -16 6 -9 9 -10 9 -2 0 15 156 11 187 -5 38 -21 129 -4 163 29 21 21 38 29 64 29 28 0 44 8 69 34 18 18 47 37 65 41 22 4 37 16 47 36 14 26 20 29 68 29 59 0 71 -6 79 -37 5 -19 -2 -29 -38 -53 -25 -16 -49 -30 -54 -30 -5 0 -13 -6 -17 -12 -15 -24 -72 -58 -96 -58 -14 0 -30 -7 -37 -15 -7 -8 -18 -15 -25 -15 -6 0 -20 -9 -30 -20 -14 -16 -31 -20 -75 -20 -42 0 -59 -4 -64 -15 -3 -8 -12 -15 -19 -15 -8 0 -26 -9 -41 -21 -23 -18 -40 -21 -130 -21 -76 0 -106 -4 -110 -13 -6 -17 -411 -22 -421 -5 -5 8 -11 7 -22 -2 -12 -10 -17 -9 -27 3 -12 17 -7 16 -168 19 -99 1 -121 4 -142 21 -13 10 -39 19 -56 19 -18 0 -44 6 -58 14 -33 18 -81 30 -104 27 -10 -1 -18 2 -18 8 0 10 -19 21 -110 65 -29 15 -61 34 -70 42 -26 26 -121 94 -131 94 -6 0 -24 10 -41 23 -38 28 -67 91 -61 134 6 37 -18 55 -46 35 -9 -7 -23 -15 -31 -19 -8 -3 -33 -20 -55 -37 -22 -18 -52 -37 -67 -44 -16 -6 -28 -17 -28 -24 0 -7 -3 -23 -6 -35 -5 -17 0 -22 24 -28 17 -3 36 -13 43 -21 6 -8 19 -14 29 -14 23 0 80 -50 80 -70 0 -25 82 -99 117 -106 31 -6 69 -33 141 -102 23 -21 48 -34 76 -38 25 -4 53 -17 71 -35 17 -15 42 -31 57 -34 15 -4 32 -13 39 -21 6 -8 21 -14 32 -14 11 0 28 -7 37 -15 10 -9 40 -18 69 -22 28 -3 51 -9 51 -13 0 -15 80 -90 96 -90 10 0 25 -7 34 -15 10 -9 47 -18 93 -21 45 -4 82 -13 88 -20 6 -8 18 -14 26 -14 7 0 16 -7 19 -15 4 -8 12 -15 19 -15 24 0 124 -94 125 -116 0 -12 7 -27 15 -34 8 -7 15 -23 15 -36 0 -12 5 -26 10 -29 6 -3 10 -30 10 -59 0 -39 6 -60 24 -85 14 -18 27 -55 31 -82 6 -45 10 -50 36 -56 16 -3 32 -9 34 -13 3 -5 14 -6 24 -3 10 3 22 0 26 -7 5 -8 11 -6 21 7 12 16 15 16 27 3 12 -15 54 -19 74 -7 13 8 59 -14 90 -43 12 -11 28 -20 36 -20 7 0 18 -5 25 -12 9 -9 15 -9 24 0 7 7 22 12 35 12 12 0 27 9 33 21 7 13 17 18 27 15 9 -4 21 -2 27 2 6 5 44 12 85 15 56 5 79 11 96 27 19 18 28 20 56 13 31 -8 34 -13 37 -51 l3 -42 -43 -2 c-24 0 -50 -1 -58 0 -8 0 -18 -6 -23 -13 -4 -8 -23 -17 -42 -21 -19 -3 -39 -12 -46 -20 -9 -11 -49 -14 -184 -14 -152 0 -174 -2 -177 -16 -4 -23 -65 -27 -78 -5 -8 14 -10 14 -23 -3 -14 -19 -14 -19 -26 0 -9 13 -14 15 -17 7 -7 -16 -34 -17 -34 -1 0 6 -8 4 -19 -6 -19 -17 -20 -17 -31 3 -9 19 -20 21 -95 21 -70 0 -92 4 -137 27 -29 14 -56 30 -59 35 -3 5 -38 10 -78 10 -46 1 -74 5 -79 13 -4 7 -18 15 -31 17 -41 5 -86 82 -94 156 -7 69 -23 106 -59 140 l-25 22 -40 -29 c-22 -16 -53 -45 -69 -65 -34 -41 -77 -50 -117 -23 -15 9 -35 18 -47 20 -11 2 -29 13 -40 25 -20 21 -77 42 -117 42 -12 0 -26 7 -31 16 -6 10 -24 17 -48 18 -39 1 -39 1 -36 -34 1 -19 9 -39 18 -45 9 -5 34 -27 56 -48 22 -20 49 -37 59 -37 11 0 41 -16 66 -35 25 -19 57 -35 70 -35 14 0 42 -13 63 -30 29 -23 48 -30 80 -30 42 0 142 -39 155 -60 3 -6 26 -10 51 -10 31 0 50 -6 64 -20 11 -11 27 -20 35 -20 8 0 19 -8 24 -19 6 -10 24 -21 41 -24 44 -9 91 -47 89 -72 -1 -11 3 -33 9 -48 7 -16 12 -78 12 -138 0 -115 -12 -160 -46 -173 -23 -9 -85 4 -90 18 -3 7 -32 13 -71 14 -41 2 -73 8 -83 17 -8 8 -24 22 -35 32 -11 10 -38 20 -60 21 -22 1 -45 9 -51 17 -13 17 -50 20 -59 4 -9 -14 -67 0 -82 20 -10 14 -12 13 -18 -11 -9 -34 0 -48 30 -48 13 0 30 -7 38 -15 8 -7 26 -17 40 -20 14 -4 28 -13 31 -21 4 -9 21 -14 55 -14 34 0 51 -4 55 -15 3 -8 14 -15 25 -15 11 0 24 -7 29 -16 6 -10 31 -20 65 -25 40 -7 65 -17 89 -39 27 -25 41 -30 83 -30 30 0 59 -6 71 -15 10 -8 27 -15 37 -15 9 0 25 -9 34 -20 10 -11 28 -20 41 -20 32 0 72 -28 72 -51 0 -12 7 -19 19 -19 22 0 31 -19 31 -61 0 -16 5 -38 12 -48 9 -14 8 -27 -5 -60 -10 -23 -17 -48 -17 -57 0 -8 -9 -27 -20 -42 -11 -15 -23 -50 -26 -78 -7 -56 6 -90 53 -141 22 -23 28 -40 30 -77 1 -26 9 -58 17 -71 14 -21 14 -26 1 -39 -8 -8 -16 -25 -16 -38 -1 -17 -3 -18 -6 -6 -11 44 -118 2 -164 -64 -13 -18 -26 -35 -29 -38 -14 -11 -40 -80 -40 -104 0 -15 -8 -30 -19 -35 -13 -8 -22 -30 -31 -78 -18 -106 -16 -125 23 -205 56 -113 50 -138 -56 -244 -98 -96 -125 -128 -137 -158 -7 -20 -16 -26 -40 -26 -16 0 -30 -5 -30 -10 0 -10 -67 -96 -115 -148 -15 -16 -25 -39 -25 -57 0 -26 4 -30 31 -32 31 -2 43 4 84 45 12 12 29 22 38 22 8 0 26 13 39 28 13 15 31 31 40 35 9 3 25 19 35 34 10 15 24 34 31 42 7 8 20 24 29 37 8 13 22 24 29 24 8 0 19 11 24 26 9 22 55 87 87 122 7 7 13 18 13 23 0 19 156 189 174 189 7 0 18 16 25 35 7 19 17 35 22 35 6 0 17 7 25 15 9 9 34 15 59 15 35 0 45 -4 50 -20 3 -11 11 -20 16 -20 15 0 10 37 -10 72 -11 18 -31 67 -45 109 -26 76 -26 77 -12 191 8 62 12 141 9 175 -4 47 -2 68 10 86 10 16 17 58 21 128 14 267 22 365 28 375 4 6 40 14 80 18 40 4 83 14 96 22 25 17 93 38 153 48 21 4 42 13 49 21 7 8 20 15 29 15 9 0 33 9 54 20 20 11 47 20 59 20 13 0 37 9 53 20 17 11 43 20 60 20 33 0 112 27 135 46 8 7 32 15 53 19 20 4 37 11 37 16 0 4 18 13 40 19 22 6 40 15 40 20 0 5 18 13 40 16 22 4 40 10 40 14 0 4 23 10 50 13 28 3 62 15 77 27 14 11 34 20 44 20 11 0 19 4 19 9 0 9 96 61 114 61 7 0 23 11 36 25 23 24 23 27 11 106 -18 121 -23 129 -70 129 -34 0 -45 -6 -67 -34 -27 -33 -28 -34 -65 -21 -21 8 -71 17 -111 21 -40 3 -84 12 -98 19 -14 7 -61 24 -105 37 -77 25 -80 27 -83 58 -6 55 5 74 50 94 80 35 123 59 165 93 23 18 46 33 52 33 6 0 19 8 29 18 10 9 29 24 42 32 70 46 168 136 258 236 82 93 89 101 95 118 4 9 16 16 27 16 11 0 20 7 20 15 0 9 10 26 23 38 25 24 177 233 177 244 0 3 11 21 25 39 14 18 25 42 25 54 0 13 9 24 25 30 17 6 25 17 25 33 0 14 8 35 19 48 10 13 35 56 55 95 20 40 46 82 56 94 11 13 20 33 20 45 0 13 7 28 15 35 17 14 116 214 140 285 10 28 22 54 26 60 5 5 9 18 9 30 0 27 32 115 42 115 4 0 8 14 8 30 0 17 7 47 15 67 8 19 15 47 15 62 0 15 4 31 9 36 5 6 17 66 26 135 9 69 20 136 26 149 23 56 46 280 61 601 21 462 15 622 -28 760 -9 30 -19 73 -22 95 -2 22 -15 56 -28 75 -13 19 -24 43 -24 54 0 10 -6 24 -14 30 -22 17 -63 152 -77 254 -7 50 -16 92 -20 92 -10 0 -27 56 -39 125 -5 28 -13 66 -19 85 -5 19 -15 55 -22 80 -6 25 -19 51 -27 57 -14 12 -36 59 -49 108 -11 41 -43 105 -54 105 -5 0 -15 14 -21 30 -5 17 -19 35 -29 41 -10 5 -19 16 -19 23 0 8 -7 20 -16 27 -9 8 -27 31 -40 51 -15 24 -32 38 -44 38 -15 0 -22 9 -26 30 -4 17 -11 30 -16 30 -6 0 -35 26 -66 59 -32 32 -67 61 -78 65 -24 7 -52 35 -68 69 -6 12 -23 24 -36 25 -13 2 -38 17 -54 33 -16 16 -40 29 -52 29 -21 0 -22 -3 -17 -57z m-7 -817 c0 -8 -4 -17 -9 -21 -12 -7 -24 12 -16 25 9 15 25 12 25 -4z m-1294 -2395 c-10 -16 -36 -13 -36 3 0 17 21 27 34 16 4 -5 5 -13 2 -19z m1195 -544 c7 -66 -14 -84 -36 -30 -19 45 -12 86 13 81 12 -2 19 -17 23 -51z m-1163 -1786 c2 -25 -1 -54 -7 -65 -21 -44 -30 -285 -13 -356 12 -51 1 -113 -26 -143 -16 -17 -17 -17 -29 -1 -8 10 -13 46 -13 85 0 37 -5 71 -10 74 -6 4 -7 13 -1 23 5 9 9 94 10 187 1 140 4 177 18 208 15 30 23 37 43 35 22 -3 25 -8 28 -47z m-152 -266 c-3 -9 -14 -15 -23 -13 -24 4 -29 35 -6 40 24 6 37 -7 29 -27z m-4 -60 c0 -5 -5 -11 -11 -13 -6 -2 -11 4 -11 13 0 9 5 15 11 13 6 -2 11 -8 11 -13z m7 -58 c6 -8 8 -17 4 -21 -4 -3 -7 -39 -7 -79 -1 -69 -2 -72 -25 -72 -17 0 -29 9 -40 33 -11 22 -21 31 -34 28 -22 -5 -42 28 -24 41 6 6 20 13 31 17 12 4 16 12 12 22 -14 37 56 62 83 31z m-49 -291 c0 -3 -4 -8 -10 -11 -5 -3 -10 -1 -10 4 0 6 5 11 10 11 6 0 10 -2 10 -4z"
         id="path12" />
      <path
         style="fill:none;stroke:#000000;stroke-width:1.0"
         d="M 345.021878,124.670009 l 3.122440,-3.122440 c 4.163254,-4.163254 7.023752,-2.781112 2.860499,1.382142 l -1.340357,1.340357 c -5.950397,5.950397 -6.267772,10.510413 -0.317375,4.560016 l 1.526957,-1.526957 c 6.013192,-6.013192 7.405137,-3.162497 1.391946,2.850695 l -2.644052,2.644052 c -6.013192,6.013192 -6.125592,10.368233 -0.112400,4.355041 l 3.650913,-3.650913 c 6.013192,-6.013192 7.697337,-3.454697 1.684146,2.558495 l -5.720400,5.720400 c -6.013192,6.013192 -5.764773,10.007414 0.248418,3.994222 l 7.011215,-7.011215 c 6.013192,-6.013192 3.713085,0.529556 -2.300107,6.542748 l -4.768192,4.768192 c -6.013192,6.013192 -6.028165,10.270806 -0.014974,4.257614 l 8.314696,-8.314696 c 6.013192,-6.013192 11.669437,-7.426797 5.656246,-1.413605 l -13.985916,13.985916 c -6.013192,6.013192 -6.028165,10.270806 -0.014974,4.257614 l 17.016555,-17.016555 c 6.013192,-6.013192 12.459888,-8.217247 6.446696,-2.204055 l -23.489982,23.489982 c -6.013192,6.013192 -5.991628,10.234269 0.021563,4.221077 l 29.454718,-29.454718 c 6.013192,-6.013192 -3.622822,16.350744 -9.636013,22.363935 l -19.765568,19.765568 c -6.013192,6.013192 -5.961126,10.203767 0.052066,4.190575 l 12.981951,-12.981951 c 6.013192,-6.013192 5.614120,-1.371479 -0.399072,4.641712 l -12.537890,12.537890 c -6.013192,6.013192 -5.934751,10.177392 0.078440,4.164201 l 10.913887,-10.913887 c 6.013192,-6.013192 4.264709,-0.022068 -1.748482,5.991123 l -9.086319,9.086319 c -6.013192,6.013192 -6.100994,10.343634 -0.087802,4.330443 l 8.792258,-8.792258 c 6.013192,-6.013192 5.080249,-0.837609 -0.932942,5.175583 l -8.209916,8.209916 c -6.013192,6.013192 -5.198975,9.441615 0.814217,3.428424 l 7.436396,-7.436396 c 6.013192,-6.013192 6.106389,-1.863748 0.093197,4.149444 l -6.538591,6.538591 c -6.013192,6.013192 -4.898642,9.141283 1.114549,3.128091 l 6.161174,-6.161174 c 6.013192,-6.013192 8.252340,-4.009699 2.239148,2.003492 l -7.018467,7.018467 c -6.013192,6.013192 -4.269027,8.511668 1.744165,2.498476 l 5.349717,-5.349717 c 6.013192,-6.013192 7.407900,-3.165259 1.394708,2.847933 l -5.694059,5.694059 c -6.013192,6.013192 -4.350428,8.593069 1.662764,2.579877 l 0.933861,-0.933861 c 4.870311,-4.870311 4.065597,0.177044 -0.804714,5.047354 l -0.517596,0.517596 c -4.180182,4.180182 -2.549628,6.792269 1.630554,2.612087 l 0.073948,-0.073948 c 4.081584,-4.081584 5.962257,-1.719617 1.880673,2.361968 l -0.932984,0.932984 c -2.837606,2.837606 -0.033363,4.276004 2.804242,1.438399 l 1.267351,-1.267351 c 1.147804,-1.147804 0.820119,3.422522 -0.327685,4.570326 l -0.860853,0.860853 M 382.172506,100.247304 l 1.413934,-1.413934 c 1.885246,-1.885246 4.404327,-0.161686 2.519081,1.723560 l -0.704741,0.704741 c -2.824900,2.824900 -1.830704,6.073344 0.994196,3.248444 l 0.717003,-0.717003 c 2.770547,-2.770547 4.943300,-0.700659 2.172753,2.069887 l -0.075125,0.075125 c -2.670381,2.670381 0.195788,4.046853 2.866168,1.376472 l 0.000000,0.000000 c 2.670381,-2.670381 4.996257,-0.753616 2.325876,1.916765 l -0.609041,0.609041 c -3.482435,3.482435 -2.053724,6.296365 1.428711,2.813930 l 0.380594,-0.380594 c 3.989894,-3.989894 6.099900,-1.857259 2.110006,2.132635 l -1.161787,1.161787 c -5.538942,5.538942 -4.664414,8.907054 0.874529,3.368112 l 1.010813,-1.010813 c 6.013192,-6.013192 7.706928,-3.464288 1.693737,2.548904 l -7.703148,7.703148 M 344.777109,180.069108 l 57.137416,-57.137416 c 6.013192,-6.013192 8.757113,-4.514473 2.743922,1.498719 l -59.859774,59.859774 M 263.012575,266.076282 l -2.412102,2.412102 c -1.224380,1.224380 -0.149918,4.392558 1.074462,3.168179 l 0.089240,-0.089240 c 1.105393,-1.105393 1.710220,6.775061 0.604827,7.880455 l -0.000000,0.000000 c -1.105393,1.105393 -1.262474,5.505115 -0.157081,4.399722 l 0.762357,-0.762357 c 1.818744,-1.818744 2.277912,1.964729 0.459168,3.783473 l 0.000000,-0.000000 c -1.818744,1.818744 -1.103139,5.345780 0.715604,3.527036 l 0.580360,-0.580360 c 1.077377,-1.077377 1.165982,3.076659 0.088605,4.154036 l 0.000000,-0.000000 c -1.077377,1.077377 1.091133,11.636789 2.168510,10.559412 l 0.013560,-0.013560 c 1.095457,-1.095457 2.629775,1.612866 1.534318,2.708323 l -0.161478,0.161478 c -1.054023,1.054023 4.330551,8.397371 5.384574,7.343348 l -0.000000,0.000000 c 1.054023,-1.054023 2.868368,1.374272 1.814345,2.428295 l -11.805829,11.805829 c -6.013192,6.013192 -5.982602,10.225243 0.030590,4.212051 l 10.375399,-10.375399 c 6.013192,-6.013192 8.837499,-4.594858 2.824307,1.418333 l -12.919032,12.919032 c -6.013192,6.013192 -5.040137,9.282777 0.973055,3.269586 l 13.284168,-13.284168 c 6.013192,-6.013192 8.486580,-4.243940 2.473389,1.769252 l -14.609956,14.609956 c -6.013192,6.013192 -5.419259,9.661900 0.593933,3.648708 l 4.368126,-4.368126 c 6.013192,-6.013192 15.781327,-3.053404 9.768135,2.959787 l -10.890270,10.890270 c -6.013192,6.013192 -7.758085,3.515444 -1.744893,-2.497747 l 14.287907,-14.287907 c 6.013192,-6.013192 6.200917,-10.443558 0.187725,-4.430366 l -16.658432,16.658432 c -4.419531,4.419531 -0.931725,13.659647 3.487806,9.240117 l 0.091051,-0.091051 c 4.298130,-4.298130 4.690703,-0.448062 0.392573,3.850068 l -0.194629,0.194629 c -4.038624,4.038624 -2.522040,6.764680 1.516585,2.726056 l 0.067568,-0.067568 c 3.948534,-3.948534 4.538861,-0.296220 0.590327,3.652314 l 0.000000,-0.000000 c -3.948534,3.948534 -3.366322,7.608963 0.582212,3.660429 l 0.437217,-0.437217 c 4.531490,-4.531490 6.304623,-2.061983 1.773133,2.469508 l -0.722035,0.722035 c -5.494204,5.494204 -5.272145,9.514785 0.222059,4.020582 l 6.770502,-6.770502 M 379.379114,153.952385 l 27.028510,-27.028510 c 6.013192,-6.013192 7.944238,-3.701597 1.931046,2.311595 l -24.988131,24.988131 c -6.013192,6.013192 -2.254826,6.497467 3.758365,0.484275 l 22.724739,-22.724739 c 6.013192,-6.013192 8.218990,-3.976349 2.205799,2.036842 l -22.319406,22.319406 c -6.013192,6.013192 -4.088083,8.330724 1.925109,2.317532 l 21.765771,-21.765771 c 6.013192,-6.013192 8.122694,-3.880054 2.109503,2.133138 l -22.388331,22.388331 c -6.013192,6.013192 -1.458273,5.700914 4.554918,-0.312278 l 19.307709,-19.307709 c 6.013192,-6.013192 7.207137,-2.964496 1.193946,3.048695 l -18.555574,18.555574 c -6.013192,6.013192 -4.542176,8.784816 1.471016,2.771625 l 18.056895,-18.056895 c 6.013192,-6.013192 7.248125,-3.005484 1.234933,3.007707 l -17.305970,17.305970 c -6.013192,6.013192 -3.043202,7.285842 2.969990,1.272651 l 15.921620,-15.921620 c 6.013192,-6.013192 7.634489,-3.391848 1.621297,2.621343 l -15.556503,15.556503 c -6.013192,6.013192 -4.507482,8.750122 1.505710,2.736931 l 14.983720,-14.983720 c 6.013192,-6.013192 6.928271,-2.685630 0.915079,3.327561 l -14.510767,14.510767 c -6.013192,6.013192 -4.638262,8.880902 1.374930,2.867711 l 14.348912,-14.348912 c 6.013192,-6.013192 6.362807,-2.120167 0.349616,3.893025 l -13.830129,13.830129 c -6.013192,6.013192 -5.953154,10.195795 0.060037,4.182603 l 14.480429,-14.480429 c 6.013192,-6.013192 6.907155,-2.664514 0.893963,3.348677 l -15.314355,15.314355 c -6.013192,6.013192 -6.307626,10.550267 -0.294434,4.537075 l 16.927620,-16.927620 c 6.013192,-6.013192 6.994264,-2.751624 0.981073,3.261568 l -17.484401,17.484401 c -6.013192,6.013192 -5.934033,10.176674 0.079158,4.163483 l 17.982779,-17.982779 c 6.013192,-6.013192 6.712458,-2.469818 0.699267,3.543374 l -18.557349,18.557349 c -6.013192,6.013192 -5.886702,10.129343 0.126490,4.116151 l 19.476963,-19.476963 c 6.013192,-6.013192 6.589425,-2.346784 0.576233,3.666407 l -19.524149,19.524149 c -6.013192,6.013192 -4.872314,9.114955 1.140878,3.101763 l 19.392578,-19.392578 c 6.013192,-6.013192 7.174266,-2.931625 1.161074,3.081567 l -18.863080,18.863080 c -6.013192,6.013192 -3.886960,8.129601 2.126231,2.116409 l 18.282354,-18.282354 c 6.013192,-6.013192 7.350541,-3.107901 1.337350,2.905291 l -17.197006,17.197006 c -6.013192,6.013192 -3.428057,7.670698 2.585135,1.657506 l 15.927929,-15.927929 c 6.013192,-6.013192 7.437315,-3.194674 1.424123,2.818518 l -14.697503,14.697503 c -6.013192,6.013192 -3.919920,8.162561 2.093271,2.149370 l 13.381576,-13.381576 c 6.013192,-6.013192 6.846575,-2.603934 0.833383,3.409257 l -12.598365,12.598365 c -6.013192,6.013192 -3.242873,7.485514 2.770319,1.472322 l 10.638136,-10.638136 c 6.013192,-6.013192 6.907046,-2.664405 0.893854,3.348786 l -10.048886,10.048886 c -6.013192,6.013192 -4.785179,9.027820 1.228012,3.014628 l 9.858262,-9.858262 c 6.013192,-6.013192 6.149397,-1.906756 0.136205,4.106435 l -8.728456,8.728456 c -6.013192,6.013192 -5.658311,9.900951 0.354881,3.887760 l 8.666218,-8.666218 c 6.013192,-6.013192 6.213355,-1.970714 0.200164,4.042477 l -7.962750,7.962750 c -6.013192,6.013192 -5.907460,10.150100 0.105732,4.136909 l 7.954523,-7.954523 c 6.013192,-6.013192 6.340788,-2.098147 0.327596,3.915044 l -8.031701,8.031701 c -6.013192,6.013192 -5.497566,9.740207 0.515626,3.727015 l 7.654230,-7.654230 c 6.013192,-6.013192 5.868717,-1.626077 -0.144474,4.387115 l -6.940431,6.940431 c -6.013192,6.013192 -5.470435,9.713076 0.542756,3.699884 l 5.785911,-5.785911 c 6.013192,-6.013192 5.885219,-1.642578 -0.127973,4.370614 l -5.150154,5.150154 c -6.013192,6.013192 -5.516752,9.759393 0.496440,3.746201 l 4.457803,-4.457803 c 6.013192,-6.013192 5.830518,-1.587877 -0.182674,4.425314 l -4.019201,4.019201 c -6.013192,6.013192 -5.982746,10.225387 0.030445,4.212196 l 4.275892,-4.275892 c 6.013192,-6.013192 5.285441,-1.042800 -0.727751,4.970391 l -2.984711,2.984711 c -6.013192,6.013192 -6.182924,10.425564 -0.169732,4.412373 l 3.613489,-3.613489 c 6.013192,-6.013192 5.006220,-0.763579 -1.006971,5.249612 l -4.074173,4.074173 c -6.013192,6.013192 -5.407104,9.649745 0.606087,3.636554 l 3.128565,-3.128565 c 6.013192,-6.013192 5.665135,-1.422495 -0.348056,4.590697 l -4.650905,4.650905 c -6.013192,6.013192 -7.737835,11.980475 -1.724643,5.967284 l 5.919441,-5.919441 c 6.013192,-6.013192 5.471360,-1.228719 -0.541831,4.784472 l -7.889370,7.889370 c -6.013192,6.013192 -7.921315,12.163956 -1.908124,6.150764 l 9.100086,-9.100086 c 6.013192,-6.013192 6.333773,-2.091133 0.320582,3.922059 l -11.524019,11.524019 c -6.013192,6.013192 -6.978824,11.221464 -0.965632,5.208273 l 9.695284,-9.695284 c 6.013192,-6.013192 6.307348,-2.064707 0.294156,3.948485 l -12.933786,12.933786 c -6.013192,6.013192 -8.412333,12.654973 -2.399141,6.641782 l 13.667489,-13.667489 c 6.013192,-6.013192 5.720019,-1.477378 -0.293173,4.535813 l -17.138394,17.138394 c -6.013192,6.013192 -11.145900,15.388540 -5.132708,9.375349 l 21.168955,-21.168955 c 6.013192,-6.013192 4.808674,-0.566033 -1.204517,5.447158 l -132.201175,132.201175 c -6.013192,6.013192 -10.509795,6.267154 -4.496604,0.253963 l 89.387467,-89.387467 c 6.013192,-6.013192 0.503936,-4.746576 -5.509256,1.266615 l -86.974502,86.974502 c -6.013192,6.013192 -8.360345,4.117704 -2.347153,-1.895487 l 86.517269,-86.517269 c 6.013192,-6.013192 3.571072,-7.813713 -2.442119,-1.800521 l -86.700955,86.700955 c -6.013192,6.013192 -10.524885,6.282244 -4.511693,0.269053 l 89.265472,-89.265472 c 6.013192,-6.013192 5.429470,-9.672111 -0.583721,-3.658919 l -92.013399,92.013399 c -6.013192,6.013192 -10.418617,6.175976 -4.405425,0.162785 l 95.357788,-95.357788 c 6.013192,-6.013192 4.582375,-8.825016 -1.430817,-2.811824 l -97.446901,97.446901 c -6.013192,6.013192 -9.310581,5.067941 -3.297390,-0.945251 l 101.914184,-101.914184 c 2.747295,-2.747295 2.587931,-6.830572 -0.159364,-4.083276 l -0.079793,0.079793 c -2.640905,2.640905 -2.435678,-1.806962 0.205227,-4.447867 l 0.000000,-0.000000 c 2.640905,-2.640905 1.821867,-6.064507 -0.819038,-3.423602 l -2.918348,2.918348 M 157.596299,396.948403 l 5.568524,-5.568524 c 5.954697,-5.954697 7.714958,-3.472318 1.760262,2.482379 l -1.318595,1.318595 c -4.196570,4.196570 -1.456809,5.699450 2.739760,1.502880 l 0.680266,-0.680266 c 3.289548,-3.289548 4.708491,-0.465850 1.418943,2.823698 l -0.186894,0.186894 c -3.040355,3.040355 -0.841458,5.084099 2.198897,2.043744 l -0.000000,0.000000 c 3.040355,-3.040355 5.323574,-1.080934 2.283219,1.959422 l -0.412933,0.412933 c -3.590933,3.590933 -1.777320,6.019961 1.813613,2.429028 l 0.507157,-0.507157 c 4.267141,-4.267141 6.880589,-2.637948 2.613448,1.629193 l -0.216050,0.216050 c -4.497644,4.497644 -1.987030,6.229671 2.510614,1.732027 l 0.372198,-0.372198 c 4.001380,-4.001380 6.413154,-2.170513 2.411773,1.830867 l -0.146349,0.146349 c -3.806249,3.806249 -1.207663,5.450304 2.598585,1.644055 l -0.000000,0.000000 c 3.806249,-3.806249 6.397687,-2.155046 2.591439,1.651202 l -0.118662,0.118662 c -3.964464,3.964464 -1.710601,5.953242 2.253863,1.988777 l 0.240978,-0.240978 c 4.285768,-4.285768 7.130456,-2.887816 2.844689,1.397952 l -0.323365,0.323365 c -4.716921,4.716921 -2.162051,6.404692 2.554870,1.687771 l 0.793595,-0.793595 c 3.987341,-3.987341 6.207468,-1.964828 2.220128,2.022513 l 0.000000,-0.000000 c -3.987341,3.987341 -1.166963,5.409604 2.820377,1.422263 l 0.423003,-0.423003 c 4.551344,-4.551344 7.863547,-3.620906 3.312202,0.930438 l -0.475978,0.475978 c -5.185981,5.185981 -2.563892,6.806533 2.622089,1.620552 l 0.115407,-0.115407 c 5.339857,-5.339857 9.198675,-4.956034 3.858818,0.383823 l -0.431714,0.431714 c -5.915476,5.915476 -3.201403,7.444044 2.714073,1.528568 l 0.402118,-0.402118 c 5.953104,-5.953104 8.664576,-4.421935 2.711472,1.531169 l 0.000000,-0.000000 c -5.953104,5.953104 -2.847428,7.090069 3.105676,1.136964 l 0.791995,-0.791995 c 6.013192,-6.013192 9.538076,-5.295435 3.524884,0.717757 l -0.552312,0.552312 c -6.013192,6.013192 -3.198481,7.441122 2.814711,1.427930 l 1.892764,-1.892764 c 6.013192,-6.013192 10.196062,-5.953421 4.182870,0.059770 l -4.314994,4.314994 c -6.013192,6.013192 -3.839490,8.082130 2.173702,2.068939 l 6.545521,-6.545521 c 6.013192,-6.013192 9.889164,-5.646523 3.875972,0.366668 l -7.986784,7.986784 c -6.013192,6.013192 -3.011084,7.253725 3.002107,1.240533 l 7.734561,-7.734561 c 6.013192,-6.013192 9.906167,-5.663526 3.892975,0.349665 l -8.240794,8.240794 c -6.013192,6.013192 -2.300095,6.542735 3.713097,0.529544 l 8.945194,-8.945194 c 6.013192,-6.013192 9.937493,-5.694852 3.924301,0.318340 l -9.084488,9.084488 c -6.013192,6.013192 -3.138697,7.381337 2.874495,1.368146 l 10.473341,-10.473341 c 6.013192,-6.013192 10.333999,-6.091358 4.320807,-0.078167 l -11.939422,11.939422 c -6.013192,6.013192 -3.637601,7.880242 2.375590,1.867050 l 13.975058,-13.975058 c 6.013192,-6.013192 12.468685,-8.226044 6.455493,-2.212852 l -17.929049,17.929049 c -6.013192,6.013192 -3.723159,7.965800 2.290032,1.952608 l 19.459049,-19.459049 c 6.013192,-6.013192 10.323514,-6.080874 4.310323,-0.067682 l -21.645525,21.645525 c -6.013192,6.013192 -4.048604,8.291245 1.964587,2.278053 l 24.589899,-24.589899 c 6.013192,-6.013192 15.393242,-11.150601 9.380050,-5.137409 l -32.844466,32.844466 c -6.013192,6.013192 -4.685266,8.927907 1.327926,2.914715 l 35.326502,-35.326502 c 6.013192,-6.013192 15.892852,-11.650211 9.879661,-5.637020 l -44.052410,44.052410 c -6.013192,6.013192 -5.393199,9.635840 0.619992,3.622648 l 57.685873,-57.685873 M 258.859133,325.384053 l 1.926232,-1.926232 c 2.568309,-2.568309 5.734440,-1.491800 3.166132,1.076509 l -2.234048,2.234048 c -3.052836,3.052836 19.253864,6.201980 22.306700,3.149144 l 0.733947,-0.733947 c 2.074241,-2.074241 -0.563977,17.534540 -2.638218,19.608781 l 0.000000,-0.000000 c -2.074241,2.074241 9.520960,15.934884 11.595201,13.860643 l 36.087249,-36.087249 c 6.013192,-6.013192 3.896155,-8.138796 -2.117036,-2.125604 l -23.957655,23.957655 c -6.013192,6.013192 -4.520349,0.277708 1.492843,-5.735484 l 20.174898,-20.174898 c 6.013192,-6.013192 3.546994,-7.789635 -2.466197,-1.776443 l -18.118333,18.118333 c -6.013192,6.013192 -4.357179,0.114538 1.656013,-5.898654 l 14.200890,-14.200890 c 6.013192,-6.013192 2.955445,-7.198086 -3.057746,-1.184894 l -11.693336,11.693336 c -6.013192,6.013192 -6.221519,1.978878 -0.208328,-4.034313 l 7.279839,-7.279839 c 6.013192,-6.013192 1.531962,-5.774602 -4.481230,0.238589 l -6.357351,6.357351 M 183.183057,473.185022 l -0.793671,0.793671 c -1.058228,1.058228 1.206429,3.036212 2.264656,1.977985 l 0.499499,-0.499499 c 1.724226,-1.724226 4.814953,-0.572312 3.090727,1.151913 l -0.584886,0.584886 c -1.554995,1.554995 1.530525,2.712115 3.085521,1.157120 l 0.000000,0.000000 c 1.554995,-1.554995 4.398975,-0.156335 2.843980,1.398661 l -0.147591,0.147591 c -1.751783,1.751783 0.877860,3.364781 2.629643,1.612998 l 0.173147,-0.173147 c 1.938917,-1.938917 5.069604,-0.826963 3.130687,1.111954 l -0.000000,0.000000 c -1.938917,1.938917 1.037177,3.205464 2.976094,1.266546 l 7.936386,-7.936386 c 6.013192,-6.013192 8.203179,-3.960539 2.189988,2.052653 l -4.628274,4.628274 c -6.013192,6.013192 -2.845246,7.087887 3.167945,1.074696 l 3.074310,-3.074310 c 6.013192,-6.013192 6.952760,-2.710119 0.939568,3.303073 l -1.270784,1.270784 c -4.406463,4.406463 -1.239568,5.482209 3.166895,1.075746 l 1.139103,-1.139103 c 2.887659,-2.887659 3.557406,0.685235 0.669747,3.572894 l -0.672371,0.672371 c -1.991164,1.991164 0.663233,3.579408 2.654397,1.588244 l 0.693919,-0.693919 c 1.065938,-1.065938 2.731462,1.511178 1.665524,2.577117 l 0.000000,-0.000000 c -1.065938,1.065938 10.439401,6.531161 11.505340,5.465223 l 0.227905,-0.227905 c 1.369811,-1.369811 5.342689,-1.100048 3.972877,0.269763 l -0.351982,0.351982 c -1.839121,1.839121 0.819432,3.423208 2.658553,1.584088 l 0.135623,-0.135623 c 2.019952,-2.019952 4.699282,-0.456641 2.679330,1.563310 l -0.214784,0.214784 c -2.306330,2.306330 -0.959575,5.202215 1.346756,2.895885 l 0.814401,-0.814401 c 3.392198,-3.392198 6.746757,-2.504116 3.354558,0.888082 l -1.285011,1.285011 c -5.105546,5.105546 -4.449676,8.692316 0.655870,3.586771 l 2.049240,-2.049240 c 6.013192,-6.013192 10.741031,-6.498390 4.727839,-0.485198 l -5.836431,5.836431 c -6.013192,6.013192 -6.705066,10.947707 -0.691875,4.934515 l 9.850199,-9.850199 c 6.013192,-6.013192 9.975151,-5.732510 3.961959,0.280681 l -14.210323,14.210323 c -6.013192,6.013192 -7.628125,20.356047 -1.614934,14.342856 l 27.551851,-27.551851 c 6.013192,-6.013192 2.273731,-6.516372 -3.739460,-0.503180 l -28.091556,28.091556 c -6.013192,6.013192 -9.163630,4.920990 -3.150439,-1.092202 l 27.153959,-27.153959 c 6.013192,-6.013192 9.304258,3.423664 3.291067,9.436855 l -20.076321,20.076321 c -6.013192,6.013192 -3.048463,7.291104 2.964728,1.277912 l 16.593213,-16.593213 c 6.013192,-6.013192 5.314761,-1.072121 -0.698430,4.941071 l -13.270930,13.270930 c -6.013192,6.013192 -3.051360,7.294001 2.961831,1.280809 l 4.138143,-4.138143 c 6.013192,-6.013192 6.345792,-2.103151 0.332600,3.910040 l -4.815308,4.815308 c -1.301381,1.301381 2.913641,5.571640 4.215022,4.270259 l 0.000000,0.000000 c 1.301381,-1.301381 5.513352,2.971930 4.211971,4.273311 l -0.878331,0.878331 c -2.472489,2.472489 -1.727531,5.970171 0.744959,3.497682 l 2.857509,-2.857509 c 6.013192,-6.013192 7.486437,-3.243796 1.473245,2.769395 l -3.299288,3.299288 c -6.013192,6.013192 -9.168484,13.411124 -3.155292,7.397933 l 63.758917,-63.758917 c 6.013192,-6.013192 8.058361,-3.815720 2.045169,2.197472 l -44.770453,44.770453 c -6.013192,6.013192 -0.241093,4.483734 5.772099,-1.529458 l 41.941098,-41.941098 c 6.013192,-6.013192 9.193982,-4.951342 3.180791,1.061850 l -40.726352,40.726352 c -6.013192,6.013192 1.349513,2.893128 7.362705,-3.120064 l 36.591263,-36.591263 c 6.013192,-6.013192 9.079998,-4.837357 3.066807,1.175834 l -34.433255,34.433255 c -6.013192,6.013192 1.448066,2.794575 7.461257,-3.218617 l 30.089973,-30.089973 c 6.013192,-6.013192 10.159332,-5.916691 4.146141,0.096500 l -27.684603,27.684603 c -6.013192,6.013192 0.671418,3.571223 6.684610,-2.441969 l 24.329198,-24.329198 c 6.013192,-6.013192 9.674592,-5.431951 3.661400,0.581240 l -22.152094,22.152094 c -6.013192,6.013192 0.520187,3.722454 6.533379,-2.290738 l 19.195605,-19.195605 c 6.013192,-6.013192 14.869666,-10.627025 8.856474,-4.613833 l -20.466229,20.466229 c -6.013192,6.013192 1.978598,2.264042 7.991790,-3.749149 l 14.925193,-14.925193 c 6.013192,-6.013192 6.446777,-2.204137 0.433586,3.809055 l -8.761008,8.761008 c -6.013192,6.013192 -1.028255,5.270896 4.984936,-0.742295 l 6.621534,-6.621534 c 2.957354,-2.957354 3.636460,0.606181 0.679106,3.563535 l -2.218016,2.218016 M 270.380353,390.230366 l 61.135822,-61.135822 c 6.013192,-6.013192 7.624655,-3.382014 1.611463,2.631177 l -58.169198,58.169198 c -6.013192,6.013192 -5.811729,10.054370 0.201462,4.041178 l 60.047256,-60.047256 c 6.013192,-6.013192 8.318469,-4.075828 2.305277,1.937363 l -61.115015,61.115015 c -6.013192,6.013192 -4.251581,8.494222 1.761611,2.481030 l 62.268642,-62.268642 c 6.013192,-6.013192 8.167910,-3.925270 2.154719,2.087922 l -63.452851,63.452851 c -6.013192,6.013192 -2.456816,6.699457 3.556375,0.686265 l 62.083705,-62.083705 c 6.013192,-6.013192 8.303940,-4.061299 2.290748,1.951892 l -60.578359,60.578359 c -6.013192,6.013192 -1.701039,5.943680 4.312152,-0.069512 l 58.736356,-58.736356 c 6.013192,-6.013192 8.866195,-4.623554 2.853003,1.389637 l -57.254049,57.254049 c -6.013192,6.013192 -2.911654,7.154295 3.101537,1.141103 l 57.300714,-57.300714 c 6.013192,-6.013192 8.013050,-3.770409 1.999858,2.242782 l -55.994139,55.994139 c -6.013192,6.013192 -0.903633,5.146274 5.109559,-0.866918 l 52.766431,-52.766431 c 6.013192,-6.013192 8.009780,-3.767139 1.996589,2.246052 l -46.334522,46.334522 c -6.013192,6.013192 3.531405,0.711235 9.544597,-5.301956 l 39.075112,-39.075112 c 6.013192,-6.013192 6.957220,-2.714579 0.944028,3.298612 l -30.290521,30.290521 c -6.013192,6.013192 -2.249929,6.492569 3.763263,0.479378 l 28.299575,-28.299575 c 6.013192,-6.013192 7.552942,-3.310301 1.539750,2.702891 l -32.017278,32.017278 M 373.933967,363.044284 l -106.365333,106.365333 c -6.013192,6.013192 -4.679587,8.922228 1.333604,2.909036 l 90.509140,-90.509140 c 6.013192,-6.013192 6.831226,-2.588585 0.818034,3.424607 l -89.793592,89.793592 c -6.013192,6.013192 -4.991841,9.234482 1.021350,3.221290 l 95.043552,-95.043552 M 232.521591,538.397786 l 1.606352,-1.606352 M 284.964431,502.925508 l -1.002094,1.002094 c -1.336125,1.336125 0.710012,3.532629 2.046137,2.196504 l 0.998693,-0.998693 c 2.667716,-2.667716 7.604207,-3.361567 4.936491,-0.693850 l -2.664177,2.664177 c -6.013192,6.013192 -7.123599,11.366239 -1.110407,5.353048 l 4.866842,-4.866842 c 6.013192,-6.013192 11.041491,-6.798850 5.028300,-0.785659 l -10.757708,10.757708 c -6.013192,6.013192 -5.975518,10.218159 0.037673,4.204968 l 16.429199,-16.429199 c 6.013192,-6.013192 13.780170,-9.537530 7.766979,-3.524338 l -24.179820,24.179820 c -6.013192,6.013192 -5.789293,10.031933 0.223899,4.018742 l 28.278363,-28.278363 c 6.013192,-6.013192 18.209068,-5.481146 12.195876,0.532046 l -39.749842,39.749842 c -6.013192,6.013192 -5.730236,1.487595 0.282956,-4.525596 l 120.187131,-120.187131 c 6.013192,-6.013192 -0.469305,4.711946 -6.482497,10.725138 l -57.604713,57.604713 c -6.013192,6.013192 1.452136,2.790504 7.465328,-3.222687 l 45.766303,-45.766303 c 6.013192,-6.013192 -5.743185,9.985826 -11.756377,15.999017 l -25.045606,25.045606 M 439.660319,356.714902 l -128.882138,128.882138 c -6.013192,6.013192 0.296682,3.945959 6.309873,-2.067232 l 115.081225,-115.081225 c 6.013192,-6.013192 4.785416,-0.542775 -1.227776,5.470417 l -109.682132,109.682132 c -6.013192,6.013192 0.941863,3.300778 6.955055,-2.712414 l 99.648408,-99.648408 c 6.013192,-6.013192 0.834303,3.408338 -5.178889,9.421529 l -91.664055,91.664055 c -6.013192,6.013192 -4.885896,9.128536 1.127296,3.115345 l 86.517075,-86.517075 c 6.013192,-6.013192 2.993263,1.249378 -3.019929,7.262569 l -132.235493,132.235493 M 273.911776,564.889852 l -10.420498,10.420498 c -6.013192,6.013192 -5.596545,9.839186 0.416647,3.825994 l 4.856742,-4.856742 c 6.013192,-6.013192 5.552437,-1.309796 -0.460755,4.703395 l -2.921535,2.921535 c -6.013192,6.013192 -4.111168,8.353809 1.902023,2.340617 l 1.864990,-1.864990 c 5.194312,-5.194312 4.440489,-0.197849 -0.753822,4.996463 l -0.551435,0.551435 c -4.459065,4.459065 -3.605835,7.848475 0.853230,3.389410 l 0.494783,-0.494783 c 3.799354,-3.799354 3.480726,0.761915 -0.318628,4.561269 l -0.383721,0.383721 c -3.287725,3.287725 -2.096691,6.339332 1.191035,3.051606 l 0.000000,0.000000 c 3.287725,-3.287725 1.792844,2.449797 -1.494882,5.737523 l -18.978176,18.978176 c -6.013192,6.013192 -6.836566,11.079206 -0.823374,5.066015 l 16.877379,-16.877379 c 6.013192,-6.013192 5.840703,-1.598063 -0.172488,4.415129 l -17.796921,17.796921 c -6.013192,6.013192 -4.989161,9.231802 1.024031,3.218610 l 16.434736,-16.434736 c 6.013192,-6.013192 6.083164,-1.840524 0.069973,4.172668 l -15.248228,15.248228 c -6.013192,6.013192 -4.638610,8.881251 1.374581,2.868059 l 13.144936,-13.144936 c 6.013192,-6.013192 6.011380,-1.768739 -0.001812,4.244453 l -12.099632,12.099632 c -6.013192,6.013192 -5.800414,10.043055 0.212777,4.029863 l 12.924018,-12.924018 c 6.013192,-6.013192 7.130852,-2.888211 1.117661,3.124980 l -31.143912,31.143912 c -6.013192,6.013192 -17.140610,25.625891 -11.127418,19.612700 l 15.534413,-15.534413 c 6.013192,-6.013192 -12.635268,4.149987 -18.648460,10.163178 l -0.545253,0.545253 c -6.013192,6.013192 -6.370949,10.613590 -0.357758,4.600398 l 51.980245,-51.980245 M 249.930871,614.326601 l 1.904842,-1.904842 c 2.539790,-2.539790 8.377844,-4.135203 5.838054,-1.595413 l -10.040756,10.040756"
         transform="matrix(13.3333 0 0 -13.3333 -0 11220)"
         id="path226" />
    </g>
    <g
       id="g233">
      <path
         d="M2055 9810 c-3 -5 -3 -21 1 -35 4 -16 2 -25 -6 -25 -20 0 -104 -54 -91 -58 7 -2 17 -15 22 -29 12 -31 30 -26 42 13 5 16 17 38 27 49 14 16 40 76 40 91 0 8 -29 3 -35 -6z"
         id="path14" />
      <path
         style="fill:none;stroke:#000000;stroke-width:1.0"
         d="M 152.883037,111.548978 l -2.488748,2.488748"
         transform="matrix(13.3333 0 0 -13.3333 -0 11220)"
         id="path231" />
    </g>
    <g
       id="g238">
      <path
         d="M1533 9283 c-44 -26 -63 -43 -66 -62 -3 -14 -9 -38 -13 -53 -5 -24 -3 -28 14 -28 33 0 72 18 79 37 4 10 22 32 40 49 35 33 42 64 20 83 -10 8 -28 2 -74 -26z"
         id="path22" />
      <path
         style="fill:none;stroke:#000000;stroke-width:1.0"
         d="M 118.909752,145.774930 l -7.892966,7.892966"
         transform="matrix(13.3333 0 0 -13.3333 -0 11220)"
         id="path236" />
    </g>
    <g
       id="g243">
      <path
         d="M2054 9037 l-61 -64 -5 -89 c-3 -49 -2 -136 2 -194 4 -58 7 -93 8 -78 1 15 13 51 26 80 46 102 56 129 56 152 0 26 19 86 31 100 13 14 41 -15 35 -37 -2 -11 0 -27 6 -37 7 -10 8 -25 3 -36 -12 -28 -15 -104 -5 -104 5 0 22 -12 38 -27 29 -27 30 -30 21 -83 -5 -34 -5 -58 1 -64 13 -13 13 -29 -2 -63 -6 -15 -12 -37 -12 -48 -1 -14 -9 -21 -28 -23 -37 -4 -36 -30 2 -46 27 -11 28 -13 14 -28 -13 -12 -14 -20 -5 -36 19 -36 18 -127 -1 -149 -22 -24 -22 -43 -3 -89 12 -30 19 -35 42 -32 23 2 29 9 31 33 2 17 8 35 13 41 15 18 19 108 19 374 0 293 -8 428 -26 455 -8 11 -14 35 -14 55 0 19 -9 50 -20 68 -17 28 -25 32 -63 32 -39 0 -47 -5 -103 -63z"
         id="path24" />
      <path
         style="fill:none;stroke:#000000;stroke-width:1.0"
         d="M 152.266571,169.371289 l 3.876155,-3.876155 c 5.168207,-5.168207 8.802001,-4.559360 3.633794,0.608847 l -6.137372,6.137372 c -2.208870,2.208870 -2.370148,6.612789 -0.161278,4.403919 l 0.749842,-0.749842 c 1.209080,-1.209080 -0.290903,4.533544 -1.499983,5.742624 l 0.000000,-0.000000 c -1.209080,1.209080 10.150686,2.577236 11.359766,1.368156 l 1.648421,-1.648421 c 2.530912,-2.530912 2.257942,-6.500582 -0.272970,-3.969670 l -0.494652,0.494652 c -1.871375,1.871375 -1.701800,-2.540841 0.169575,-4.412216 l 0.024912,-0.024912 c 1.838160,-1.838160 1.195332,-5.437973 -0.642828,-3.599813 l 0.000000,-0.000000 c -1.838160,1.838160 -3.314388,-0.928253 -1.476228,-2.766413 l 0.663566,-0.663566 c 1.700954,-1.700954 4.559440,16.653764 2.858485,18.354718 l 0.000000,-0.000000 c -1.700954,1.700954 -1.579419,27.035263 0.121535,25.334309 l 0.091185,-0.091185 c 1.822534,-1.822534 1.800737,2.441904 -0.021798,4.264438 l -0.587787,0.587787 c -1.102028,1.102028 0.004341,4.238300 1.106369,3.136272 l -0.000000,0.000000 c 1.102028,-1.102028 0.867709,7.617572 -0.234319,8.719601 l -1.277350,1.277350 c -1.825465,1.825465 -1.203589,5.446230 0.621876,3.620764 l 1.369099,-1.369099"
         transform="matrix(13.3333 0 0 -13.3333 -0 11220)"
         id="path241" />
    </g>
    <g
       id="g248">
      <path
         d="M5297 4632 c-20 -22 -22 -71 -4 -94 6 -9 23 -18 37 -20 17 -2 26 -10 28 -25 2 -13 8 -23 13 -23 5 0 9 -11 9 -25 0 -14 -3 -25 -8 -25 -14 0 -30 -93 -20 -116 8 -16 6 -31 -5 -54 -13 -25 -14 -36 -5 -58 7 -15 12 -56 13 -92 0 -63 1 -65 25 -61 14 1 34 13 45 25 19 19 21 33 21 127 -1 84 -4 111 -17 125 -16 18 -20 46 -34 224 -8 87 -59 136 -98 92z"
         id="path38" />
      <path
         style="fill:none;stroke:#000000;stroke-width:1.0"
         d="M 398.723386,498.477549 l 0.882976,-0.882976 c 1.177301,-1.177301 6.236022,23.462462 5.058721,24.639763 l -0.781948,0.781948 c -1.541795,1.541795 -0.529376,4.772017 1.012419,3.230222 l 0.173006,-0.173006 c 1.311120,-1.311120 1.533238,2.709402 0.222118,4.020523 l -0.000000,0.000000 c -1.311120,1.311120 -1.650409,5.893049 -0.339288,4.581929 l 1.297815,-1.297815"
         transform="matrix(13.3333 0 0 -13.3333 -0 11220)"
         id="path246" />
    </g>
    <g
       id="g253">
      <path
         d="M3715 2598 c-4 -9 -2 -25 4 -37 6 -11 11 -29 11 -40 0 -12 7 -21 15 -21 9 0 20 -12 25 -26 6 -15 19 -38 30 -52 11 -13 20 -33 20 -43 0 -13 7 -19 24 -19 26 0 76 -50 76 -76 0 -8 11 -19 25 -24 14 -5 25 -15 25 -22 0 -7 10 -18 23 -23 12 -6 23 -20 25 -33 2 -13 13 -27 25 -32 28 -12 67 -45 67 -57 0 -5 18 -17 40 -27 22 -10 39 -23 38 -29 -3 -13 44 -67 58 -67 11 0 70 -63 76 -81 2 -7 23 -12 48 -13 38 -1 45 2 48 19 2 11 -5 28 -15 38 -49 48 -76 67 -94 67 -10 0 -19 7 -19 15 0 8 -25 40 -55 70 -30 30 -55 61 -55 70 0 9 -5 13 -10 10 -16 -10 -40 15 -40 41 0 15 -6 24 -16 24 -25 0 -76 48 -106 99 -14 25 -32 46 -40 46 -13 1 -84 70 -125 123 -31 40 -71 82 -78 82 -3 0 -6 -10 -6 -22 -1 -21 -2 -21 -6 -3 -3 11 -11 29 -19 39 -12 17 -14 17 -19 4z"
         id="path42" />
      <path
         style="fill:none;stroke:#000000;stroke-width:1.0"
         d="M 307.267280,676.559145 l -1.691412,1.691412"
         transform="matrix(13.3333 0 0 -13.3333 -0 11220)"
         id="path251" />
    </g>
  </g>
</svg>
